<svg width="28" height="28" viewBox="0 0 28 28" fill="none" xmlns="http://www.w3.org/2000/svg">
<circle cx="14" cy="14" r="14" fill="white"/>
<path d="M4.31279 13.6464C4.11753 13.8417 4.11753 14.1583 4.31279 14.3536L7.49477 17.5355C7.69003 17.7308 8.00661 17.7308 8.20188 17.5355C8.39714 17.3403 8.39714 17.0237 8.20188 16.8284L5.37345 14L8.20188 11.1716C8.39714 10.9763 8.39714 10.6597 8.20188 10.4645C8.00661 10.2692 7.69003 10.2692 7.49477 10.4645L4.31279 13.6464ZM5.83301 13.5H4.66634V14.5H5.83301V13.5Z" fill="black"/>
<path d="M23.6872 13.6464C23.8825 13.8417 23.8825 14.1583 23.6872 14.3536L20.5052 17.5355C20.31 17.7308 19.9934 17.7308 19.7981 17.5355C19.6029 17.3403 19.6029 17.0237 19.7981 16.8284L22.6266 14L19.7981 11.1716C19.6029 10.9763 19.6029 10.6597 19.7981 10.4645C19.9934 10.2692 20.31 10.2692 20.5052 10.4645L23.6872 13.6464ZM22.167 13.5H23.3337V14.5H22.167V13.5Z" fill="black"/>
</svg>
