<svg width="171" height="95" viewBox="0 0 171 95" fill="none" xmlns="http://www.w3.org/2000/svg">
<path d="M10.3184 41.3096C10.3184 42.0248 10.2274 42.6765 10.0454 43.2647C9.86344 43.8487 9.59261 44.3523 9.23291 44.7755C8.87744 45.1944 8.43522 45.5181 7.90625 45.7466C7.37728 45.9752 6.76367 46.0894 6.06543 46.0894C5.34603 46.0894 4.71761 45.9752 4.18018 45.7466C3.64697 45.5181 3.20264 45.1923 2.84717 44.7691C2.49593 44.3459 2.23145 43.8402 2.05371 43.252C1.88021 42.6638 1.79346 42.0121 1.79346 41.2969C1.79346 40.349 1.95003 39.5175 2.26318 38.8023C2.57633 38.0871 3.05029 37.5307 3.68506 37.1329C4.32406 36.7351 5.12386 36.5362 6.08447 36.5362C7.00277 36.5362 7.77507 36.733 8.40137 37.1265C9.0319 37.5201 9.50798 38.0744 9.82959 38.7896C10.1554 39.5005 10.3184 40.3406 10.3184 41.3096ZM2.92969 41.3096C2.92969 42.0967 3.04183 42.7781 3.26611 43.3536C3.4904 43.9291 3.83317 44.3734 4.29443 44.6866C4.75993 44.9997 5.35026 45.1563 6.06543 45.1563C6.78483 45.1563 7.37305 44.9997 7.83008 44.6866C8.29134 44.3734 8.632 43.9291 8.85205 43.3536C9.0721 42.7781 9.18213 42.0967 9.18213 41.3096C9.18213 40.112 8.93034 39.1768 8.42676 38.504C7.92741 37.8269 7.14665 37.4883 6.08447 37.4883C5.36507 37.4883 4.77262 37.6428 4.30713 37.9517C3.84163 38.2606 3.49463 38.7007 3.26611 39.272C3.04183 39.8391 2.92969 40.5183 2.92969 41.3096ZM16.1125 36.6822C17.3101 36.6822 18.184 36.9171 18.7341 37.3868C19.2884 37.8523 19.5656 38.5209 19.5656 39.3926C19.5656 39.7862 19.5 40.1607 19.3688 40.5162C19.2419 40.8674 19.0345 41.1784 18.7468 41.4493C18.459 41.7159 18.0803 41.9275 17.6105 42.084C17.1451 42.2364 16.5738 42.3126 15.8967 42.3126H14.7668V45.9625H13.6877V36.6822H16.1125ZM16.0109 37.6026H14.7668V41.3858H15.7761C16.3685 41.3858 16.8615 41.3223 17.2551 41.1954C17.6529 41.0684 17.9512 40.8632 18.1501 40.5797C18.349 40.2919 18.4484 39.911 18.4484 39.4371C18.4484 38.8192 18.2517 38.3601 17.8581 38.0596C17.4646 37.7549 16.8488 37.6026 16.0109 37.6026ZM22.8207 36.6822H23.83V42.046C23.83 42.2491 23.8279 42.4713 23.8236 42.7125C23.8194 42.9494 23.8131 43.1822 23.8046 43.4107C23.7961 43.6392 23.7855 43.8466 23.7729 44.0328C23.7644 44.219 23.7559 44.3629 23.7475 44.4644H23.7982L28.9652 36.6822H30.1522V45.9625H29.143V40.6622C29.143 40.4379 29.1472 40.2009 29.1557 39.9512C29.1641 39.6973 29.1726 39.4519 29.1811 39.2149C29.1938 38.9779 29.2064 38.7663 29.2191 38.5801C29.2318 38.3897 29.2403 38.2437 29.2445 38.1422H29.1874L24.0141 45.9625H22.8207V36.6822ZM39.1964 36.6822V37.647H35.0641V45.9625H33.985V36.6822H39.1964ZM42.0643 36.6822H43.0735V42.046C43.0735 42.2491 43.0714 42.4713 43.0672 42.7125C43.063 42.9494 43.0566 43.1822 43.0481 43.4107C43.0397 43.6392 43.0291 43.8466 43.0164 44.0328C43.0079 44.219 42.9995 44.3629 42.991 44.4644H43.0418L48.2088 36.6822H49.3958V45.9625H48.3865V40.6622C48.3865 40.4379 48.3908 40.2009 48.3992 39.9512C48.4077 39.6973 48.4161 39.4519 48.4246 39.2149C48.4373 38.9779 48.45 38.7663 48.4627 38.5801C48.4754 38.3897 48.4839 38.2437 48.4881 38.1422H48.431L43.2576 45.9625H42.0643V36.6822ZM60.2617 45.9625H59.1826V41.5889H54.3076V45.9625H53.2285V36.6822H54.3076V40.6368H59.1826V36.6822H60.2617V45.9625ZM69.9343 45.9625L68.7917 43.0172H65.072L63.9357 45.9625H62.8439L66.4748 36.6441H67.446L71.0515 45.9625H69.9343ZM68.468 42.0587L67.3825 39.1324C67.3571 39.0562 67.3148 38.9314 67.2556 38.7579C67.2006 38.5844 67.1434 38.4045 67.0842 38.2183C67.0249 38.0321 66.9763 37.8819 66.9382 37.7676C66.8959 37.9411 66.8493 38.1146 66.7985 38.2881C66.752 38.4574 66.7054 38.6161 66.6589 38.7642C66.6123 38.9081 66.5721 39.0308 66.5383 39.1324L65.4338 42.0587H68.468ZM80.2416 45.9625H79.1625V37.6343H76.1537C76.0945 38.1083 76.031 38.6034 75.9633 39.1197C75.8956 39.636 75.8257 40.1501 75.7538 40.6622C75.6819 41.1742 75.6099 41.6588 75.538 42.1158C75.466 42.5728 75.3941 42.9791 75.3222 43.3345C75.2121 43.9227 75.0746 44.4242 74.9096 44.8389C74.7488 45.2494 74.5329 45.5647 74.2621 45.7847C73.9955 46.0005 73.6422 46.1085 73.202 46.1085C73.0539 46.1085 72.9058 46.0936 72.7577 46.064C72.6138 46.0344 72.4869 45.9984 72.3769 45.9561V45.0484C72.4742 45.0907 72.5821 45.1267 72.7006 45.1563C72.8233 45.1859 72.9524 45.2007 73.0878 45.2007C73.3544 45.2007 73.5639 45.095 73.7162 44.8834C73.8728 44.6675 73.9955 44.3946 74.0844 44.0645C74.1775 43.7344 74.2579 43.3959 74.3256 43.0489C74.3806 42.7611 74.4441 42.3972 74.516 41.9571C74.588 41.517 74.6641 41.0176 74.7445 40.459C74.8249 39.8962 74.9075 39.2953 74.9921 38.6563C75.081 38.0173 75.1677 37.3593 75.2523 36.6822H80.2416V45.9625ZM84.0807 45.9625V36.6822H85.1598V40.6304H86.9244C87.7623 40.6304 88.433 40.7447 88.9366 40.9732C89.4444 41.1975 89.8105 41.5085 90.0348 41.9063C90.2633 42.2999 90.3775 42.7484 90.3775 43.252C90.3775 44.0814 90.1046 44.7416 89.5587 45.2325C89.0128 45.7191 88.1834 45.9625 87.0704 45.9625H84.0807ZM85.1598 45.0357H86.9562C87.7263 45.0357 88.304 44.8897 88.6891 44.5977C89.0742 44.3015 89.2667 43.8529 89.2667 43.252C89.2667 42.8331 89.1715 42.5009 88.9811 42.2554C88.7906 42.01 88.5113 41.8344 88.1432 41.7286C87.7792 41.6228 87.3285 41.5699 86.7911 41.5699H85.1598V45.0357ZM100.653 45.9625H99.574V41.5889H94.699V45.9625H93.6199V36.6822H94.699V40.6368H99.574V36.6822H100.653V45.9625ZM112.554 41.3096C112.554 42.0248 112.463 42.6765 112.281 43.2647C112.099 43.8487 111.828 44.3523 111.468 44.7755C111.113 45.1944 110.671 45.5181 110.142 45.7466C109.613 45.9752 108.999 46.0894 108.301 46.0894C107.581 46.0894 106.953 45.9752 106.416 45.7466C105.882 45.5181 105.438 45.1923 105.083 44.7691C104.731 44.3459 104.467 43.8402 104.289 43.252C104.116 42.6638 104.029 42.0121 104.029 41.2969C104.029 40.349 104.185 39.5175 104.499 38.8023C104.812 38.0871 105.286 37.5307 105.92 37.1329C106.559 36.7351 107.359 36.5362 108.32 36.5362C109.238 36.5362 110.01 36.733 110.637 37.1265C111.267 37.5201 111.743 38.0744 112.065 38.7896C112.391 39.5005 112.554 40.3406 112.554 41.3096ZM105.165 41.3096C105.165 42.0967 105.277 42.7781 105.501 43.3536C105.726 43.9291 106.069 44.3734 106.53 44.6866C106.995 44.9997 107.586 45.1563 108.301 45.1563C109.02 45.1563 109.608 44.9997 110.065 44.6866C110.527 44.3734 110.867 43.9291 111.087 43.3536C111.307 42.7781 111.417 42.0967 111.417 41.3096C111.417 40.112 111.166 39.1768 110.662 38.504C110.163 37.8269 109.382 37.4883 108.32 37.4883C107.6 37.4883 107.008 37.6428 106.542 37.9517C106.077 38.2606 105.73 38.7007 105.501 39.272C105.277 39.8391 105.165 40.5183 105.165 41.3096ZM121.09 45.9625H115.923V36.6822H121.09V37.6343H117.002V40.6368H120.855V41.5762H117.002V45.0103H121.09V45.9625ZM8.87109 65.9625H7.79199V57.6343H4.7832C4.72396 58.1083 4.66048 58.6034 4.59277 59.1197C4.52507 59.636 4.45524 60.1501 4.3833 60.6622C4.31136 61.1742 4.23942 61.6588 4.16748 62.1158C4.09554 62.5728 4.0236 62.9791 3.95166 63.3345C3.84163 63.9227 3.7041 64.4242 3.53906 64.8389C3.37826 65.2494 3.16243 65.5647 2.8916 65.7847C2.625 66.0005 2.27165 66.1085 1.83154 66.1085C1.68343 66.1085 1.53532 66.0936 1.38721 66.064C1.24333 66.0344 1.11637 65.9984 1.00635 65.9561V65.0484C1.10368 65.0907 1.21159 65.1267 1.33008 65.1563C1.4528 65.1859 1.58187 65.2007 1.71729 65.2007C1.98389 65.2007 2.19336 65.095 2.3457 64.8834C2.50228 64.6675 2.625 64.3946 2.71387 64.0645C2.80697 63.7344 2.88737 63.3959 2.95508 63.0489C3.01009 62.7611 3.07357 62.3972 3.14551 61.9571C3.21745 61.517 3.29362 61.0176 3.37402 60.459C3.45443 59.8962 3.53695 59.2953 3.62158 58.6563C3.71045 58.0173 3.7972 57.3593 3.88184 56.6822H8.87109V65.9625ZM12.7229 56.6822H13.7321V62.046C13.7321 62.2491 13.73 62.4713 13.7258 62.7125C13.7215 62.9494 13.7152 63.1822 13.7067 63.4107C13.6983 63.6392 13.6877 63.8466 13.675 64.0328C13.6665 64.219 13.6581 64.3629 13.6496 64.4644H13.7004L18.8674 56.6822H20.0544V65.9625H19.0451V60.6622C19.0451 60.4379 19.0493 60.2009 19.0578 59.9512C19.0663 59.6973 19.0747 59.4519 19.0832 59.2149C19.0959 58.9779 19.1086 58.7663 19.1213 58.5801C19.134 58.3897 19.1424 58.2437 19.1467 58.1422H19.0896L13.9162 65.9625H12.7229V56.6822ZM31.9105 65.0103V68.3873H30.8759V65.9625H23.8871V56.6822H24.9662V64.9976H29.7333V56.6822H30.7997V65.0103H31.9105ZM39.9391 65.9625H34.7721V56.6822H39.9391V57.6343H35.8512V60.6368H39.7042V61.5762H35.8512V65.0103H39.9391V65.9625ZM50.3289 65.9625H49.2498V61.5889H44.3748V65.9625H43.2957V56.6822H44.3748V60.6368H49.2498V56.6822H50.3289V65.9625ZM59.5952 58.8594C59.5952 59.49 59.4006 59.9893 59.0112 60.3575C58.6219 60.7214 58.1014 60.9584 57.4497 61.0684V61.1129C58.2114 61.2229 58.7912 61.4683 59.189 61.8492C59.5868 62.23 59.7856 62.7294 59.7856 63.3472C59.7856 63.8931 59.6481 64.3734 59.373 64.7881C59.1022 65.1986 58.6938 65.5181 58.1479 65.7466C57.6021 65.9752 56.9229 66.0894 56.1104 66.0894C55.6068 66.0894 55.1265 66.0492 54.6694 65.9688C54.2124 65.8926 53.7935 65.7636 53.4126 65.5816V64.585C53.675 64.712 53.9585 64.822 54.2632 64.9151C54.5679 65.0082 54.8768 65.0801 55.1899 65.1309C55.5073 65.1775 55.8099 65.2007 56.0977 65.2007C56.9355 65.2007 57.5703 65.0399 58.002 64.7183C58.4378 64.3925 58.6558 63.9354 58.6558 63.3472C58.6558 62.7421 58.404 62.302 57.9004 62.0269C57.401 61.7476 56.6986 61.608 55.793 61.608H54.46V60.7003H55.7485C56.3579 60.7003 56.8636 60.6304 57.2656 60.4908C57.6676 60.3469 57.9681 60.1459 58.167 59.8878C58.3701 59.6254 58.4717 59.3165 58.4717 58.961C58.4717 58.4743 58.2939 58.0998 57.9385 57.8375C57.5872 57.5751 57.1281 57.4439 56.561 57.4439C55.9728 57.4439 55.4862 57.5201 55.1011 57.6724C54.716 57.8205 54.3415 58.0131 53.9775 58.2501L53.457 57.5137C53.7025 57.336 53.9818 57.1752 54.2949 57.0313C54.6081 56.8832 54.9551 56.7668 55.3359 56.6822C55.7168 56.5933 56.1273 56.5489 56.5674 56.5489C57.2233 56.5489 57.7756 56.6483 58.2241 56.8472C58.6727 57.0419 59.0133 57.3127 59.2461 57.6597C59.4788 58.0067 59.5952 58.4066 59.5952 58.8594ZM63.0725 56.6822H64.0817V62.046C64.0817 62.2491 64.0796 62.4713 64.0754 62.7125C64.0712 62.9494 64.0648 63.1822 64.0563 63.4107C64.0479 63.6392 64.0373 63.8466 64.0246 64.0328C64.0161 64.219 64.0077 64.3629 63.9992 64.4644H64.05L69.217 56.6822H70.404V65.9625H69.3947V60.6622C69.3947 60.4379 69.399 60.2009 69.4074 59.9512C69.4159 59.6973 69.4243 59.4519 69.4328 59.2149C69.4455 58.9779 69.4582 58.7663 69.4709 58.5801C69.4836 58.3897 69.4921 58.2437 69.4963 58.1422H69.4392L64.2658 65.9625H63.0725V56.6822ZM76.6615 56.6822C77.8591 56.6822 78.733 56.9171 79.2831 57.3868C79.8375 57.8523 80.1146 58.5209 80.1146 59.3926C80.1146 59.7862 80.0491 60.1607 79.9179 60.5162C79.7909 60.8674 79.5836 61.1784 79.2958 61.4493C79.008 61.7159 78.6293 61.9275 78.1596 62.084C77.6941 62.2364 77.1228 62.3126 76.4457 62.3126H75.3158V65.9625H74.2367V56.6822H76.6615ZM76.56 57.6026H75.3158V61.3858H76.3251C76.9175 61.3858 77.4105 61.3223 77.8041 61.1954C78.2019 61.0684 78.5002 60.8632 78.6991 60.5797C78.898 60.2919 78.9975 59.911 78.9975 59.4371C78.9975 58.8192 78.8007 58.3601 78.4071 58.0596C78.0136 57.7549 77.3979 57.6026 76.56 57.6026ZM91.4059 61.3096C91.4059 62.0248 91.3149 62.6765 91.1329 63.2647C90.9509 63.8487 90.6801 64.3523 90.3204 64.7755C89.9649 65.1944 89.5227 65.5181 88.9938 65.7466C88.4648 65.9752 87.8512 66.0894 87.1529 66.0894C86.4335 66.0894 85.8051 65.9752 85.2677 65.7466C84.7345 65.5181 84.2901 65.1923 83.9347 64.7691C83.5834 64.3459 83.3189 63.8402 83.1412 63.252C82.9677 62.6638 82.881 62.0121 82.881 61.2969C82.881 60.349 83.0375 59.5175 83.3507 58.8023C83.6638 58.0871 84.1378 57.5307 84.7726 57.1329C85.4116 56.7351 86.2114 56.5362 87.172 56.5362C88.0903 56.5362 88.8626 56.733 89.4889 57.1265C90.1194 57.5201 90.5955 58.0744 90.9171 58.7896C91.2429 59.5005 91.4059 60.3406 91.4059 61.3096ZM84.0172 61.3096C84.0172 62.0967 84.1293 62.7781 84.3536 63.3536C84.5779 63.9291 84.9207 64.3734 85.3819 64.6866C85.8474 64.9997 86.4378 65.1563 87.1529 65.1563C87.8723 65.1563 88.4605 64.9997 88.9176 64.6866C89.3788 64.3734 89.7195 63.9291 89.9396 63.3536C90.1596 62.7781 90.2696 62.0967 90.2696 61.3096C90.2696 60.112 90.0178 59.1768 89.5143 58.504C89.0149 57.8269 88.2341 57.4883 87.172 57.4883C86.4526 57.4883 85.8601 57.6428 85.3946 57.9517C84.9291 58.2606 84.5821 58.7007 84.3536 59.272C84.1293 59.8391 84.0172 60.5183 84.0172 61.3096ZM94.7752 56.6822H97.4031C98.5626 56.6822 99.4344 56.8557 100.018 57.2027C100.602 57.5497 100.894 58.14 100.894 58.9737C100.894 59.3334 100.825 59.6571 100.685 59.9449C100.549 60.2284 100.351 60.4633 100.088 60.6495C99.8258 60.8357 99.5021 60.9647 99.117 61.0367V61.1002C99.5232 61.1636 99.8829 61.28 100.196 61.4493C100.509 61.6186 100.755 61.8555 100.932 62.1602C101.11 62.4649 101.199 62.8521 101.199 63.3218C101.199 63.8931 101.066 64.3755 100.799 64.7691C100.537 65.1627 100.164 65.461 99.6819 65.6641C99.1995 65.863 98.6282 65.9625 97.9681 65.9625H94.7752V56.6822ZM95.8543 60.6622H97.6316C98.4399 60.6622 98.9985 60.5289 99.3074 60.2623C99.6206 59.9957 99.7771 59.6063 99.7771 59.0943C99.7771 58.5653 99.5909 58.1845 99.2186 57.9517C98.8504 57.719 98.2622 57.6026 97.4539 57.6026H95.8543V60.6622ZM95.8543 61.5699V65.0421H97.784C98.6092 65.0421 99.1932 64.8812 99.5359 64.5596C99.8787 64.2338 100.05 63.7958 100.05 63.2457C100.05 62.8944 99.9718 62.594 99.8152 62.3443C99.6629 62.0946 99.4132 61.9042 99.0662 61.773C98.7234 61.6376 98.2643 61.5699 97.6888 61.5699H95.8543ZM110.3 65.9625L109.158 63.0172H105.438L104.302 65.9625H103.21L106.841 56.6441H107.812L111.417 65.9625H110.3ZM108.834 62.0587L107.749 59.1324C107.723 59.0562 107.681 58.9314 107.622 58.7579C107.567 58.5844 107.509 58.4045 107.45 58.2183C107.391 58.0321 107.342 57.8819 107.304 57.7676C107.262 57.9411 107.215 58.1146 107.165 58.2881C107.118 58.4574 107.071 58.6161 107.025 58.7642C106.978 58.9081 106.938 59.0308 106.904 59.1324L105.8 62.0587H108.834ZM121.039 65.9625H119.96V61.5889H115.085V65.9625H114.006V56.6822H115.085V60.6368H119.96V56.6822H121.039V65.9625ZM131.924 65.9625H130.845V61.5889H125.97V65.9625H124.891V56.6822H125.97V60.6368H130.845V56.6822H131.924V65.9625ZM143.825 61.3096C143.825 62.0248 143.734 62.6765 143.552 63.2647C143.37 63.8487 143.099 64.3523 142.739 64.7755C142.384 65.1944 141.942 65.5181 141.413 65.7466C140.884 65.9752 140.27 66.0894 139.572 66.0894C138.852 66.0894 138.224 65.9752 137.687 65.7466C137.153 65.5181 136.709 65.1923 136.354 64.7691C136.002 64.3459 135.738 63.8402 135.56 63.252C135.387 62.6638 135.3 62.0121 135.3 61.2969C135.3 60.349 135.456 59.5175 135.77 58.8023C136.083 58.0871 136.557 57.5307 137.191 57.1329C137.83 56.7351 138.63 56.5362 139.591 56.5362C140.509 56.5362 141.282 56.733 141.908 57.1265C142.538 57.5201 143.014 58.0744 143.336 58.7896C143.662 59.5005 143.825 60.3406 143.825 61.3096ZM136.436 61.3096C136.436 62.0967 136.548 62.7781 136.773 63.3536C136.997 63.9291 137.34 64.3734 137.801 64.6866C138.266 64.9997 138.857 65.1563 139.572 65.1563C140.291 65.1563 140.879 64.9997 141.337 64.6866C141.798 64.3734 142.138 63.9291 142.358 63.3536C142.579 62.7781 142.689 62.0967 142.689 61.3096C142.689 60.112 142.437 59.1768 141.933 58.504C141.434 57.8269 140.653 57.4883 139.591 57.4883C138.872 57.4883 138.279 57.6428 137.814 57.9517C137.348 58.2606 137.001 58.7007 136.773 59.272C136.548 59.8391 136.436 60.5183 136.436 61.3096ZM152.361 65.9625H147.194V56.6822H152.361V57.6343H148.273V60.6368H152.126V61.5762H148.273V65.0103H152.361V65.9625ZM10.3184 81.3096C10.3184 82.0248 10.2274 82.6765 10.0454 83.2647C9.86344 83.8487 9.59261 84.3523 9.23291 84.7755C8.87744 85.1944 8.43522 85.5181 7.90625 85.7466C7.37728 85.9752 6.76367 86.0894 6.06543 86.0894C5.34603 86.0894 4.71761 85.9752 4.18018 85.7466C3.64697 85.5181 3.20264 85.1923 2.84717 84.7691C2.49593 84.3459 2.23145 83.8402 2.05371 83.252C1.88021 82.6638 1.79346 82.0121 1.79346 81.2969C1.79346 80.349 1.95003 79.5175 2.26318 78.8023C2.57633 78.0871 3.05029 77.5307 3.68506 77.1329C4.32406 76.7351 5.12386 76.5362 6.08447 76.5362C7.00277 76.5362 7.77507 76.733 8.40137 77.1265C9.0319 77.5201 9.50798 78.0744 9.82959 78.7896C10.1554 79.5005 10.3184 80.3406 10.3184 81.3096ZM2.92969 81.3096C2.92969 82.0967 3.04183 82.7781 3.26611 83.3536C3.4904 83.9291 3.83317 84.3734 4.29443 84.6866C4.75993 84.9997 5.35026 85.1563 6.06543 85.1563C6.78483 85.1563 7.37305 84.9997 7.83008 84.6866C8.29134 84.3734 8.632 83.9291 8.85205 83.3536C9.0721 82.7781 9.18213 82.0967 9.18213 81.3096C9.18213 80.112 8.93034 79.1768 8.42676 78.504C7.92741 77.8269 7.14665 77.4883 6.08447 77.4883C5.36507 77.4883 4.77262 77.6428 4.30713 77.9517C3.84163 78.2606 3.49463 78.7007 3.26611 79.272C3.04183 79.8391 2.92969 80.5183 2.92969 81.3096ZM13.6877 85.9625V76.6822H19.1403V77.6343H14.7668V80.6304H16.2077C17.1006 80.6304 17.7989 80.7405 18.3024 80.9605C18.806 81.1806 19.1594 81.4874 19.3625 81.8809C19.5699 82.2745 19.6735 82.7315 19.6735 83.252C19.6735 84.1068 19.4175 84.7733 18.9055 85.2515C18.3977 85.7255 17.5534 85.9625 16.3728 85.9625H13.6877ZM14.7668 85.0357H16.2585C17.0964 85.0357 17.6888 84.8897 18.0358 84.5977C18.3871 84.3015 18.5627 83.8529 18.5627 83.252C18.5627 82.8331 18.4781 82.5009 18.3088 82.2554C18.1395 82.01 17.8729 81.8344 17.509 81.7286C17.1451 81.6228 16.6669 81.5699 16.0744 81.5699H14.7668V85.0357ZM30.9965 81.3096C30.9965 82.0248 30.9055 82.6765 30.7235 83.2647C30.5416 83.8487 30.2707 84.3523 29.911 84.7755C29.5556 85.1944 29.1133 85.5181 28.5844 85.7466C28.0554 85.9752 27.4418 86.0894 26.7436 86.0894C26.0242 86.0894 25.3957 85.9752 24.8583 85.7466C24.3251 85.5181 23.8808 85.1923 23.5253 84.7691C23.1741 84.3459 22.9096 83.8402 22.7318 83.252C22.5583 82.6638 22.4716 82.0121 22.4716 81.2969C22.4716 80.349 22.6282 79.5175 22.9413 78.8023C23.2545 78.0871 23.7284 77.5307 24.3632 77.1329C25.0022 76.7351 25.802 76.5362 26.7626 76.5362C27.6809 76.5362 28.4532 76.733 29.0795 77.1265C29.71 77.5201 30.1861 78.0744 30.5077 78.7896C30.8336 79.5005 30.9965 80.3406 30.9965 81.3096ZM23.6078 81.3096C23.6078 82.0967 23.72 82.7781 23.9442 83.3536C24.1685 83.9291 24.5113 84.3734 24.9726 84.6866C25.4381 84.9997 26.0284 85.1563 26.7436 85.1563C27.463 85.1563 28.0512 84.9997 28.5082 84.6866C28.9695 84.3734 29.3101 83.9291 29.5302 83.3536C29.7502 82.7781 29.8603 82.0967 29.8603 81.3096C29.8603 80.112 29.6085 79.1768 29.1049 78.504C28.6055 77.8269 27.8248 77.4883 26.7626 77.4883C26.0432 77.4883 25.4507 77.6428 24.9853 77.9517C24.5198 78.2606 24.1728 78.7007 23.9442 79.272C23.72 79.8391 23.6078 80.5183 23.6078 81.3096ZM36.7906 76.6822C37.9882 76.6822 38.8621 76.9171 39.4122 77.3868C39.9666 77.8523 40.2438 78.5209 40.2438 79.3926C40.2438 79.7862 40.1782 80.1607 40.047 80.5162C39.92 80.8674 39.7127 81.1784 39.4249 81.4493C39.1371 81.7159 38.7584 81.9275 38.2887 82.084C37.8232 82.2364 37.2519 82.3126 36.5748 82.3126H35.4449V85.9625H34.3658V76.6822H36.7906ZM36.6891 77.6026H35.4449V81.3858H36.4542C37.0466 81.3858 37.5396 81.3223 37.9332 81.1954C38.331 81.0684 38.6293 80.8632 38.8282 80.5797C39.0271 80.2919 39.1266 79.911 39.1266 79.4371C39.1266 78.8192 38.9298 78.3601 38.5362 78.0596C38.1427 77.7549 37.527 77.6026 36.6891 77.6026ZM50.2464 76.6822L47.2249 83.4107C46.9625 84.0032 46.6959 84.4983 46.4251 84.8961C46.1543 85.2938 45.8327 85.5922 45.4603 85.7911C45.0879 85.99 44.616 86.0894 44.0447 86.0894C43.7993 86.0894 43.5708 86.0704 43.3592 86.0323C43.1518 85.9984 42.9656 85.954 42.8006 85.899V84.8262C42.9699 84.9066 43.1518 84.9701 43.3465 85.0167C43.5454 85.059 43.7549 85.0801 43.9749 85.0801C44.3007 85.0801 44.58 85.0315 44.8128 84.9341C45.0455 84.8326 45.2508 84.6739 45.4285 84.4581C45.6063 84.238 45.7755 83.9481 45.9363 83.5884L42.3563 76.6822H43.5369L46.1775 81.8682C46.2114 81.9317 46.2474 82.0058 46.2854 82.0904C46.3235 82.1708 46.3616 82.2554 46.3997 82.3443C46.4378 82.4289 46.4716 82.5136 46.5013 82.5982H46.5457C46.5711 82.5347 46.5986 82.4607 46.6282 82.376C46.6621 82.2914 46.6959 82.2068 46.7298 82.1221C46.7636 82.0375 46.7933 81.9656 46.8187 81.9063L49.0975 76.6822H50.2464ZM59.0049 76.6822V84.9976H60.1475V88.3873H59.1128V85.9625H52.6636V88.3873H51.6289V84.9976H52.3398C52.6572 84.456 52.9535 83.8487 53.2285 83.1758C53.5078 82.4988 53.7554 81.7921 53.9712 81.0557C54.1912 80.3152 54.369 79.5725 54.5044 78.8277C54.644 78.0829 54.7329 77.3677 54.771 76.6822H59.0049ZM57.9321 77.6534H55.7231C55.6851 78.1781 55.6004 78.7642 55.4692 79.4117C55.3381 80.0549 55.1688 80.7151 54.9614 81.3922C54.7583 82.0692 54.5298 82.7188 54.2759 83.3409C54.0262 83.963 53.7617 84.5152 53.4824 84.9976H57.9321V77.6534ZM71.0705 81.3096C71.0705 82.0248 70.9795 82.6765 70.7976 83.2647C70.6156 83.8487 70.3448 84.3523 69.9851 84.7755C69.6296 85.1944 69.1874 85.5181 68.6584 85.7466C68.1294 85.9752 67.5158 86.0894 66.8176 86.0894C66.0982 86.0894 65.4698 85.9752 64.9323 85.7466C64.3991 85.5181 63.9548 85.1923 63.5993 84.7691C63.2481 84.3459 62.9836 83.8402 62.8059 83.252C62.6324 82.6638 62.5456 82.0121 62.5456 81.2969C62.5456 80.349 62.7022 79.5175 63.0153 78.8023C63.3285 78.0871 63.8024 77.5307 64.4372 77.1329C65.0762 76.7351 65.876 76.5362 66.8366 76.5362C67.7549 76.5362 68.5272 76.733 69.1535 77.1265C69.784 77.5201 70.2601 78.0744 70.5817 78.7896C70.9076 79.5005 71.0705 80.3406 71.0705 81.3096ZM63.6818 81.3096C63.6818 82.0967 63.794 82.7781 64.0183 83.3536C64.2425 83.9291 64.5853 84.3734 65.0466 84.6866C65.5121 84.9997 66.1024 85.1563 66.8176 85.1563C67.537 85.1563 68.1252 84.9997 68.5822 84.6866C69.0435 84.3734 69.3841 83.9291 69.6042 83.3536C69.8243 82.7781 69.9343 82.0967 69.9343 81.3096C69.9343 80.112 69.6825 79.1768 69.1789 78.504C68.6796 77.8269 67.8988 77.4883 66.8366 77.4883C66.1172 77.4883 65.5248 77.6428 65.0593 77.9517C64.5938 78.2606 64.2468 78.7007 64.0183 79.272C63.794 79.8391 63.6818 80.5183 63.6818 81.3096ZM74.4398 76.6822H77.0678C78.2273 76.6822 79.099 76.8557 79.683 77.2027C80.267 77.5497 80.559 78.14 80.559 78.9737C80.559 79.3334 80.4892 79.6571 80.3495 79.9449C80.2141 80.2284 80.0152 80.4633 79.7528 80.6495C79.4905 80.8357 79.1667 80.9647 78.7816 81.0367V81.1002C79.1879 81.1636 79.5476 81.28 79.8607 81.4493C80.1739 81.6186 80.4193 81.8555 80.5971 82.1602C80.7748 82.4649 80.8637 82.8521 80.8637 83.3218C80.8637 83.8931 80.7304 84.3755 80.4638 84.7691C80.2014 85.1627 79.829 85.461 79.3466 85.6641C78.8642 85.863 78.2929 85.9625 77.6327 85.9625H74.4398V76.6822ZM75.5189 80.6622H77.2963C78.1046 80.6622 78.6631 80.5289 78.9721 80.2623C79.2852 79.9957 79.4418 79.6063 79.4418 79.0943C79.4418 78.5653 79.2556 78.1845 78.8832 77.9517C78.515 77.719 77.9268 77.6026 77.1186 77.6026H75.5189V80.6622ZM75.5189 81.5699V85.0421H77.4486C78.2738 85.0421 78.8578 84.8812 79.2006 84.5596C79.5434 84.2338 79.7147 83.7958 79.7147 83.2457C79.7147 82.8944 79.6365 82.594 79.4799 82.3443C79.3275 82.0946 79.0779 81.9042 78.7309 81.773C78.3881 81.6376 77.9289 81.5699 77.3534 81.5699H75.5189ZM89.9649 85.9625L88.8224 83.0172H85.1026L83.9664 85.9625H82.8746L86.5055 76.6441H87.4767L91.0821 85.9625H89.9649ZM88.4986 82.0587L87.4132 79.1324C87.3878 79.0562 87.3455 78.9314 87.2862 78.7579C87.2312 78.5844 87.1741 78.4045 87.1148 78.2183C87.0556 78.0321 87.0069 77.8819 86.9688 77.7676C86.9265 77.9411 86.88 78.1146 86.8292 78.2881C86.7827 78.4574 86.7361 78.6161 86.6896 78.7642C86.643 78.9081 86.6028 79.0308 86.5689 79.1324L85.4645 82.0587H88.4986ZM100.704 85.9625H99.6248V81.5889H94.7498V85.9625H93.6707V76.6822H94.7498V80.6368H99.6248V76.6822H100.704V85.9625ZM104.568 76.6822H105.578V82.046C105.578 82.2491 105.576 82.4713 105.571 82.7125C105.567 82.9494 105.561 83.1822 105.552 83.4107C105.544 83.6392 105.533 83.8466 105.521 84.0328C105.512 84.219 105.504 84.3629 105.495 84.4644H105.546L110.713 76.6822H111.9V85.9625H110.891V80.6622C110.891 80.4379 110.895 80.2009 110.903 79.9512C110.912 79.6973 110.92 79.4519 110.929 79.2149C110.941 78.9779 110.954 78.7663 110.967 78.5801C110.979 78.3897 110.988 78.2437 110.992 78.1422H110.935L105.762 85.9625H104.568V76.6822ZM120.9 85.9625H115.733V76.6822H120.9V77.6343H116.812V80.6368H120.665V81.5762H116.812V85.0103H120.9V85.9625Z" fill="#E595A8"/>
<path d="M8.93561 11.9225C8.94247 12.4786 8.89624 13.0341 8.79753 13.5816C8.70113 14.0797 8.50507 14.5538 8.22083 14.9763C7.953 15.3205 7.60462 15.5955 7.20551 15.7778C6.82461 15.9837 6.3971 16.0913 5.96276 16.0903C5.46582 16.1011 4.97415 15.9881 4.5332 15.7617C4.11334 15.539 3.76671 15.2025 3.53412 14.7919C3.27681 14.3829 3.10298 13.9282 3.0224 13.4534C2.93852 12.9421 2.90047 12.4244 2.90869 11.9065V2.55292H0.000818688V11.9225C-0.00886203 12.7642 0.0673323 13.6046 0.22825 14.4312C0.429152 15.3096 0.829035 16.1317 1.3979 16.8357C1.93677 17.5071 2.63392 18.0382 3.42853 18.3827C4.23008 18.7393 5.09974 18.9224 5.97901 18.9197C6.85549 18.9194 7.72004 18.7191 8.50512 18.3346C9.3096 17.9473 10.0128 17.3823 10.5601 16.6835C11.0612 15.9814 11.4172 15.1889 11.6079 14.3511C11.7866 13.562 11.8711 12.755 11.8597 11.9466V2.55292H8.93561V11.9225Z" fill="#E595A8"/>
<path d="M17.9186 2.48474H14.9863V18.7072H25.5294V15.9661H17.9186V2.48474Z" fill="#E595A8"/>
<path d="M25.7168 5.17085H29.1932V18.7083H32.1092V5.17085H35.5451V2.50183H25.7168V5.17085Z" fill="#E595A8"/>
<path d="M56.517 2.28705L49.7428 18.7099L45.2754 12.8268C46.3383 12.5352 47.2921 11.9449 48.0209 11.1277C48.8492 10.217 49.3013 9.03299 49.288 7.80942C49.3051 6.86797 49.0547 5.94061 48.5651 5.13239C48.0868 4.34158 47.395 3.69773 46.5669 3.2729C45.8719 2.89395 45.1068 2.65681 44.317 2.57559C43.575 2.50042 42.8291 2.4683 42.0833 2.47941H41.8883H37.4453V18.7339H40.3532V10.8792L46.1689 18.7339H52.7969L54.8275 13.7726H60.2696L62.3003 18.7339H65.395L58.7264 2.28705H56.517ZM43.3342 10.3582C42.7527 10.3964 42.1693 10.3964 41.5878 10.3582H40.3613V5.31674H42.1889H42.6519C43.1235 5.29691 43.596 5.31299 44.0652 5.36483C44.5019 5.416 44.9197 5.56993 45.2836 5.81367C45.6437 6.04301 45.9464 6.34994 46.1689 6.71136C46.376 7.03568 46.4884 7.41009 46.4938 7.79339C46.5021 8.26901 46.3507 8.73398 46.0633 9.11588C45.7443 9.54676 45.3156 9.88684 44.8206 10.1017C44.3416 10.2629 43.8401 10.3494 43.3342 10.3582ZM55.9647 10.9834L57.5892 6.97586L59.165 10.9834H55.9647Z" fill="#E595A8"/>
<path d="M77.521 5.3616V2.55634H66.9941V18.7067H69.9426V11.7095H76.7493V8.92029H69.9426V5.3616H77.521Z" fill="#E595A8"/>
<path d="M115.114 11.1516C115.935 10.2402 116.384 9.06059 116.373 7.84139C116.394 6.90056 116.146 5.9729 115.659 5.16436C115.183 4.37166 114.49 3.72723 113.66 3.30487C112.965 2.92692 112.2 2.68985 111.41 2.60756C110.669 2.5306 109.923 2.49848 109.177 2.51138H108.966H104.547V18.7339H107.463V10.8791L113.279 18.7258H116.844L112.369 12.8268C113.429 12.5418 114.382 11.96 115.114 11.1516ZM107.463 5.31665H109.282H109.745C110.22 5.29679 110.695 5.31286 111.167 5.36474C111.603 5.41349 112.021 5.56466 112.385 5.80556C112.746 6.03675 113.049 6.34658 113.27 6.71127C113.481 7.03397 113.594 7.40942 113.595 7.7933C113.6 8.26715 113.452 8.73025 113.173 9.11578C112.855 9.54098 112.433 9.88006 111.947 10.1016C111.465 10.2685 110.962 10.363 110.452 10.3822C109.868 10.4206 109.282 10.4206 108.697 10.3822H107.463V5.31665Z" fill="#E595A8"/>
<path d="M126.566 14.237L121.66 2.65521H118.76V18.8697H121.651L121.635 9.54816L125.445 18.8697H127.703L131.439 9.59625L131.423 18.8697H134.314V2.65521H131.382L126.566 14.237Z" fill="#E595A8"/>
<path d="M140.781 11.6629H148.628V8.89767H140.781V5.31494H149.123V2.5257H137.914V18.684H149.253V15.8708H140.781V11.6629Z" fill="#E595A8"/>
<path d="M159.934 12.8259C160.996 12.5372 161.948 11.9462 162.672 11.1267C163.5 10.2161 163.952 9.03204 163.939 7.80847C163.955 6.86718 163.704 5.94016 163.216 5.13144C162.735 4.33953 162.041 3.69557 161.21 3.27195C160.514 2.8934 159.749 2.65629 158.96 2.57464C158.231 2.50528 157.498 2.48118 156.767 2.5025H156.555H152.137V18.733H155.053V10.8863L160.828 18.733H164.402L159.934 12.8259ZM155.061 5.29174H156.872H157.335C157.807 5.27198 158.279 5.28806 158.748 5.33983C159.188 5.39158 159.608 5.54541 159.975 5.78868C160.323 6.01923 160.614 6.32311 160.828 6.67835C161.034 7.00263 161.144 7.37755 161.145 7.76038C161.152 8.23457 161.004 8.69835 160.722 9.08287C160.406 9.50953 159.983 9.84895 159.496 10.0687C159.015 10.237 158.511 10.3316 158.001 10.3492C157.417 10.3871 156.831 10.3871 156.247 10.3492H155.028L155.061 5.29174Z" fill="#E595A8"/>
<path d="M90.4049 0.00183626C88.9614 -0.024837 87.5275 0.239326 86.1909 0.778172C84.8544 1.31702 83.6433 2.11922 82.6316 3.13572C81.5805 4.13037 80.7493 5.32882 80.1901 6.65575C79.631 7.98268 79.3561 9.40939 79.3826 10.8462C79.3645 12.2619 79.6479 13.6655 80.2146 14.9661C80.7813 16.2668 81.6186 17.4354 82.6722 18.3964C84.7307 20.412 87.5131 21.543 90.413 21.543C93.3129 21.543 96.0953 20.412 98.1538 18.3964C99.203 17.4087 100.033 16.2172 100.593 14.897C101.152 13.5769 101.428 12.1566 101.403 10.726C101.421 9.29672 101.135 7.87963 100.562 6.56655C99.9901 5.25346 99.1446 4.07368 98.0807 3.10366C97.0712 2.11348 95.8735 1.32976 94.5563 0.797469C93.239 0.265177 91.8283 -0.00520605 90.4049 0.00183626ZM90.4618 17.0499C89.2504 17.0658 88.0615 16.7258 87.0464 16.0733C86.0313 15.4207 85.2358 14.485 84.761 13.3852C84.2862 12.2853 84.1536 11.071 84.38 9.89657C84.6064 8.72215 85.1817 7.64071 86.0326 6.78973C86.8835 5.93876 87.9717 5.3567 89.1587 5.11757C90.3457 4.87843 91.578 4.99302 92.6989 5.44676C93.8197 5.90051 94.7785 6.67291 95.4534 7.66576C96.1282 8.65861 96.4886 9.82706 96.4887 11.0225C96.4973 12.6098 95.8677 14.1357 94.7379 15.2656C93.6081 16.3955 92.0703 17.0372 90.4618 17.0499Z" fill="#E595A8"/>
</svg>
