<svg width="150" height="150" viewBox="0 0 150 150" fill="none" xmlns="http://www.w3.org/2000/svg">
<path d="M79.3527 29.9716L80.7607 30.6116V84.7556C80.7607 90.9849 80.8887 95.9343 81.1447 99.6036C81.4007 103.273 81.998 106.004 82.9367 107.796C83.9607 109.588 85.4967 110.782 87.5447 111.38C89.5927 111.892 92.366 112.148 95.8647 112.148L96.1207 113.684H56.4407L56.6967 112.148C60.2807 112.148 63.054 111.892 65.0167 111.38C67.0647 110.782 68.558 109.588 69.4967 107.796C70.5207 106.004 71.1607 103.273 71.4167 99.6036C71.6727 95.9343 71.8007 90.9849 71.8007 84.7556V50.9636C71.8007 47.7209 71.2887 45.4596 70.2647 44.1796C69.2407 42.8996 67.8754 42.2596 66.1687 42.2596C64.2914 42.2596 62.158 42.6863 59.7687 43.5396C57.3794 44.3929 54.6914 45.5023 51.7047 46.8676L50.6807 44.4356C55.7154 42.2169 60.7927 39.9129 65.9127 37.5236C71.118 35.1343 75.598 32.6169 79.3527 29.9716Z" fill="#E595A8"/>
<path d="M2.84518 85.5116C3.40503 85.4078 3.89208 85.5003 4.3072 85.7899C4.72319 86.0795 5.03518 86.5281 5.24491 87.1341L5.29258 87.1254C5.25705 86.3976 5.38098 85.8193 5.66177 85.388C5.94256 84.9575 6.36462 84.6886 6.92793 84.5849C7.72351 84.4371 8.39862 84.6186 8.95414 85.1295C9.51053 85.6395 9.88839 86.4348 10.0903 87.5153C10.274 88.5033 10.2714 89.34 10.0825 90.029L9.16214 90.1993C9.27134 89.7939 9.33373 89.3668 9.3502 88.9165C9.36753 88.467 9.33807 88.0426 9.26354 87.6432C9.12054 86.8765 8.86661 86.3241 8.50176 85.9853C8.13777 85.6455 7.68191 85.5271 7.13419 85.6291C6.61334 85.7251 6.26062 86.0155 6.07342 86.5022C5.88623 86.9871 5.87496 87.6622 6.03529 88.5258L6.27102 89.7921L5.43731 89.9469L5.21025 88.7332C5.06292 87.9397 4.80552 87.3502 4.43807 86.9681C4.07234 86.586 3.63209 86.4417 3.11991 86.5368C2.70479 86.6137 2.40232 86.8324 2.21253 87.192C2.021 87.5516 1.9768 87.9976 2.0756 88.5275C2.15533 88.9536 2.27493 89.3305 2.43699 89.6573C2.59905 89.9832 2.86424 90.3471 3.2369 90.7464L2.66405 91.3576C2.2992 91.0213 1.9976 90.6228 1.75754 90.1647C1.51748 89.7065 1.34762 89.2164 1.25055 88.6935C1.08763 87.8221 1.15262 87.1038 1.44295 86.5393C1.73327 85.9749 2.20127 85.63 2.84518 85.5116Z" fill="#E595A8"/>
<path d="M8.69235 76.0303L6.00749 77.2699L6.21635 80.7258L9.03034 81.6222L9.09188 82.637L0.204451 79.7499L0.15332 78.9071L8.62822 74.9922L8.69235 76.0303ZM5.12265 77.6364L2.50365 78.8008C2.17173 78.9512 1.76441 79.1094 1.27996 79.2771C1.66388 79.341 2.08767 79.4396 2.55045 79.5744L5.28991 80.4267L5.12265 77.6364Z" fill="#E595A8"/>
<path d="M8.97149 69.2472L1.0599 71.4748L1.05471 71.5224C1.66569 71.5224 2.38847 71.5604 3.22305 71.6347L8.70976 72.1309L8.6257 73.055L0 72.2753L0.136068 70.7686L7.49906 68.688L7.5034 68.6413L0.637849 65.2493L0.77305 63.7539L9.39874 64.5336L9.30861 65.5337L3.75083 65.0315C3.11385 64.9745 2.424 64.8846 1.68129 64.7609L1.67696 64.8085L9.04429 68.4407L8.97149 69.2472Z" fill="#E595A8"/>
<path d="M11.1788 56.7867L10.0573 61.4718L1.63184 59.4646L2.75414 54.7812L3.62424 54.987L2.73767 58.6944L5.45113 59.341L6.28571 55.8583L7.14888 56.064L6.31604 59.5468L9.41516 60.285L10.3035 56.5784L11.1788 56.7867Z" fill="#E595A8"/>
<path d="M14.2971 48.0334L13.9375 48.9722L10.1294 47.52L8.50101 51.7712L12.3082 53.2216L11.9494 54.1604L3.8584 51.0762L4.21806 50.1374L7.66036 51.4505L9.28878 47.2001L5.84734 45.888L6.20613 44.9492L14.2971 48.0334Z" fill="#E595A8"/>
<path d="M18.3001 40.4155L15.3665 40.0326L13.6921 43.0667L15.5909 45.3237L15.0987 46.2132L9.13184 39.0377L9.54089 38.2969L18.8027 39.5045L18.3001 40.4155ZM14.4218 39.8701L11.5853 39.4595C11.2248 39.4094 10.7949 39.3264 10.2957 39.2097C10.5869 39.4682 10.892 39.7776 11.2109 40.1363L13.0707 42.319L14.4218 39.8701Z" fill="#E595A8"/>
<path d="M29.6073 26.5055L28.9062 27.2264L23.3267 21.8377L20.2311 25.0256L25.8105 30.4152L25.1094 31.137L18.8887 25.1267L23.3848 20.4961L29.6073 26.5055Z" fill="#E595A8"/>
<path d="M36.8403 20.6344L36.0447 21.2508L31.2808 15.1325L29.0587 16.8544L29.7858 18.087C30.7564 19.7251 31.4376 20.9439 31.8285 21.7443C32.2202 22.5456 32.4031 23.1741 32.3771 23.6288C32.3511 24.0826 32.1387 24.4586 31.7409 24.7577C31.5104 24.9366 31.273 25.0585 31.0286 25.1233L30.5086 24.456C30.74 24.4067 30.9471 24.3108 31.1317 24.1681C31.2972 24.0402 31.3891 23.8613 31.4064 23.6296C31.4246 23.3988 31.3501 23.0799 31.1837 22.671C31.0199 22.263 30.6455 21.536 30.0614 20.4883C29.479 19.4407 28.7415 18.1648 27.8506 16.6616L31.5269 13.8125L36.8403 20.6344Z" fill="#E595A8"/>
<path d="M44.203 16.1483L41.8873 14.3123L38.8844 16.0523L39.348 18.9628L38.4658 19.4737L37.0566 10.2573L37.7898 9.83203L45.1043 15.6253L44.203 16.1483ZM41.1593 13.689L38.9399 11.879C38.6565 11.6516 38.3306 11.3594 37.9631 11.0033C38.0784 11.3733 38.1807 11.796 38.2699 12.2679L38.7371 15.0928L41.1593 13.689Z" fill="#E595A8"/>
<path d="M47.3145 6.11424C46.4374 6.48162 45.8672 7.06337 45.6046 7.85949C45.342 8.65475 45.4235 9.55892 45.8498 10.5729C46.2892 11.6162 46.8734 12.3181 47.6022 12.6812C48.331 13.0442 49.1483 13.0365 50.0557 12.6561C50.6129 12.4227 51.2066 12.0571 51.8366 11.5583L52.1781 12.37C51.7118 12.8091 51.0731 13.199 50.2611 13.5387C49.085 14.0314 48.0269 14.0556 47.0883 13.6113C46.1497 13.167 45.4044 12.2896 44.8523 10.9774C44.5065 10.1571 44.3575 9.37308 44.4051 8.62709C44.4537 7.8811 44.6972 7.21896 45.1375 6.64154C45.5777 6.06497 46.1904 5.61116 46.9773 5.28182C47.8145 4.93087 48.611 4.777 49.3658 4.81936L49.3077 5.77972C48.5832 5.75033 47.9194 5.86184 47.3145 6.11424Z" fill="#E595A8"/>
<path d="M57.4457 10.9996L56.4768 11.2727L54.3639 3.81804L51.725 4.56144L51.4814 3.70221L57.7299 1.94141L57.9726 2.80063L55.3337 3.54489L57.4457 10.9996Z" fill="#E595A8"/>
<path d="M60.916 1.25154L61.8485 1.11755L62.534 5.87268C62.6606 6.75006 62.7472 7.54791 62.7958 8.26537L62.8426 8.25932L66.622 0.433802L67.7131 0.277344L68.9463 8.8281L68.0086 8.96295L67.3283 4.2545C67.2165 3.47134 67.1298 2.64324 67.0726 1.77191L67.0198 1.77969L63.2404 9.64583L62.1501 9.80316L60.916 1.25154Z" fill="#E595A8"/>
<path d="M78.1523 8.6493L77.1461 8.64757L77.1513 5.07842C76.562 5.28674 76.0732 5.4285 75.6824 5.50457C75.2906 5.58064 74.885 5.61867 74.4673 5.61781C73.6501 5.61695 73.0209 5.4285 72.5815 5.05421C72.1413 4.67906 71.9229 4.13794 71.9229 3.43344L71.9298 0L72.9368 0.0017287L72.9308 3.31675C72.9299 3.79304 73.0547 4.14572 73.306 4.37479C73.5556 4.60385 73.9629 4.71882 74.528 4.71969C74.911 4.72055 75.2776 4.69289 75.6278 4.63584C75.9779 4.57879 76.4849 4.44394 77.1539 4.22784L77.1608 0.00950866L78.1687 0.0112374L78.1523 8.6493Z" fill="#E595A8"/>
<path d="M86.1261 9.51771L81.3379 8.90485L82.4394 0.335938L87.2285 0.94967L87.1141 1.83396L83.3242 1.34903L82.9689 4.10909L86.5299 4.5655L86.4173 5.44461L82.8562 4.9882L82.4498 8.14157L86.2405 8.62737L86.1261 9.51771Z" fill="#E595A8"/>
<path d="M94.4029 3.32894C93.4808 3.09555 92.6748 3.21743 91.9841 3.69458C91.2942 4.1726 90.8132 4.94366 90.542 6.00861C90.2629 7.10469 90.3054 8.01664 90.6676 8.74447C91.0307 9.47231 91.6894 9.95724 92.6418 10.1993C93.2277 10.3471 93.9227 10.4119 94.7261 10.392L94.5086 11.2452C93.8716 11.3161 93.1254 11.2426 92.2718 11.0265C91.036 10.7127 90.1771 10.0973 89.6952 9.17927C89.2134 8.26127 89.1484 7.1116 89.4994 5.73373C89.7195 4.87105 90.0731 4.15531 90.5619 3.58913C91.0507 3.02207 91.6452 2.64 92.3463 2.44378C93.0466 2.24669 93.8092 2.25361 94.6368 2.4628C95.5174 2.68582 96.2445 3.04022 96.8217 3.52775L96.1951 4.25991C95.6361 3.80004 95.0381 3.48972 94.4029 3.32894Z" fill="#E595A8"/>
<path d="M102.838 14.6049L101.702 14.1589L99.5844 8.62149L97.9768 12.6963L97.0391 12.3281L100.211 4.28906L101.149 4.6573L99.6121 8.54975L104.782 6.08272L105.856 6.50455L100.749 9.00788L102.838 14.6049Z" fill="#E595A8"/>
<path d="M113.306 15.3924C112.624 16.5956 111.782 17.3701 110.781 17.715C109.78 18.0599 108.736 17.9259 107.65 17.3122C106.54 16.6855 105.875 15.8643 105.656 14.846C105.436 13.8286 105.676 12.7023 106.377 11.4679C107.071 10.2431 107.912 9.46595 108.899 9.13315C109.886 8.80121 110.937 8.94903 112.051 9.57746C113.134 10.1886 113.784 11.0089 114.004 12.0376C114.225 13.0679 113.991 14.1856 113.306 15.3924ZM107.299 12.0021C106.722 13.0204 106.5 13.9151 106.637 14.687C106.773 15.4589 107.255 16.0778 108.084 16.5446C108.919 17.0166 109.699 17.1099 110.422 16.8264C111.146 16.5429 111.798 15.8894 112.378 14.8677C112.951 13.8563 113.174 12.9694 113.046 12.207C112.918 11.4446 112.438 10.8291 111.606 10.3589C110.77 9.88778 109.987 9.79269 109.254 10.0736C108.52 10.3554 107.87 10.9977 107.299 12.0021Z" fill="#E595A8"/>
<path d="M122.459 16.7816L121.913 17.5025L118.862 15.2058L114.188 21.3785L113.385 20.7726L118.605 13.8789L122.459 16.7816Z" fill="#E595A8"/>
<path d="M127.414 27.3261C126.441 28.3107 125.426 28.8397 124.369 28.9131C123.312 28.9858 122.34 28.5855 121.451 27.7116C120.542 26.8187 120.116 25.8531 120.17 24.8124C120.223 23.7734 120.749 22.7482 121.748 21.7385C122.737 20.7367 123.752 20.2033 124.791 20.1394C125.832 20.0745 126.807 20.4903 127.719 21.3859C128.605 22.2572 129.02 23.2184 128.964 24.2687C128.906 25.3198 128.39 26.3381 127.414 27.3261ZM122.498 22.494C121.675 23.3273 121.228 24.1338 121.158 24.9144C121.089 25.6949 121.393 26.4185 122.071 27.0849C122.755 27.7566 123.483 28.0487 124.256 27.9632C125.029 27.8767 125.827 27.416 126.654 26.5792C127.472 25.752 127.919 24.9533 127.994 24.184C128.07 23.4146 127.767 22.6946 127.086 22.0264C126.402 21.3539 125.67 21.0582 124.889 21.1395C124.108 21.2199 123.31 21.672 122.498 22.494Z" fill="#E595A8"/>
<path d="M134.028 44.3505L133.449 43.3659L135.557 39.4406L131.073 39.3239L130.533 38.4068L135.894 38.5995L138.103 34.2031L138.667 35.1618L136.796 38.743L140.852 38.8779L141.395 39.8002L136.502 39.5599L134.028 44.3505Z" fill="#E595A8"/>
<path d="M142.941 42.8711L143.303 43.739L138.857 45.5862C138.038 45.9277 137.284 46.2112 136.601 46.4351L136.619 46.4791L145.159 48.1777L145.583 49.1925L137.587 52.5171L137.223 51.644L141.625 49.814C142.357 49.5098 143.139 49.2193 143.971 48.947L143.951 48.8986L135.37 47.2096L134.946 46.1948L142.941 42.8711Z" fill="#E595A8"/>
<path d="M145.871 59.2736C145.022 59.4966 144.294 59.3782 143.686 58.9218C143.078 58.4645 142.631 57.6978 142.349 56.6233L142.09 55.6405L138.794 56.504L138.538 55.5333L146.915 53.3359L147.485 55.5013C148.036 57.5897 147.497 58.8474 145.871 59.2736ZM142.926 55.4209L143.156 56.2957C143.383 57.1566 143.687 57.7427 144.067 58.0539C144.448 58.3659 144.946 58.4411 145.56 58.2804C146.115 58.1351 146.48 57.8456 146.656 57.4125C146.832 56.9794 146.819 56.3813 146.617 55.6145L146.331 54.5288L142.926 55.4209Z" fill="#E595A8"/>
<path d="M140.375 63.9916C140.317 63.5577 140.325 63.1695 140.399 62.8255L141.373 62.6967C141.253 63.0814 141.219 63.4617 141.269 63.836C141.325 64.2665 141.471 64.5975 141.703 64.8301C141.936 65.0643 142.341 65.2735 142.92 65.4594L148.869 61.2773L149.017 62.3786L144.474 65.5562C144.295 65.6798 144.118 65.7809 143.941 65.8596L143.948 65.9071C144.291 65.9728 144.508 66.0212 144.601 66.0532L149.703 67.5158L149.844 68.5704L143.336 66.6505C142.559 66.4189 141.987 66.195 141.621 65.9754C141.253 65.7559 140.969 65.4905 140.771 65.1819C140.571 64.8724 140.441 64.4757 140.375 63.9916Z" fill="#E595A8"/>
<path d="M147.503 77.1852C146.626 77.1929 145.949 76.8999 145.472 76.3061C144.996 75.7131 144.752 74.8616 144.744 73.7509L144.735 72.7343L141.329 72.7611L141.32 71.7567L149.982 71.6875L150 73.9272C150.017 76.0856 149.185 77.1722 147.503 77.1852ZM145.601 72.7274L145.608 73.6307C145.616 74.521 145.765 75.1633 146.057 75.5592C146.349 75.9551 146.811 76.1505 147.447 76.1444C148.019 76.141 148.445 75.9499 148.722 75.5739C149 75.197 149.136 74.6135 149.129 73.8217L149.12 72.6989L145.601 72.7274Z" fill="#E595A8"/>
<path d="M149.265 85.6213L148.364 85.5254L148.773 81.7367L141.062 80.9094L141.171 79.9102L149.783 80.8333L149.265 85.6213Z" fill="#E595A8"/>
<path d="M139.036 92.3096L141.963 91.8748L142.738 88.4993L140.291 86.85L140.518 85.8594L148.231 91.1254L148.042 91.9492L138.804 93.3253L139.036 92.3096ZM142.916 91.772L145.757 91.3899C146.116 91.3389 146.553 91.3008 147.065 91.2766C146.716 91.1081 146.337 90.8946 145.93 90.6352L143.542 89.0473L142.916 91.772Z" fill="#E595A8"/>
<path d="M24.1482 120.357C23.7106 120.72 23.2391 120.875 22.7347 120.823C22.2312 120.772 21.7398 120.533 21.2606 120.105L21.2242 120.135C21.609 120.753 21.7849 121.319 21.7485 121.831C21.7138 122.344 21.4755 122.783 21.0352 123.147C20.4113 123.662 19.7327 123.832 18.9986 123.657C18.2646 123.481 17.5461 122.97 16.8433 122.124C16.2011 121.351 15.7929 120.618 15.623 119.924L16.3432 119.329C16.4446 119.736 16.5989 120.14 16.8043 120.541C17.0079 120.941 17.2419 121.298 17.5019 121.609C18.0003 122.21 18.4925 122.569 18.9761 122.69C19.4597 122.809 19.9164 122.691 20.3445 122.336C20.7527 121.999 20.9191 121.574 20.8446 121.058C20.7709 120.543 20.4528 119.949 19.8904 119.273L19.0662 118.282L19.7179 117.742L20.5083 118.693C21.0257 119.314 21.5379 119.704 22.044 119.86C22.5501 120.017 23.0051 119.929 23.4064 119.596C23.7314 119.327 23.89 118.99 23.8796 118.583C23.87 118.177 23.6924 117.766 23.3474 117.35C23.071 117.016 22.7815 116.746 22.4808 116.539C22.1801 116.333 21.771 116.144 21.251 115.977L21.4521 115.164C21.9348 115.282 22.3933 115.482 22.8266 115.766C23.2599 116.049 23.6464 116.397 23.987 116.806C24.5547 117.488 24.8493 118.146 24.871 118.781C24.8944 119.414 24.6526 119.94 24.1482 120.357Z" fill="#E595A8"/>
<path d="M25.7118 131.161L26.8116 128.421L24.281 126.051L21.6178 127.326L20.876 126.63L29.324 122.645L29.9419 123.223L26.4728 131.873L25.7118 131.161ZM27.2025 127.547L28.3048 124.908C28.4418 124.571 28.629 124.176 28.8664 123.724C28.5432 123.94 28.167 124.158 27.7381 124.378L25.1581 125.634L27.2025 127.547Z" fill="#E595A8"/>
<path d="M39.5488 140.64L38.709 140.179L41.6885 134.787C41.9364 134.338 42.1851 133.921 42.4338 133.537C42.3203 133.569 42.1981 133.601 42.0638 133.63C41.9294 133.659 41.3323 133.77 40.2715 133.96L40.1407 133.119L43.0049 132.676L43.7312 133.075L39.5488 140.64Z" fill="#E595A8"/>
<path d="M60.0826 148.131L59.1058 147.888L60.983 140.371L56.6654 139.3L54.7891 146.816L53.8115 146.574L55.9045 138.191L62.1764 139.749L60.0826 148.131Z" fill="#E595A8"/>
<path d="M70.5227 143.357C70.4273 144.226 70.0555 144.863 69.4099 145.266C68.7642 145.669 67.8872 145.81 66.7796 145.689L65.7665 145.578L65.3965 148.955L64.3955 148.847L65.3376 140.258L67.5692 140.502C69.7202 140.738 70.7047 141.689 70.5227 143.357ZM65.861 144.722L66.7614 144.819C67.6489 144.916 68.3067 144.844 68.7348 144.601C69.162 144.359 69.4108 143.922 69.4792 143.291C69.5416 142.724 69.4012 142.28 69.0598 141.961C68.7166 141.643 68.1507 141.44 67.362 141.354L66.2432 141.232L65.861 144.722Z" fill="#E595A8"/>
<path d="M81.0266 145.072C81.0673 146.455 80.7492 147.552 80.0707 148.364C79.3938 149.176 78.431 149.6 77.183 149.637C75.9082 149.674 74.9133 149.314 74.1974 148.557C73.4816 147.8 73.1029 146.711 73.0613 145.295C73.0197 143.888 73.3342 142.79 74.0076 141.995C74.6793 141.201 75.6542 140.786 76.9334 140.749C78.1779 140.711 79.1598 141.077 79.8817 141.845C80.6036 142.612 80.9858 143.686 81.0266 145.072ZM74.1281 145.274C74.1619 146.443 74.4375 147.323 74.9557 147.914C75.4723 148.503 76.2063 148.784 77.1579 148.757C78.1172 148.729 78.8331 148.406 79.3046 147.789C79.7769 147.173 79.9953 146.277 79.9606 145.104C79.9268 143.943 79.6573 143.07 79.152 142.484C78.6459 141.897 77.9162 141.617 76.9612 141.646C76.0018 141.673 75.2816 141.997 74.7989 142.616C74.3179 143.234 74.0934 144.12 74.1281 145.274Z" fill="#E595A8"/>
<path d="M91.3076 146.899L92.3103 146.718L92.8736 149.829L91.935 149.999L91.5329 147.783L85.1085 148.94L83.5693 140.438L84.5608 140.26L85.9387 147.866L90.317 147.077L88.9391 139.472L89.9305 139.293L91.3076 146.899Z" fill="#E595A8"/>
<path d="M100.338 145.208L95.7369 146.669L93.1084 138.439L97.7085 136.977L97.9798 137.827L94.339 138.984L95.1866 141.636L98.6064 140.549L98.8776 141.394L95.457 142.48L96.4242 145.51L100.065 144.353L100.338 145.208Z" fill="#E595A8"/>
<path d="M111.089 143.006L110.218 143.409L109.268 141.367L103.807 143.891L104.757 145.933L103.885 146.336L102.553 143.468L103.16 143.188C103.282 142.007 103.231 140.662 103.006 139.155C102.783 137.648 102.438 136.335 101.971 135.218L105.502 133.586L108.761 140.598L109.755 140.138L111.089 143.006ZM107.847 141.02L104.971 134.828L103.181 135.655C103.519 136.55 103.785 137.69 103.98 139.073C104.175 140.456 104.221 141.681 104.118 142.744L107.847 141.02Z" fill="#E595A8"/>
<path d="M113.625 139.063C113.255 139.298 112.899 139.453 112.556 139.531L112.029 138.704C112.43 138.649 112.791 138.522 113.11 138.319C113.477 138.087 113.718 137.817 113.833 137.508C113.948 137.201 113.967 136.745 113.894 136.143L107.59 132.513L108.53 131.918L113.33 134.696C113.517 134.806 113.683 134.925 113.83 135.051L113.87 135.026C113.785 134.686 113.738 134.47 113.728 134.373L112.916 129.14L113.816 128.57L114.803 135.267C114.918 136.066 114.954 136.679 114.908 137.104C114.864 137.529 114.742 137.897 114.544 138.206C114.345 138.516 114.039 138.801 113.625 139.063Z" fill="#E595A8"/>
<path d="M121.243 125.772C121.802 126.446 122.001 127.156 121.84 127.898C121.679 128.641 121.171 129.367 120.311 130.075L119.526 130.723L121.697 133.341L120.92 133.981L115.401 127.322L117.132 125.896C118.801 124.519 120.171 124.479 121.243 125.772ZM118.976 130.057L119.675 129.482C120.363 128.915 120.768 128.393 120.892 127.917C121.016 127.442 120.875 126.961 120.47 126.471C120.106 126.031 119.69 125.823 119.221 125.845C118.754 125.868 118.214 126.131 117.602 126.636L116.734 127.351L118.976 130.057Z" fill="#E595A8"/>
<path d="M128.334 127.586C128.033 127.905 127.727 128.145 127.412 128.305L126.697 127.634C127.072 127.483 127.389 127.27 127.649 126.993C127.946 126.678 128.112 126.357 128.147 126.029C128.181 125.703 128.088 125.256 127.866 124.692L120.855 122.736L121.619 121.926L126.958 123.428C127.167 123.488 127.359 123.562 127.531 123.648L127.564 123.614C127.398 123.307 127.298 123.108 127.264 123.017L125.176 118.15L125.906 117.375L128.528 123.619C128.839 124.364 129.025 124.948 129.088 125.371C129.15 125.794 129.123 126.181 129.009 126.529C128.894 126.878 128.669 127.231 128.334 127.586Z" fill="#E595A8"/>
</svg>
