<svg width="146" height="146" viewBox="0 0 146 146" fill="none" xmlns="http://www.w3.org/2000/svg">
<circle cx="73" cy="73" r="73" fill="#E595A8"/>
<path d="M42.0029 81.243L48.1509 87.3915V81.243H42.0029Z" fill="#B48956"/>
<path d="M85.609 38H51.9598C49.7415 38 47.9434 39.7981 47.9434 42.0164V103.888C47.9434 106.107 49.7415 107.905 51.9598 107.905H97.9835C100.202 107.905 102 106.107 102 103.888V54.3904L85.609 38Z" fill="#FFF7ED"/>
<path d="M87.314 56.3044C88.1087 56.3106 88.9419 56.1808 89.7632 56.0684C91.7752 55.7924 93.7868 55.5164 95.7988 55.2409C97.8658 54.9573 99.9327 54.6838 102 54.4006L85.6088 38C85.1712 40.8688 84.7341 43.7371 84.297 46.6053C84.1 47.8981 83.903 49.1904 83.706 50.4827C83.4813 51.9551 83.1632 53.3787 84.0646 54.6966C84.9234 55.953 86.0715 56.2947 87.314 56.3044Z" fill="#D7DBDD"/>
<path d="M89.062 54.3904H102L85.6094 38V50.9383C85.6094 52.8452 87.1551 54.3904 89.062 54.3904Z" fill="#FFF7ED"/>
<g opacity="0.08">
<path d="M79.8509 83.702H44.4389L42 81.2416V65.7767H79.8509C81.0965 65.7767 82.1061 66.7864 82.1061 68.032V81.4468C82.1056 82.6924 81.0965 83.702 79.8509 83.702Z" fill="black"/>
</g>
<path d="M77.412 81.2428H42V63.318H77.412C78.6576 63.318 79.6672 64.3276 79.6672 65.5732V78.9881C79.6672 80.2332 78.6576 81.2428 77.412 81.2428Z" fill="#6055C0"/>
<path d="M55.8214 70.7135C55.8214 71.483 55.5962 72.131 55.1448 72.6578C54.6415 73.2421 53.8704 73.5341 52.83 73.5341H50.8298V76.6891H48.9424V67.8857H52.83C53.7381 67.8857 54.4589 68.1279 54.996 68.6117C55.5459 69.1154 55.8214 69.8157 55.8214 70.7135ZM53.9843 70.7135C53.9843 70.1959 53.8186 69.8321 53.4851 69.6233C53.2189 69.4622 52.828 69.3812 52.3109 69.3812H50.8293V72.0381H52.3109C52.8187 72.0381 53.2097 71.955 53.4851 71.7888C53.8181 71.5892 53.9843 71.2311 53.9843 70.7135Z" fill="white"/>
<path d="M64.6461 72.2448C64.6461 73.5597 64.3255 74.6114 63.6848 75.3999C62.9912 76.2592 62.0041 76.6891 60.7216 76.6891H56.9971V67.8857H60.7216C61.8856 67.8857 62.8172 68.2387 63.5206 68.9467C64.2701 69.7059 64.6461 70.8058 64.6461 72.2448ZM62.7372 72.43C62.7372 70.4883 61.9082 69.5166 60.2516 69.5166H58.8845V75.0654H60.5789C61.1966 75.0654 61.6968 74.8705 62.0816 74.4811C62.5182 74.0353 62.7372 73.3514 62.7372 72.43Z" fill="white"/>
<path d="M72.0134 69.5161H67.84V71.5533H71.443V73.0493H67.84V76.6891H65.9521V67.8857H72.0134V69.5161Z" fill="white"/>
</svg>
