<svg width="1186" height="212" viewBox="0 0 1186 212" fill="none" xmlns="http://www.w3.org/2000/svg">
<path d="M40.8711 150.252C46.6636 150.252 52.0255 149.333 56.9711 147.483C61.9095 145.632 65.9363 142.627 69.0444 138.452C72.1524 134.278 73.7029 128.699 73.7029 121.721C73.7029 115.974 71.9299 110.944 68.4056 106.631C64.874 102.318 60.3232 98.4216 54.746 94.9292C49.1687 91.4437 43.2757 87.9861 37.0596 84.5632C30.8435 81.1473 24.9504 77.4531 19.3804 73.4807C13.8031 69.5152 9.24516 64.9305 5.7208 59.7266C2.19645 54.5227 0.423497 48.3657 0.423497 41.2487C0.423497 34.4099 2.29693 28.4547 6.03663 23.39C9.77633 18.3253 14.7865 14.3945 21.0744 11.5839C27.3479 8.78716 34.3105 7.38184 41.9334 7.38184C48.8529 7.38184 55.8729 8.20277 63.0078 9.84463C70.1354 11.4934 76.1003 13.4762 80.9023 15.7999C80.9023 22.2351 80.5506 28.4617 79.8472 34.4795C79.1366 40.5043 78.4331 46.0491 77.7297 51.1068L74.5499 50.2859C74.5499 40.8452 72.8918 33.3177 69.5756 27.7033C66.2594 22.089 62.089 18.0539 57.0788 15.5911C52.0614 13.1283 47.08 11.9039 42.1416 11.9039C33.9515 11.9039 27.3192 14.2623 22.2372 18.9862C17.1552 23.703 14.6071 29.6931 14.6071 36.9493C14.6071 42.974 16.3728 48.1083 19.9044 52.3452C23.4287 56.589 27.9867 60.3875 33.5639 63.7408C39.1412 67.0941 45.0343 70.3778 51.2503 73.592C57.4592 76.8131 63.3595 80.3333 68.9367 84.1667C74.514 88 79.0648 92.5499 82.5963 97.8164C86.1207 103.083 87.8864 109.414 87.8864 116.802C87.8864 125.832 85.5895 133.158 81.0028 138.766C76.4161 144.38 70.523 148.484 63.3236 151.086C56.1241 153.688 48.5658 154.989 40.6629 154.989C36.2844 154.989 31.59 154.544 26.5798 153.654C21.5696 152.77 16.7317 151.365 12.0733 149.452C7.41479 147.538 3.38798 145.076 0 142.056C0 135.628 0.279939 129.742 0.846995 124.399C1.41405 119.063 1.97393 113.866 2.54098 108.802L5.71362 109.414C5.71362 118.722 7.33583 126.417 10.5874 132.504C13.8319 138.592 18.1386 143.079 23.5077 145.952C28.8768 148.825 34.655 150.252 40.8711 150.252Z" fill="#E595A8"/>
<path d="M274.053 55.6211V106.526C274.053 116.516 274.261 124.454 274.684 130.34C275.108 136.225 275.991 140.601 277.333 143.475C278.675 146.348 280.721 148.233 283.47 149.124C286.219 150.014 290.002 150.459 294.804 150.459L295.228 152.922H238.465L238.888 150.459C243.683 150.459 247.466 150.021 250.222 149.124C252.971 148.24 254.988 146.355 256.259 143.475C257.529 140.601 258.34 136.225 258.692 130.34C259.044 124.454 259.223 116.516 259.223 106.526V19.7019L199.919 150.87L138.713 39.8147V106.115C138.713 116.113 139.029 124.078 139.668 130.034C140.299 135.989 141.47 140.434 143.163 143.377C144.857 146.32 147.219 148.24 150.262 149.124C153.292 150.014 157.211 150.459 162.013 150.459L162.436 152.922H110.339L110.762 150.459C115.557 150.459 119.44 150.021 122.412 149.124C125.377 148.24 127.674 146.32 129.296 143.377C130.918 140.434 132.009 135.989 132.583 130.034C133.143 124.085 133.43 116.113 133.43 106.115V55.8228C133.43 45.7004 133.143 37.6928 132.583 31.8072C132.016 25.9285 130.925 21.5107 129.296 18.5679C127.666 15.6251 125.377 13.7119 122.412 12.8214C119.448 11.9309 115.564 11.4856 110.762 11.4856L110.339 9.22461H138.72L204.169 128.9L258.175 9.22461H295.242L294.819 11.4856C290.017 11.4856 286.241 11.9309 283.485 12.8214C280.728 13.7119 278.683 15.6251 277.347 18.5679C275.998 21.5107 275.122 25.9285 274.699 31.8072C274.261 37.6998 274.053 45.6377 274.053 55.6211Z" fill="#E595A8"/>
<path d="M414.26 143.893C414.26 140.749 413.305 136.366 411.403 130.758C409.501 125.144 406.708 117.554 403.041 107.974H338.439C335.475 116.462 333.214 123.44 331.663 128.915C330.106 134.39 329.338 138.703 329.338 141.848C329.338 145.82 330.68 148.248 333.364 149.132C336.042 150.022 340.069 150.468 345.438 150.468L345.861 152.931H298.207L298.631 150.468C302.306 150.468 305.514 150.057 308.27 149.236C311.02 148.415 313.596 146.634 316.001 143.9C318.399 141.166 320.94 136.922 323.624 131.176C326.309 125.429 329.409 117.561 332.941 107.564L351.79 54.8085C354.611 47.0096 356.729 40.8874 358.143 36.4349C359.55 31.9894 360.504 28.5317 360.999 26.0689C361.488 23.6061 361.739 21.4843 361.739 19.7033C361.739 16.5587 360.748 14.402 358.774 13.2402C356.793 12.0783 352.982 11.4939 347.34 11.4939L346.916 9.23291H381.866L419.356 107.557C423.167 117.554 426.304 125.415 428.781 131.169C431.25 136.915 433.547 141.159 435.664 143.893C437.782 146.634 440.036 148.408 442.44 149.229C444.838 150.05 447.946 150.461 451.757 150.461L452.181 152.924H399.236L399.66 150.461C404.598 150.461 408.266 150.085 410.671 149.334C413.061 148.582 414.26 146.767 414.26 143.893ZM369.993 20.3155L340.133 103.042H401.339L369.993 20.3155Z" fill="#E595A8"/>
<path d="M497.071 150.25C502.864 150.25 508.225 149.331 513.171 147.481C518.109 145.63 522.136 142.625 525.244 138.451C528.352 134.276 529.903 128.697 529.903 121.719C529.903 115.972 528.13 110.942 524.605 106.629C521.074 102.316 516.523 98.4198 510.946 94.9274C505.369 91.4419 499.476 87.9843 493.259 84.5614C487.043 81.1455 481.15 77.4513 475.58 73.4788C470.003 69.5133 465.445 64.9286 461.921 59.7248C458.396 54.5209 456.623 48.3639 456.623 41.2469C456.623 34.4081 458.497 28.4529 462.237 23.3882C465.976 18.3234 470.986 14.3927 477.274 11.5821C483.555 8.77837 490.51 7.37305 498.133 7.37305C505.053 7.37305 512.073 8.19398 519.208 9.83584C526.335 11.4777 532.3 13.4605 537.102 15.7841C537.102 22.2194 536.75 28.4459 536.047 34.4638C535.336 40.4886 534.633 46.0333 533.93 51.0911L530.75 50.2702C530.75 40.8294 529.092 33.3019 525.775 27.6876C522.459 22.0733 518.289 18.0382 513.279 15.5754C508.268 13.1126 503.287 11.8812 498.349 11.8812C490.159 11.8812 483.526 14.2396 478.444 18.9635C473.362 23.6803 470.814 29.6704 470.814 36.9265C470.814 42.9513 472.58 48.0856 476.111 52.3225C479.636 56.5663 484.194 60.3648 489.771 63.7181C495.348 67.0714 501.241 70.3551 507.457 73.5693C513.666 76.7904 519.567 80.3106 525.144 84.144C530.721 87.9773 535.272 92.5272 538.803 97.7937C542.328 103.06 544.093 109.391 544.093 116.779C544.093 125.81 541.797 133.135 537.21 138.743C532.623 144.357 526.73 148.462 519.531 151.064C512.331 153.666 504.773 154.967 496.87 154.967C492.491 154.967 487.797 154.521 482.787 153.631C477.777 152.747 472.939 151.342 468.28 149.429C463.622 147.516 459.595 145.053 456.207 142.033C456.207 135.605 456.487 129.72 457.054 124.377C457.621 119.04 458.181 113.844 458.748 108.779L461.921 109.391C461.921 118.7 463.543 126.394 466.794 132.481C470.039 138.569 474.346 143.056 479.715 145.929C485.084 148.803 490.855 150.25 497.071 150.25Z" fill="#E595A8"/>
<path d="M647.441 1.84277V117.204C647.441 124.739 647.585 130.722 647.864 135.167C648.144 139.62 648.891 142.938 650.09 145.123C651.288 147.314 653.083 148.748 655.487 149.436C657.885 150.125 661.201 150.459 665.443 150.459L665.867 152.922H613.978L614.401 150.459C618.772 150.459 622.196 150.118 624.673 149.436C627.142 148.755 628.943 147.314 630.07 145.123C631.197 142.938 631.901 139.613 632.188 135.167C632.468 130.722 632.611 124.732 632.611 117.204V38.7916C632.611 31.3963 632.468 25.5176 632.188 21.1346C631.901 16.7587 631.197 13.5376 630.07 11.4852C628.936 9.43986 627.142 8.10411 624.673 7.48493C622.203 6.86576 618.78 6.55965 614.401 6.55965L613.978 4.29861C620.186 3.47768 625.871 2.8585 631.025 2.44804C636.179 2.04453 641.648 1.84277 647.441 1.84277Z" fill="#E595A8"/>
<path d="M714.785 53.7788V119.057C714.785 126.174 714.928 131.816 715.208 135.997C715.488 140.171 716.191 143.281 717.326 145.333C718.452 147.386 720.218 148.756 722.623 149.438C725.02 150.127 728.336 150.461 732.579 150.461L733.002 152.924H681.321L681.745 150.461C686.116 150.461 689.547 150.12 692.016 149.438C694.485 148.756 696.287 147.351 697.414 145.229C698.541 143.107 699.244 139.928 699.531 135.684C699.811 131.447 699.955 125.763 699.955 118.646V102.228C699.955 92.2373 699.776 84.2994 699.424 78.4207C699.072 72.535 698.189 68.1521 696.775 65.2788C695.361 62.4056 693.28 60.5272 690.523 59.6297C687.767 58.7462 683.92 58.3009 678.981 58.3009L678.558 56.0399C685.757 55.2189 692.11 54.6345 697.615 54.2937C703.142 53.9528 708.856 53.7788 714.785 53.7788ZM694.665 20.9347C694.665 17.7831 695.864 15.049 698.268 12.7253C700.666 10.4017 703.494 9.23291 706.738 9.23291C709.983 9.23291 712.803 10.3947 715.208 12.7253C717.605 15.049 718.804 17.7901 718.804 20.9347C718.804 24.0792 717.605 26.8203 715.208 29.144C712.803 31.4676 709.983 32.6294 706.738 32.6294C703.486 32.6294 700.666 31.4676 698.268 29.144C695.864 26.8203 694.665 24.0862 694.665 20.9347Z" fill="#E595A8"/>
<path d="M782.558 60.3453V106.533C782.558 116.523 782.773 124.461 783.196 130.347C783.62 136.233 784.503 140.609 785.845 143.482C787.187 146.355 789.233 148.241 791.982 149.131C794.739 150.022 798.514 150.467 803.316 150.467L803.74 152.93H746.769L747.192 150.467C751.987 150.467 755.77 150.029 758.526 149.131C761.275 148.248 763.321 146.362 764.663 143.482C766.005 140.602 766.852 136.233 767.204 130.347C767.556 124.461 767.735 116.523 767.735 106.533V60.3453H748.254V55.8302H767.735C767.735 43.6554 768.762 33.9016 770.807 26.5759C772.853 19.2571 775.538 13.6428 778.854 9.74681C782.17 5.84392 785.874 3.24894 789.972 1.94797C794.064 0.647006 798.234 0 802.469 0C807.128 0 811.894 0.855715 816.768 2.56715C821.634 4.28553 825.697 6.5744 828.941 9.44766C832.186 12.3209 833.815 15.4725 833.815 18.8884C833.815 20.9407 833.04 22.7217 831.482 24.2244C829.932 25.7341 827.951 26.4854 825.553 26.4854C822.165 26.4854 819.624 25.428 817.93 23.3061C816.236 21.1842 814.786 18.791 813.588 16.1195C812.389 13.448 810.839 11.0547 808.929 8.93284C807.02 6.81094 804.163 5.74651 800.352 5.74651C795.126 5.74651 791.243 7.38837 788.702 10.6721C786.161 13.9558 784.503 18.6101 783.728 24.6279C782.952 30.6527 782.558 37.8393 782.558 46.1808V55.8302H810.516V60.3453H782.558Z" fill="#E595A8"/>
<path d="M852.019 30.582V55.8291H878.068V60.3442H852.019V138.555C852.019 141.568 852.722 143.891 854.136 145.533C855.543 147.175 857.381 147.996 859.642 147.996C862.463 147.996 865.291 147.62 868.112 146.862C870.933 146.111 874.113 145.053 877.644 143.683L878.068 145.937C874.113 148.399 869.949 150.528 865.571 152.302C861.192 154.076 856.598 154.967 851.804 154.967C847.145 154.967 843.542 153.868 841.001 151.683C838.46 149.499 837.189 145.394 837.189 139.369V60.3373H824.484V55.8222C830.126 55.8222 834.44 54.6951 837.405 52.4341C840.369 50.18 842.558 47.1328 843.972 43.2995C845.379 39.4731 846.513 35.3615 847.36 30.9855L852.019 30.582Z" fill="#E595A8"/>
<path d="M924.874 53.7788V119.057C924.874 126.174 925.018 131.816 925.298 135.997C925.578 140.171 926.281 143.281 927.415 145.333C928.542 147.386 930.308 148.756 932.713 149.438C935.11 150.127 938.426 150.461 942.668 150.461L943.092 152.924H891.411L891.834 150.461C896.206 150.461 899.637 150.12 902.106 149.438C904.575 148.756 906.377 147.351 907.504 145.229C908.631 143.107 909.334 139.928 909.621 135.684C909.901 131.447 910.045 125.763 910.045 118.646V102.228C910.045 92.2373 909.865 84.2994 909.514 78.4207C909.162 72.535 908.279 68.1521 906.865 65.2788C905.451 62.4056 903.369 60.5272 900.613 59.6297C897.857 58.7462 894.009 58.3009 889.071 58.3009L888.647 56.0399C895.847 55.2189 902.199 54.6345 907.705 54.2937C913.225 53.9528 918.945 53.7788 924.874 53.7788ZM904.755 20.9347C904.755 17.7831 905.953 15.049 908.358 12.7253C910.755 10.4017 913.584 9.23291 916.828 9.23291C920.072 9.23291 922.893 10.3947 925.298 12.7253C927.695 15.049 928.894 17.7901 928.894 20.9347C928.894 24.0792 927.695 26.8203 925.298 29.144C922.893 31.4676 920.072 32.6294 916.828 32.6294C913.576 32.6294 910.755 31.4676 908.358 29.144C905.953 26.8203 904.755 24.0862 904.755 20.9347Z" fill="#E595A8"/>
<path d="M992.01 53.7769V90.5239C992.857 84.7774 994.587 79.0657 997.2 73.3818C999.813 67.7049 1003.48 63.0158 1008.21 59.3216C1012.94 55.6274 1018.76 53.7769 1025.68 53.7769C1036.56 53.7769 1044.67 56.6223 1050.04 62.2992C1055.41 67.9762 1058.09 76.0881 1058.09 86.628V119.062C1058.09 128.37 1058.44 135.279 1059.15 139.794C1059.85 144.309 1061.48 147.217 1064.02 148.518C1066.56 149.819 1070.59 150.466 1076.09 150.466L1076.52 152.929H1025.05L1025.47 150.466C1029.84 150.466 1033.24 150.125 1035.64 149.443C1038.03 148.761 1039.77 147.321 1040.83 145.13C1041.88 142.945 1042.56 139.62 1042.84 135.174C1043.12 130.729 1043.26 124.739 1043.26 117.211V88.6803C1043.26 79.7892 1041.85 72.8044 1039.03 67.7396C1036.2 62.6749 1030.91 60.1425 1023.14 60.1425C1018.2 60.1425 1013.92 61.5827 1010.33 64.4559C1006.73 67.3292 1003.76 71.0651 1001.43 75.6428C999.102 80.2275 997.236 85.1879 995.822 90.5239C994.408 95.86 993.417 101.029 992.857 106.024C992.29 111.019 992.01 115.368 992.01 119.062C992.01 126.179 992.154 131.821 992.434 136.002C992.714 140.176 993.417 143.286 994.551 145.338C995.678 147.391 997.444 148.761 999.848 149.443C1002.25 150.132 1005.56 150.466 1009.8 150.466L1010.23 152.929H958.547L958.97 150.466C963.342 150.466 966.773 150.125 969.242 149.443C971.711 148.761 973.513 147.356 974.64 145.234C975.767 143.112 976.47 139.933 976.757 135.689C977.037 131.452 977.181 125.768 977.181 118.651V102.233C977.181 92.2423 977.001 84.3043 976.649 78.4256C976.298 72.54 975.415 68.157 974.001 65.2838C972.587 62.4105 970.505 60.5321 967.749 59.6347C964.993 58.7511 961.145 58.3059 956.207 58.3059L955.783 56.0449C962.983 55.2239 969.335 54.6395 974.841 54.2986C980.36 53.9508 986.081 53.7769 992.01 53.7769Z" fill="#E595A8"/>
<path d="M1172.88 88.8753C1172.88 95.5819 1171.11 101.704 1167.58 107.249C1164.05 112.787 1159.33 117.204 1153.39 120.488C1147.45 123.772 1140.82 125.414 1133.48 125.414C1125.71 125.414 1118.79 123.64 1112.72 120.071C1109.61 122.812 1107.35 125.581 1105.94 128.384C1104.53 131.188 1103.83 133.964 1103.83 136.698C1103.83 140.531 1105.34 143.676 1108.39 146.139C1111.41 148.602 1115.48 149.833 1120.56 149.833C1129.6 149.833 1138.04 150.007 1145.87 150.348C1153.71 150.689 1160.55 151.614 1166.41 153.117C1172.27 154.619 1176.86 157.047 1180.18 160.408C1183.5 163.754 1185.15 168.443 1185.15 174.468C1185.15 180.625 1182.82 186.503 1178.16 192.125C1173.5 197.732 1166.96 202.317 1158.57 205.879C1150.18 209.441 1140.18 211.222 1128.61 211.222C1115.9 211.222 1105.59 208.926 1097.68 204.341C1089.77 199.757 1085.83 193.697 1085.83 186.176C1085.83 180.973 1087.63 175.915 1091.22 170.989C1094.82 166.064 1099.59 162.71 1105.52 160.929C1101.14 159.148 1098.01 156.581 1096.1 153.235C1094.19 149.882 1093.24 146.285 1093.24 142.458C1093.24 137.943 1094.75 133.428 1097.79 128.913C1100.83 124.398 1104.6 120.704 1109.12 117.831C1104.6 114.408 1100.97 110.199 1098.21 105.204C1095.46 100.208 1094.09 94.7679 1094.09 88.8823C1094.09 82.0435 1095.85 75.9839 1099.38 70.7175C1102.91 65.451 1107.67 61.3116 1113.68 58.2992C1119.68 55.2868 1126.28 53.784 1133.48 53.784C1138.85 53.784 1143.89 54.6398 1148.62 56.3512C1153.35 58.0626 1157.48 60.4211 1161.01 63.4335C1162.84 61.6594 1164.19 59.6697 1165.04 57.4852C1165.89 55.3007 1166.31 53.311 1166.31 51.53C1166.31 49.7559 1166.1 47.9401 1165.67 46.0896C1165.25 44.239 1165.04 42.5693 1165.04 41.0596C1165.04 38.3185 1165.89 36.2384 1167.58 34.7983C1169.28 33.3582 1171.11 32.6416 1173.09 32.6416C1175.06 32.6416 1176.9 33.3651 1178.6 34.7983C1180.29 36.2384 1181.14 38.3185 1181.14 41.0596C1181.14 45.0321 1179.41 49.2689 1175.95 53.784C1172.49 58.2992 1168.36 62.3342 1163.56 65.8962C1166.39 68.9086 1168.64 72.3663 1170.34 76.2622C1172.03 80.1512 1172.88 84.3602 1172.88 88.8753ZM1111.67 162.161C1109.4 163.524 1107.01 166.231 1104.47 170.273C1101.93 174.308 1100.65 178.927 1100.65 184.131C1100.65 190.831 1103.44 196.278 1109.02 200.452C1114.6 204.627 1121.91 206.714 1130.95 206.714C1138 206.714 1144.5 205.482 1150.43 203.019C1156.36 200.557 1161.16 197.273 1164.83 193.168C1168.5 189.064 1170.34 184.472 1170.34 179.414C1170.34 174.489 1168.64 170.794 1165.26 168.332C1161.87 165.869 1155.94 164.227 1147.46 163.406C1138.98 162.571 1127.06 162.161 1111.67 162.161ZM1133.48 120.078C1141.53 120.078 1147.53 117.072 1151.48 111.047C1155.43 105.023 1157.41 97.6343 1157.41 88.8753C1157.41 80.1234 1155.43 72.9368 1151.48 67.3224C1147.53 61.7151 1141.53 58.9114 1133.48 58.9114C1125.43 58.9114 1119.43 61.7151 1115.48 67.3224C1111.52 72.9368 1109.55 80.1234 1109.55 88.8753C1109.55 97.6343 1111.52 105.023 1115.48 111.047C1119.43 117.072 1125.43 120.078 1133.48 120.078Z" fill="#E595A8"/>
</svg>
