<svg width="94" height="94" viewBox="0 0 94 94" fill="none" xmlns="http://www.w3.org/2000/svg">
<circle cx="47" cy="47" r="47" fill="#FBC5D2"/>
<path d="M50.162 20.407L50.987 20.782V52.507C50.987 56.157 51.062 59.057 51.212 61.207C51.362 63.357 51.712 64.957 52.262 66.007C52.862 67.057 53.762 67.757 54.962 68.107C56.162 68.407 57.787 68.557 59.837 68.557L59.987 69.457H36.737L36.887 68.557C38.987 68.557 40.612 68.407 41.762 68.107C42.962 67.757 43.837 67.057 44.387 66.007C44.987 64.957 45.362 63.357 45.512 61.207C45.662 59.057 45.737 56.157 45.737 52.507V32.707C45.737 30.807 45.437 29.482 44.837 28.732C44.237 27.982 43.437 27.607 42.437 27.607C41.337 27.607 40.087 27.857 38.687 28.357C37.287 28.857 35.712 29.507 33.962 30.307L33.362 28.882C36.312 27.582 39.287 26.232 42.287 24.832C45.337 23.432 47.962 21.957 50.162 20.407Z" fill="#6055C0"/>
<path d="M10.4592 51.8958C10.7466 51.8425 10.9966 51.89 11.2097 52.0386C11.4232 52.1873 11.5834 52.4176 11.691 52.7286L11.7155 52.7242C11.6973 52.3506 11.7609 52.0537 11.905 51.8323C12.0492 51.6113 12.2658 51.4733 12.555 51.4201C12.9634 51.3442 13.3099 51.4374 13.5951 51.6996C13.8807 51.9614 14.0747 52.3697 14.1783 52.9243C14.2727 53.4315 14.2713 53.861 14.1743 54.2147L13.7019 54.3021C13.7579 54.094 13.79 53.8748 13.7984 53.6436C13.8073 53.4129 13.7922 53.195 13.7539 52.99C13.6805 52.5964 13.5502 52.3129 13.3629 52.1389C13.176 51.9645 12.942 51.9037 12.6609 51.9561C12.3935 52.0054 12.2124 52.1544 12.1163 52.4043C12.0202 52.6532 12.0145 52.9998 12.0968 53.443L12.2178 54.0931L11.7898 54.1725L11.6732 53.5495C11.5976 53.1422 11.4655 52.8396 11.2769 52.6434C11.0891 52.4473 10.8631 52.3732 10.6002 52.422C10.3871 52.4615 10.2318 52.5738 10.1344 52.7584C10.0361 52.943 10.0134 53.1719 10.0641 53.4439C10.1051 53.6627 10.1664 53.8562 10.2496 54.0239C10.3328 54.1912 10.469 54.378 10.6603 54.583L10.3662 54.8967C10.1789 54.7241 10.0241 54.5195 9.90086 54.2844C9.77763 54.0492 9.69043 53.7976 9.6406 53.5291C9.55697 53.0818 9.59033 52.7131 9.73937 52.4233C9.8884 52.1336 10.1286 51.9565 10.4592 51.8958Z" fill="#6055C0"/>
<path d="M13.4616 47.029L12.0834 47.6653L12.1906 49.4394L13.6351 49.8995L13.6667 50.4205L9.10449 48.9384L9.07825 48.5058L13.4287 46.4961L13.4616 47.029ZM11.6292 47.8535L10.2848 48.4512C10.1144 48.5284 9.90527 48.6096 9.65659 48.6957C9.85367 48.7285 10.0712 48.7791 10.3088 48.8483L11.715 49.2858L11.6292 47.8535Z" fill="#6055C0"/>
<path d="M13.6054 43.5465L9.54408 44.69L9.54142 44.7144C9.85505 44.7144 10.2261 44.7339 10.6545 44.7721L13.471 45.0268L13.4279 45.5011L9 45.1009L9.06985 44.3274L12.8495 43.2594L12.8517 43.2354L9.32743 41.4942L9.39683 40.7266L13.8247 41.1268L13.7784 41.6402L10.9254 41.3824C10.5984 41.3531 10.2443 41.307 9.86306 41.2435L9.86084 41.2679L13.6427 43.1325L13.6054 43.5465Z" fill="#6055C0"/>
<path d="M14.7387 37.1505L14.163 39.5556L9.83789 38.5252L10.414 36.1211L10.8607 36.2267L10.4056 38.1299L11.7985 38.4618L12.2269 36.674L12.67 36.7796L12.2424 38.5674L13.8333 38.9463L14.2893 37.0436L14.7387 37.1505Z" fill="#6055C0"/>
<path d="M16.339 32.6575L16.1544 33.1393L14.1996 32.3939L13.3637 34.5761L15.318 35.3207L15.1338 35.8026L10.9805 34.2194L11.1651 33.7375L12.9321 34.4115L13.7681 32.2297L12.0015 31.5561L12.1856 31.0742L16.339 32.6575Z" fill="#6055C0"/>
<path d="M18.3939 28.7477L16.8879 28.5512L16.0284 30.1087L17.0032 31.2672L16.7505 31.7238L13.6875 28.0404L13.8975 27.6602L18.6519 28.28L18.3939 28.7477ZM16.403 28.4677L14.9469 28.257C14.7619 28.2312 14.5412 28.1886 14.285 28.1287C14.4344 28.2614 14.591 28.4203 14.7548 28.6044L15.7095 29.7248L16.403 28.4677Z" fill="#6055C0"/>
<path d="M24.1975 21.6043L23.8376 21.9744L20.9735 19.2082L19.3844 20.8447L22.2485 23.6113L21.8886 23.9819L18.6953 20.8966L21.0033 18.5195L24.1975 21.6043Z" fill="#6055C0"/>
<path d="M27.9116 18.5918L27.5032 18.9082L25.0577 15.7674L23.917 16.6513L24.2903 17.2841C24.7885 18.125 25.1382 18.7506 25.3389 19.1615C25.5399 19.5729 25.6338 19.8955 25.6205 20.1289C25.6071 20.3618 25.4981 20.5548 25.2939 20.7084C25.1756 20.8002 25.0537 20.8628 24.9282 20.8961L24.6613 20.5535C24.7801 20.5282 24.8864 20.479 24.9812 20.4057C25.0662 20.3401 25.1133 20.2482 25.1222 20.1293C25.1315 20.0108 25.0933 19.8471 25.0079 19.6372C24.9238 19.4278 24.7316 19.0546 24.4318 18.5168C24.1328 17.979 23.7542 17.324 23.2969 16.5524L25.184 15.0898L27.9116 18.5918Z" fill="#6055C0"/>
<path d="M31.6899 16.2892L30.5012 15.3467L28.9597 16.24L29.1977 17.734L28.7449 17.9963L28.0215 13.2652L28.3979 13.0469L32.1526 16.0208L31.6899 16.2892ZM30.1275 15.0268L28.9882 14.0976C28.8427 13.9809 28.6755 13.8309 28.4868 13.6481C28.546 13.838 28.5985 14.055 28.6443 14.2973L28.8841 15.7474L30.1275 15.0268Z" fill="#6055C0"/>
<path d="M33.2889 11.137C32.8387 11.3256 32.546 11.6242 32.4112 12.0329C32.2764 12.4411 32.3182 12.9052 32.5371 13.4257C32.7626 13.9613 33.0625 14.3216 33.4366 14.508C33.8108 14.6944 34.2303 14.6904 34.6961 14.4951C34.9821 14.3753 35.2869 14.1876 35.6103 13.9316L35.7856 14.3483C35.5462 14.5737 35.2183 14.7738 34.8015 14.9482C34.1978 15.2011 33.6546 15.2135 33.1728 14.9855C32.691 14.7574 32.3084 14.307 32.025 13.6334C31.8475 13.2123 31.771 12.8098 31.7955 12.4269C31.8204 12.044 31.9454 11.7041 32.1714 11.4077C32.3974 11.1117 32.7119 10.8787 33.1159 10.7097C33.5456 10.5295 33.9544 10.4505 34.3419 10.4723L34.3121 10.9653C33.9402 10.9502 33.5994 11.0074 33.2889 11.137Z" fill="#6055C0"/>
<path d="M38.4874 13.646L37.99 13.7862L36.9054 9.95943L35.5508 10.341L35.4258 9.89997L38.6333 8.99609L38.7579 9.43716L37.4033 9.81922L38.4874 13.646Z" fill="#6055C0"/>
<path d="M40.2695 8.64071L40.7482 8.57193L41.1001 11.0129C41.1651 11.4633 41.2096 11.8728 41.2345 12.2411L41.2585 12.238L43.1986 8.22094L43.7587 8.14062L44.3918 12.53L43.9104 12.5992L43.5612 10.1822C43.5038 9.78021 43.4593 9.35512 43.4299 8.90784L43.4028 8.91183L41.4627 12.9498L40.903 13.0305L40.2695 8.64071Z" fill="#6055C0"/>
<path d="M49.1196 12.44L48.6031 12.4391L48.6058 10.6069C48.3033 10.7139 48.0524 10.7866 47.8518 10.8257C47.6507 10.8647 47.4425 10.8843 47.228 10.8838C46.8085 10.8834 46.4855 10.7866 46.26 10.5945C46.034 10.4019 45.9219 10.1241 45.9219 9.7625L45.9254 8L46.4424 8.00089L46.4393 9.7026C46.4388 9.94709 46.5029 10.1281 46.6319 10.2457C46.76 10.3633 46.9691 10.4223 47.2592 10.4228C47.4558 10.4232 47.644 10.409 47.8237 10.3797C48.0035 10.3504 48.2637 10.2812 48.6072 10.1703L48.6107 8.00488L49.1281 8.00577L49.1196 12.44Z" fill="#6055C0"/>
<path d="M53.2118 12.8852L50.7539 12.5706L51.3193 8.17188L53.7777 8.48692L53.719 8.94086L51.7736 8.69193L51.5912 10.1088L53.4192 10.3431L53.3613 10.7943L51.5333 10.56L51.3247 12.1788L53.2706 12.4281L53.2118 12.8852Z" fill="#6055C0"/>
<path d="M57.4592 9.70747C56.9859 9.58767 56.5721 9.65023 56.2176 9.89517C55.8635 10.1406 55.6165 10.5364 55.4773 11.083C55.334 11.6457 55.3558 12.1138 55.5418 12.4874C55.7282 12.8611 56.0663 13.11 56.5552 13.2342C56.856 13.3101 57.2128 13.3434 57.6252 13.3332L57.5135 13.7712C57.1865 13.8075 56.8035 13.7698 56.3653 13.6589C55.7309 13.4978 55.29 13.1819 55.0427 12.7106C54.7953 12.2394 54.7619 11.6492 54.9421 10.9419C55.0551 10.4991 55.2366 10.1317 55.4875 9.84104C55.7384 9.54995 56.0436 9.35382 56.4035 9.25309C56.763 9.15192 57.1545 9.15547 57.5793 9.26286C58.0313 9.37734 58.4046 9.55927 58.7009 9.80953L58.3792 10.1854C58.0923 9.94931 57.7853 9.79001 57.4592 9.70747Z" fill="#6055C0"/>
<path d="M61.7892 15.4986L61.2059 15.2696L60.1191 12.4271L59.2939 14.5189L58.8125 14.3298L60.4407 10.2031L60.9221 10.3922L60.1333 12.3903L62.787 11.1239L63.3387 11.3404L60.717 12.6255L61.7892 15.4986Z" fill="#6055C0"/>
<path d="M67.1647 15.903C66.8146 16.5207 66.3822 16.9183 65.8688 17.0953C65.3545 17.2724 64.8189 17.2036 64.2615 16.8885C63.6916 16.5668 63.3504 16.1453 63.2378 15.6226C63.1248 15.1003 63.248 14.5221 63.6079 13.8885C63.9643 13.2597 64.3958 12.8608 64.9025 12.69C65.4092 12.5196 65.9489 12.5954 66.5205 12.918C67.0766 13.2318 67.4103 13.6529 67.5233 14.1809C67.6363 14.7098 67.5162 15.2836 67.1647 15.903ZM64.0813 14.1627C63.785 14.6854 63.6711 15.1447 63.7414 15.5409C63.8112 15.9372 64.0586 16.2549 64.4843 16.4945C64.9128 16.7368 65.3132 16.7847 65.6842 16.6392C66.0561 16.4936 66.3906 16.1582 66.6883 15.6337C66.9823 15.1145 67.0971 14.6592 67.0313 14.2679C66.9654 13.8765 66.719 13.5606 66.2923 13.3192C65.863 13.0773 65.4608 13.0285 65.0845 13.1727C64.7081 13.3174 64.374 13.6471 64.0813 14.1627Z" fill="#6055C0"/>
<path d="M71.8634 16.615L71.5827 16.9851L70.0167 15.8061L67.6175 18.9748L67.2051 18.6638L69.8846 15.125L71.8634 16.615Z" fill="#6055C0"/>
<path d="M74.4046 22.0285C73.9055 22.5339 73.3841 22.8055 72.8418 22.8432C72.299 22.8804 71.7999 22.675 71.3439 22.2264C70.8772 21.768 70.6583 21.2724 70.6859 20.7381C70.7135 20.2048 70.9835 19.6785 71.496 19.1602C72.0041 18.6459 72.525 18.3721 73.0584 18.3393C73.5927 18.306 74.0932 18.5195 74.5612 18.9792C75.0159 19.4264 75.229 19.9199 75.2005 20.459C75.1707 20.9986 74.9056 21.5213 74.4046 22.0285ZM71.8813 19.548C71.4587 19.9758 71.2291 20.3898 71.1935 20.7905C71.1579 21.1912 71.3141 21.5626 71.662 21.9047C72.013 22.2495 72.3867 22.3994 72.7835 22.3555C73.1803 22.3111 73.5901 22.0746 74.0145 21.6451C74.4344 21.2205 74.664 20.8104 74.7027 20.4155C74.7414 20.0206 74.5861 19.651 74.2365 19.308C73.8855 18.9627 73.5095 18.811 73.1087 18.8527C72.7074 18.894 72.2981 19.126 71.8813 19.548Z" fill="#6055C0"/>
<path d="M77.802 30.7676L77.5048 30.2621L78.5868 28.2472L76.285 28.1873L76.0078 27.7165L78.7598 27.8154L79.8938 25.5586L80.183 26.0507L79.2229 27.8891L81.305 27.9583L81.5835 28.4318L79.0717 28.3084L77.802 30.7676Z" fill="#6055C0"/>
<path d="M82.3774 30.0078L82.5634 30.4533L80.2812 31.4016C79.8603 31.5768 79.4737 31.7224 79.1227 31.8373L79.132 31.8599L83.5159 32.7319L83.7334 33.2528L79.629 34.9594L79.4421 34.5112L81.7017 33.5719C82.0776 33.4157 82.4789 33.2666 82.9059 33.1268L82.8957 33.102L78.491 32.2349L78.2734 31.714L82.3774 30.0078Z" fill="#6055C0"/>
<path d="M83.8793 38.4269C83.4438 38.5414 83.0701 38.4806 82.7578 38.2463C82.4455 38.0116 82.2164 37.618 82.0714 37.0664L81.9383 36.5619L80.2465 37.0052L80.1152 36.5069L84.4154 35.3789L84.7081 36.4905C84.9906 37.5625 84.7144 38.2081 83.8793 38.4269ZM82.3676 36.4492L82.486 36.8982C82.6025 37.3402 82.7582 37.641 82.9535 37.8008C83.1488 37.961 83.4047 37.9996 83.7201 37.917C84.0048 37.8425 84.1921 37.6939 84.2824 37.4715C84.3727 37.2492 84.366 36.9422 84.2624 36.5486L84.1156 35.9913L82.3676 36.4492Z" fill="#6055C0"/>
<path d="M81.0584 40.8503C81.029 40.6276 81.033 40.4284 81.0709 40.2518L81.5709 40.1856C81.5091 40.3831 81.4917 40.5783 81.5175 40.7705C81.5464 40.9915 81.6212 41.1614 81.7404 41.2808C81.8601 41.401 82.0678 41.5084 82.365 41.6038L85.4191 39.457L85.4947 40.0223L83.1627 41.6535C83.071 41.717 82.9803 41.7689 82.8891 41.8092L82.8926 41.8337C83.0688 41.8674 83.1805 41.8922 83.2281 41.9086L85.8471 42.6594L85.9191 43.2008L82.5786 42.2153C82.1799 42.0963 81.8863 41.9814 81.6981 41.8687C81.5091 41.756 81.3636 41.6198 81.2617 41.4614C81.1594 41.3025 81.0927 41.0988 81.0584 40.8503Z" fill="#6055C0"/>
<path d="M84.7187 47.6229C84.2685 47.6269 83.921 47.4765 83.6759 47.1716C83.4316 46.8672 83.3066 46.4302 83.3022 45.86L83.2977 45.3381L81.5494 45.3519L81.5449 44.8363L85.991 44.8008L86.0004 45.9505C86.0093 47.0585 85.5822 47.6163 84.7187 47.6229ZM83.7422 45.3346L83.7462 45.7983C83.7502 46.2553 83.8267 46.585 83.9762 46.7883C84.1261 46.9915 84.3637 47.0918 84.6902 47.0887C84.9838 47.0869 85.2023 46.9888 85.3446 46.7958C85.487 46.6023 85.5568 46.3028 85.5533 45.8964L85.5488 45.3199L83.7422 45.3346Z" fill="#6055C0"/>
<path d="M85.6229 51.9513L85.1602 51.902L85.3702 49.9571L81.4121 49.5325L81.4677 49.0195L85.8885 49.4934L85.6229 51.9513Z" fill="#6055C0"/>
<path d="M80.3712 55.3853L81.8735 55.1621L82.2717 53.4294L81.0154 52.5827L81.1319 52.0742L85.0913 54.7774L84.9943 55.2003L80.252 55.9067L80.3712 55.3853ZM82.3629 55.1093L83.8212 54.9132C84.0058 54.887 84.23 54.8675 84.493 54.8551C84.3137 54.7686 84.1188 54.659 83.9102 54.5258L82.6841 53.7107L82.3629 55.1093Z" fill="#6055C0"/>
<path d="M21.3958 69.7827C21.1711 69.969 20.9291 70.0489 20.6702 70.0223C20.4117 69.9961 20.1595 69.8732 19.9135 69.6536L19.8948 69.6691C20.0923 69.9864 20.1826 70.2766 20.1639 70.5397C20.1461 70.8028 20.0238 71.0282 19.7978 71.215C19.4775 71.4795 19.1291 71.5669 18.7523 71.4768C18.3755 71.3868 18.0067 71.1241 17.6459 70.6901C17.3163 70.293 17.1067 69.9167 17.0195 69.5608L17.3892 69.2551C17.4413 69.4641 17.5205 69.6713 17.6259 69.8772C17.7304 70.0826 17.8506 70.2659 17.984 70.4256C18.2398 70.734 18.4925 70.9186 18.7408 70.9803C18.989 71.0415 19.2235 70.9812 19.4432 70.7988C19.6528 70.6258 19.7382 70.4075 19.6999 70.143C19.6621 69.8785 19.4988 69.5732 19.2101 69.2262L18.787 68.7177L19.1216 68.4404L19.5273 68.9285C19.7929 69.2475 20.0558 69.4477 20.3156 69.528C20.5754 69.6083 20.809 69.563 21.015 69.3922C21.1818 69.2542 21.2632 69.0811 21.2579 68.8721C21.253 68.6636 21.1618 68.4528 20.9847 68.2394C20.8428 68.0677 20.6942 67.9292 20.5398 67.8232C20.3855 67.7171 20.1755 67.6204 19.9086 67.5343L20.0118 67.1172C20.2596 67.178 20.4949 67.2805 20.7173 67.426C20.9398 67.5716 21.1382 67.7499 21.313 67.9598C21.6044 68.3104 21.7557 68.6481 21.7668 68.9738C21.7788 69.299 21.6547 69.5688 21.3958 69.7827Z" fill="#6055C0"/>
<path d="M22.1973 75.3287L22.7618 73.9225L21.4628 72.7058L20.0957 73.3603L19.7148 73.0031L24.0515 70.957L24.3687 71.2539L22.5879 75.6943L22.1973 75.3287ZM22.9624 73.4739L23.5283 72.1187C23.5986 71.9461 23.6947 71.7433 23.8166 71.5112C23.6507 71.6222 23.4576 71.734 23.2374 71.8467L21.913 72.4915L22.9624 73.4739Z" fill="#6055C0"/>
<path d="M29.3022 80.194L28.8711 79.9571L30.4006 77.1891C30.5278 76.9588 30.6555 76.7449 30.7832 76.5474C30.7249 76.5638 30.6622 76.5803 30.5932 76.5953C30.5243 76.6104 30.2177 76.6672 29.6732 76.7649L29.606 76.3331L31.0764 76.1055L31.4492 76.3105L29.3022 80.194Z" fill="#6055C0"/>
<path d="M39.8422 84.04L39.3408 83.9153L40.3044 80.0566L38.088 79.5064L37.1249 83.365L36.623 83.2404L37.6974 78.9375L40.917 79.7371L39.8422 84.04Z" fill="#6055C0"/>
<path d="M45.2 81.5908C45.151 82.0372 44.9602 82.3638 44.6287 82.571C44.2973 82.7778 43.8471 82.8501 43.2785 82.788L42.7585 82.7312L42.5685 84.4644L42.0547 84.4089L42.5383 80L43.6838 80.1251C44.788 80.2463 45.2934 80.7348 45.2 81.5908ZM42.807 82.2914L43.2692 82.3416C43.7248 82.3913 44.0624 82.3544 44.2822 82.2297C44.5015 82.1051 44.6292 81.881 44.6643 81.557C44.6964 81.266 44.6243 81.0379 44.449 80.8741C44.2728 80.7109 43.9823 80.607 43.5775 80.5626L43.0032 80.5001L42.807 82.2914Z" fill="#6055C0"/>
<path d="M50.5927 82.4709C50.6136 83.1804 50.4503 83.7435 50.102 84.1606C49.7545 84.5773 49.2603 84.7951 48.6197 84.8138C47.9652 84.8328 47.4545 84.6483 47.0871 84.2595C46.7196 83.8708 46.5252 83.3122 46.5038 82.5849C46.4825 81.863 46.644 81.299 46.9896 80.8912C47.3344 80.4834 47.8349 80.2704 48.4915 80.2513C49.1304 80.2322 49.6344 80.4199 50.005 80.814C50.3756 81.208 50.5718 81.7591 50.5927 82.4709ZM47.0515 82.5743C47.0688 83.1746 47.2103 83.6263 47.4763 83.9294C47.7415 84.232 48.1183 84.3762 48.6068 84.362C49.0992 84.3478 49.4667 84.1819 49.7087 83.8655C49.9512 83.5491 50.0633 83.0894 50.0455 82.4873C50.0281 81.8909 49.8898 81.4427 49.6304 81.1419C49.3706 80.8406 48.996 80.6973 48.5058 80.7119C48.0133 80.7257 47.6436 80.8921 47.3958 81.2098C47.1489 81.527 47.0337 81.9819 47.0515 82.5743Z" fill="#6055C0"/>
<path d="M55.8707 83.4083L56.3855 83.3156L56.6746 84.9125L56.1928 84.9995L55.9864 83.8622L52.6885 84.4559L51.8984 80.0919L52.4074 80.0004L53.1147 83.9048L55.3622 83.4997L54.6549 79.5958L55.1638 79.5039L55.8707 83.4083Z" fill="#6055C0"/>
<path d="M60.5061 82.5381L58.1442 83.2881L56.7949 79.0633L59.1563 78.3125L59.2956 78.7491L57.4266 79.3428L57.8617 80.7042L59.6172 80.1464L59.7565 80.58L58.0005 81.1377L58.497 82.693L60.3659 82.0993L60.5061 82.5381Z" fill="#6055C0"/>
<path d="M66.0243 81.41L65.5772 81.6168L65.0896 80.5682L62.2864 81.8644L62.774 82.9125L62.3265 83.1193L61.6427 81.647L61.9541 81.5032C62.0168 80.897 61.9906 80.2066 61.8754 79.4332C61.7606 78.6593 61.5835 77.9853 61.3438 77.412L63.1566 76.5742L64.8294 80.1738L65.3396 79.9377L66.0243 81.41ZM64.3605 80.3903L62.8839 77.2119L61.9652 77.6365C62.1387 78.0958 62.2749 78.6811 62.375 79.391C62.4751 80.101 62.4986 80.7298 62.4462 81.2756L64.3605 80.3903Z" fill="#6055C0"/>
<path d="M67.3266 79.3864C67.1367 79.5067 66.9538 79.5866 66.7777 79.6265L66.5072 79.2019C66.7131 79.1739 66.8982 79.1087 67.0624 79.0044C67.2506 78.8855 67.3742 78.7466 67.4334 78.5882C67.4921 78.4302 67.5024 78.1964 67.4645 77.8875L64.2285 76.0239L64.7112 75.7186L67.1749 77.1443C67.271 77.2011 67.3564 77.2619 67.4316 77.3266L67.4521 77.3138C67.4085 77.1394 67.3845 77.0285 67.3796 76.9788L66.9627 74.2924L67.4245 74L67.9312 77.4376C67.9904 77.848 68.0086 78.1626 67.9851 78.3805C67.9624 78.5988 67.9001 78.7879 67.7982 78.9463C67.6963 79.1056 67.5393 79.252 67.3266 79.3864Z" fill="#6055C0"/>
<path d="M71.2387 72.5609C71.5261 72.9066 71.628 73.2709 71.5452 73.652C71.4629 74.0332 71.2018 74.4059 70.7605 74.7693L70.3574 75.1021L71.4718 76.4462L71.0732 76.7746L68.2402 73.3565L69.1287 72.6243C69.9855 71.9175 70.6888 71.8971 71.2387 72.5609ZM70.0754 74.7605L70.4339 74.4649C70.7872 74.1738 70.9954 73.9058 71.0585 73.6618C71.1226 73.4177 71.0501 73.171 70.8423 72.9194C70.655 72.6936 70.4415 72.5866 70.2008 72.5982C69.961 72.6097 69.6839 72.745 69.3698 73.0042L68.9245 73.3711L70.0754 74.7605Z" fill="#6055C0"/>
<path d="M74.8779 73.4957C74.7235 73.6594 74.5665 73.7824 74.405 73.8644L74.0375 73.5201C74.2302 73.4425 74.393 73.3333 74.5264 73.1913C74.679 73.0293 74.764 72.8647 74.7818 72.6965C74.7996 72.5288 74.752 72.2994 74.6377 72.0101L71.0391 71.0059L71.431 70.5902L74.1719 71.3614C74.2791 71.392 74.3774 71.4297 74.4659 71.4741L74.4829 71.4568C74.3974 71.2992 74.3463 71.1967 74.3289 71.1501L73.2568 68.6515L73.6318 68.2539L74.9776 71.459C75.1373 71.8415 75.2329 72.1414 75.2649 72.3584C75.297 72.5758 75.2832 72.7742 75.2245 72.953C75.1653 73.1323 75.0501 73.3133 74.8779 73.4957Z" fill="#6055C0"/>
</svg>
