<svg width="132" height="71" viewBox="0 0 132 71" fill="none" xmlns="http://www.w3.org/2000/svg">
<path d="M7.16797 28.3857C7.16797 28.9359 7.09798 29.4372 6.95801 29.8896C6.81803 30.3389 6.6097 30.7262 6.33301 31.0518C6.05957 31.374 5.7194 31.623 5.3125 31.7988C4.9056 31.9746 4.43359 32.0625 3.89648 32.0625C3.3431 32.0625 2.8597 31.9746 2.44629 31.7988C2.03613 31.623 1.69434 31.3724 1.4209 31.0469C1.15072 30.7214 0.947266 30.3324 0.810547 29.8799C0.677083 29.4274 0.610352 28.9261 0.610352 28.376C0.610352 27.6468 0.730794 27.0072 0.97168 26.457C1.21257 25.9069 1.57715 25.4788 2.06543 25.1729C2.55697 24.8669 3.1722 24.7139 3.91113 24.7139C4.61751 24.7139 5.21159 24.8652 5.69336 25.168C6.17839 25.4707 6.5446 25.8971 6.79199 26.4473C7.04264 26.9941 7.16797 27.6403 7.16797 28.3857ZM1.48438 28.3857C1.48438 28.9912 1.57064 29.5153 1.74316 29.958C1.91569 30.4007 2.17936 30.7425 2.53418 30.9834C2.89225 31.2243 3.34635 31.3447 3.89648 31.3447C4.44987 31.3447 4.90234 31.2243 5.25391 30.9834C5.60872 30.7425 5.87077 30.4007 6.04004 29.958C6.20931 29.5153 6.29395 28.9912 6.29395 28.3857C6.29395 27.4645 6.10026 26.7451 5.71289 26.2275C5.32878 25.7067 4.72819 25.4463 3.91113 25.4463C3.35775 25.4463 2.90202 25.5651 2.54395 25.8027C2.18587 26.0404 1.91895 26.3789 1.74316 26.8184C1.57064 27.2546 1.48438 27.777 1.48438 28.3857ZM11.625 24.8262C12.5462 24.8262 13.2184 25.0068 13.6416 25.3682C14.068 25.7262 14.2812 26.2406 14.2812 26.9111C14.2812 27.2139 14.2308 27.502 14.1299 27.7754C14.0322 28.0456 13.8727 28.2848 13.6514 28.4932C13.43 28.6982 13.1387 28.861 12.7773 28.9814C12.4193 29.0986 11.9798 29.1572 11.459 29.1572H10.5898V31.9648H9.75977V24.8262H11.625ZM11.5469 25.5342H10.5898V28.4443H11.3662C11.8219 28.4443 12.2012 28.3955 12.5039 28.2979C12.8099 28.2002 13.0394 28.0423 13.1924 27.8242C13.3454 27.6029 13.4219 27.3099 13.4219 26.9453C13.4219 26.4701 13.2705 26.1169 12.9678 25.8857C12.665 25.6514 12.1914 25.5342 11.5469 25.5342ZM16.7852 24.8262H17.5615V28.9521C17.5615 29.1084 17.5599 29.2793 17.5566 29.4648C17.5534 29.6471 17.5485 29.8262 17.542 30.002C17.5355 30.1777 17.5273 30.3372 17.5176 30.4805C17.5111 30.6237 17.5046 30.7344 17.498 30.8125H17.5371L21.5117 24.8262H22.4248V31.9648H21.6484V27.8877C21.6484 27.7152 21.6517 27.5329 21.6582 27.3408C21.6647 27.1455 21.6712 26.9567 21.6777 26.7744C21.6875 26.5921 21.6973 26.4294 21.707 26.2861C21.7168 26.1396 21.7233 26.0273 21.7266 25.9492H21.6826L17.7031 31.9648H16.7852V24.8262ZM29.3818 24.8262V25.5684H26.2031V31.9648H25.373V24.8262H29.3818ZM31.5879 24.8262H32.3643V28.9521C32.3643 29.1084 32.3626 29.2793 32.3594 29.4648C32.3561 29.6471 32.3512 29.8262 32.3447 30.002C32.3382 30.1777 32.3301 30.3372 32.3203 30.4805C32.3138 30.6237 32.3073 30.7344 32.3008 30.8125H32.3398L36.3145 24.8262H37.2275V31.9648H36.4512V27.8877C36.4512 27.7152 36.4544 27.5329 36.4609 27.3408C36.4674 27.1455 36.474 26.9567 36.4805 26.7744C36.4902 26.5921 36.5 26.4294 36.5098 26.2861C36.5195 26.1396 36.526 26.0273 36.5293 25.9492H36.4854L32.5059 31.9648H31.5879V24.8262ZM45.5859 31.9648H44.7559V28.6006H41.0059V31.9648H40.1758V24.8262H41.0059V27.8682H44.7559V24.8262H45.5859V31.9648ZM53.0264 31.9648L52.1475 29.6992H49.2861L48.4121 31.9648H47.5723L50.3652 24.7969H51.1123L53.8857 31.9648H53.0264ZM51.8984 28.9619L51.0635 26.7109C51.0439 26.6523 51.0114 26.5563 50.9658 26.4229C50.9235 26.2894 50.8796 26.151 50.834 26.0078C50.7884 25.8646 50.751 25.749 50.7217 25.6611C50.6891 25.7946 50.6533 25.9281 50.6143 26.0615C50.5785 26.1917 50.5426 26.3138 50.5068 26.4277C50.471 26.5384 50.4401 26.6328 50.4141 26.7109L49.5645 28.9619H51.8984ZM60.9551 31.9648H60.125V25.5586H57.8105C57.765 25.9232 57.7161 26.304 57.6641 26.7012C57.612 27.0983 57.5583 27.4938 57.5029 27.8877C57.4476 28.2816 57.3923 28.6543 57.3369 29.0059C57.2816 29.3574 57.2262 29.6699 57.1709 29.9434C57.0863 30.3958 56.9805 30.7816 56.8535 31.1006C56.7298 31.4163 56.5638 31.6589 56.3555 31.8281C56.1504 31.9941 55.8786 32.0771 55.54 32.0771C55.4261 32.0771 55.3122 32.0658 55.1982 32.043C55.0876 32.0202 54.9899 31.9925 54.9053 31.96V31.2617C54.9801 31.2943 55.0632 31.3219 55.1543 31.3447C55.2487 31.3675 55.348 31.3789 55.4521 31.3789C55.6572 31.3789 55.8184 31.2975 55.9355 31.1348C56.056 30.9688 56.1504 30.7588 56.2188 30.5049C56.2904 30.251 56.3522 29.9906 56.4043 29.7236C56.4466 29.5023 56.4954 29.2223 56.5508 28.8838C56.6061 28.5452 56.6647 28.1611 56.7266 27.7314C56.7884 27.2985 56.8519 26.8363 56.917 26.3447C56.9854 25.8532 57.0521 25.347 57.1172 24.8262H60.9551V31.9648ZM63.9082 31.9648V24.8262H64.7383V27.8633H66.0957C66.7402 27.8633 67.2562 27.9512 67.6436 28.127C68.0342 28.2995 68.3158 28.5387 68.4883 28.8447C68.6641 29.1475 68.752 29.4925 68.752 29.8799C68.752 30.5179 68.542 31.0257 68.1221 31.4033C67.7021 31.7777 67.0641 31.9648 66.208 31.9648H63.9082ZM64.7383 31.252H66.1201C66.7126 31.252 67.1569 31.1396 67.4531 30.915C67.7493 30.6872 67.8975 30.3421 67.8975 29.8799C67.8975 29.5576 67.8242 29.3021 67.6777 29.1133C67.5312 28.9245 67.3164 28.7894 67.0332 28.708C66.7533 28.6266 66.4066 28.5859 65.9932 28.5859H64.7383V31.252ZM76.6562 31.9648H75.8262V28.6006H72.0762V31.9648H71.2461V24.8262H72.0762V27.8682H75.8262V24.8262H76.6562V31.9648ZM85.8105 28.3857C85.8105 28.9359 85.7406 29.4372 85.6006 29.8896C85.4606 30.3389 85.2523 30.7262 84.9756 31.0518C84.7021 31.374 84.362 31.623 83.9551 31.7988C83.5482 31.9746 83.0762 32.0625 82.5391 32.0625C81.9857 32.0625 81.5023 31.9746 81.0889 31.7988C80.6787 31.623 80.3369 31.3724 80.0635 31.0469C79.7933 30.7214 79.5898 30.3324 79.4531 29.8799C79.3197 29.4274 79.2529 28.9261 79.2529 28.376C79.2529 27.6468 79.3734 27.0072 79.6143 26.457C79.8551 25.9069 80.2197 25.4788 80.708 25.1729C81.1995 24.8669 81.8148 24.7139 82.5537 24.7139C83.2601 24.7139 83.8542 24.8652 84.3359 25.168C84.821 25.4707 85.1872 25.8971 85.4346 26.4473C85.6852 26.9941 85.8105 27.6403 85.8105 28.3857ZM80.127 28.3857C80.127 28.9912 80.2132 29.5153 80.3857 29.958C80.5583 30.4007 80.8219 30.7425 81.1768 30.9834C81.5348 31.2243 81.9889 31.3447 82.5391 31.3447C83.0924 31.3447 83.5449 31.2243 83.8965 30.9834C84.2513 30.7425 84.5133 30.4007 84.6826 29.958C84.8519 29.5153 84.9365 28.9912 84.9365 28.3857C84.9365 27.4645 84.7428 26.7451 84.3555 26.2275C83.9714 25.7067 83.3708 25.4463 82.5537 25.4463C82.0003 25.4463 81.5446 25.5651 81.1865 25.8027C80.8285 26.0404 80.5615 26.3789 80.3857 26.8184C80.2132 27.2546 80.127 27.777 80.127 28.3857ZM92.377 31.9648H88.4023V24.8262H92.377V25.5586H89.2324V27.8682H92.1963V28.5908H89.2324V31.2324H92.377V31.9648ZM6.05469 46.9648H5.22461V40.5586H2.91016C2.86458 40.9232 2.81576 41.304 2.76367 41.7012C2.71159 42.0983 2.65788 42.4938 2.60254 42.8877C2.5472 43.2816 2.49186 43.6543 2.43652 44.0059C2.38118 44.3574 2.32585 44.6699 2.27051 44.9434C2.18587 45.3958 2.08008 45.7816 1.95312 46.1006C1.82943 46.4163 1.66341 46.6589 1.45508 46.8281C1.25 46.9941 0.97819 47.0771 0.639648 47.0771C0.525716 47.0771 0.411784 47.0658 0.297852 47.043C0.187174 47.0202 0.0895182 46.9925 0.00488281 46.96V46.2617C0.0797526 46.2943 0.16276 46.3219 0.253906 46.3447C0.348307 46.3675 0.447591 46.3789 0.551758 46.3789C0.756836 46.3789 0.917969 46.2975 1.03516 46.1348C1.1556 45.9688 1.25 45.7588 1.31836 45.5049C1.38997 45.251 1.45182 44.9906 1.50391 44.7236C1.54622 44.5023 1.59505 44.2223 1.65039 43.8838C1.70573 43.5452 1.76432 43.1611 1.82617 42.7314C1.88802 42.2985 1.9515 41.8363 2.0166 41.3447C2.08496 40.8532 2.15169 40.347 2.2168 39.8262H6.05469V46.9648ZM9.01758 39.8262H9.79395V43.9521C9.79395 44.1084 9.79232 44.2793 9.78906 44.4648C9.78581 44.6471 9.78092 44.8262 9.77441 45.002C9.7679 45.1777 9.75977 45.3372 9.75 45.4805C9.74349 45.6237 9.73698 45.7344 9.73047 45.8125H9.76953L13.7441 39.8262H14.6572V46.9648H13.8809V42.8877C13.8809 42.7152 13.8841 42.5329 13.8906 42.3408C13.8971 42.1455 13.9036 41.9567 13.9102 41.7744C13.9199 41.5921 13.9297 41.4294 13.9395 41.2861C13.9492 41.1396 13.9557 41.0273 13.959 40.9492H13.915L9.93555 46.9648H9.01758V39.8262ZM23.7773 46.2324V48.8301H22.9814V46.9648H17.6055V39.8262H18.4355V46.2227H22.1025V39.8262H22.9229V46.2324H23.7773ZM29.9531 46.9648H25.9785V39.8262H29.9531V40.5586H26.8086V42.8682H29.7725V43.5908H26.8086V46.2324H29.9531V46.9648ZM37.9453 46.9648H37.1152V43.6006H33.3652V46.9648H32.5352V39.8262H33.3652V42.8682H37.1152V39.8262H37.9453V46.9648ZM45.0732 41.501C45.0732 41.986 44.9235 42.3701 44.624 42.6533C44.3245 42.9333 43.9242 43.1156 43.4229 43.2002V43.2344C44.0088 43.319 44.4548 43.5078 44.7607 43.8008C45.0667 44.0938 45.2197 44.4779 45.2197 44.9531C45.2197 45.373 45.1139 45.7425 44.9023 46.0615C44.694 46.3773 44.3799 46.623 43.96 46.7988C43.54 46.9746 43.0176 47.0625 42.3926 47.0625C42.0052 47.0625 41.6357 47.0316 41.2842 46.9697C40.9326 46.9111 40.6104 46.8118 40.3174 46.6719V45.9053C40.5192 46.0029 40.7373 46.0876 40.9717 46.1592C41.2061 46.2308 41.4437 46.2861 41.6846 46.3252C41.9287 46.361 42.1615 46.3789 42.3828 46.3789C43.0273 46.3789 43.5156 46.2552 43.8477 46.0078C44.1829 45.7572 44.3506 45.4056 44.3506 44.9531C44.3506 44.4876 44.1569 44.1491 43.7695 43.9375C43.3854 43.7227 42.8451 43.6152 42.1484 43.6152H41.123V42.917H42.1143C42.583 42.917 42.972 42.8633 43.2812 42.7559C43.5905 42.6452 43.8216 42.4906 43.9746 42.292C44.1309 42.0902 44.209 41.8525 44.209 41.5791C44.209 41.2048 44.0723 40.9167 43.7988 40.7148C43.5286 40.513 43.1755 40.4121 42.7393 40.4121C42.2868 40.4121 41.9124 40.4707 41.6162 40.5879C41.32 40.7018 41.0319 40.8499 40.752 41.0322L40.3516 40.4658C40.5404 40.3291 40.7552 40.2054 40.9961 40.0947C41.237 39.9808 41.5039 39.8913 41.7969 39.8262C42.0898 39.7578 42.4056 39.7236 42.7441 39.7236C43.2487 39.7236 43.6735 39.8001 44.0186 39.9531C44.3636 40.1029 44.6257 40.3112 44.8047 40.5781C44.9837 40.8451 45.0732 41.1527 45.0732 41.501ZM47.748 39.8262H48.5244V43.9521C48.5244 44.1084 48.5228 44.2793 48.5195 44.4648C48.5163 44.6471 48.5114 44.8262 48.5049 45.002C48.4984 45.1777 48.4902 45.3372 48.4805 45.4805C48.474 45.6237 48.4674 45.7344 48.4609 45.8125H48.5L52.4746 39.8262H53.3877V46.9648H52.6113V42.8877C52.6113 42.7152 52.6146 42.5329 52.6211 42.3408C52.6276 42.1455 52.6341 41.9567 52.6406 41.7744C52.6504 41.5921 52.6602 41.4294 52.6699 41.2861C52.6797 41.1396 52.6862 41.0273 52.6895 40.9492H52.6455L48.666 46.9648H47.748V39.8262ZM58.2012 39.8262C59.1224 39.8262 59.7946 40.0068 60.2178 40.3682C60.6442 40.7262 60.8574 41.2406 60.8574 41.9111C60.8574 42.2139 60.807 42.502 60.7061 42.7754C60.6084 43.0456 60.4489 43.2848 60.2275 43.4932C60.0062 43.6982 59.7148 43.861 59.3535 43.9814C58.9954 44.0986 58.556 44.1572 58.0352 44.1572H57.166V46.9648H56.3359V39.8262H58.2012ZM58.123 40.5342H57.166V43.4443H57.9424C58.3981 43.4443 58.7773 43.3955 59.0801 43.2979C59.3861 43.2002 59.6156 43.0423 59.7686 42.8242C59.9215 42.6029 59.998 42.3099 59.998 41.9453C59.998 41.4701 59.8467 41.1169 59.5439 40.8857C59.2412 40.6514 58.7676 40.5342 58.123 40.5342ZM69.543 43.3857C69.543 43.9359 69.473 44.4372 69.333 44.8896C69.193 45.3389 68.9847 45.7262 68.708 46.0518C68.4346 46.374 68.0944 46.623 67.6875 46.7988C67.2806 46.9746 66.8086 47.0625 66.2715 47.0625C65.7181 47.0625 65.2347 46.9746 64.8213 46.7988C64.4111 46.623 64.0693 46.3724 63.7959 46.0469C63.5257 45.7214 63.3223 45.3324 63.1855 44.8799C63.0521 44.4274 62.9854 43.9261 62.9854 43.376C62.9854 42.6468 63.1058 42.0072 63.3467 41.457C63.5876 40.9069 63.9521 40.4788 64.4404 40.1729C64.932 39.8669 65.5472 39.7139 66.2861 39.7139C66.9925 39.7139 67.5866 39.8652 68.0684 40.168C68.5534 40.4707 68.9196 40.8971 69.167 41.4473C69.4176 41.9941 69.543 42.6403 69.543 43.3857ZM63.8594 43.3857C63.8594 43.9912 63.9456 44.5153 64.1182 44.958C64.2907 45.4007 64.5544 45.7425 64.9092 45.9834C65.2673 46.2243 65.7214 46.3447 66.2715 46.3447C66.8249 46.3447 67.2773 46.2243 67.6289 45.9834C67.9837 45.7425 68.2458 45.4007 68.415 44.958C68.5843 44.5153 68.6689 43.9912 68.6689 43.3857C68.6689 42.4645 68.4753 41.7451 68.0879 41.2275C67.7038 40.7067 67.1032 40.4463 66.2861 40.4463C65.7327 40.4463 65.277 40.5651 64.9189 40.8027C64.5609 41.0404 64.2939 41.3789 64.1182 41.8184C63.9456 42.2546 63.8594 42.777 63.8594 43.3857ZM72.1348 39.8262H74.1562C75.0482 39.8262 75.7188 39.9596 76.168 40.2266C76.6172 40.4935 76.8418 40.9476 76.8418 41.5889C76.8418 41.8656 76.7881 42.1146 76.6807 42.3359C76.5765 42.554 76.4235 42.7347 76.2217 42.8779C76.0199 43.0212 75.7708 43.1204 75.4746 43.1758V43.2246C75.7871 43.2734 76.0638 43.363 76.3047 43.4932C76.5456 43.6234 76.7344 43.8057 76.8711 44.04C77.0078 44.2744 77.0762 44.5723 77.0762 44.9336C77.0762 45.373 76.9736 45.7441 76.7686 46.0469C76.5667 46.3496 76.2803 46.5791 75.9092 46.7354C75.5381 46.8883 75.0986 46.9648 74.5908 46.9648H72.1348V39.8262ZM72.9648 42.8877H74.332C74.9538 42.8877 75.3835 42.7852 75.6211 42.5801C75.862 42.375 75.9824 42.0755 75.9824 41.6816C75.9824 41.2747 75.8392 40.9818 75.5527 40.8027C75.2695 40.6237 74.8171 40.5342 74.1953 40.5342H72.9648V42.8877ZM72.9648 43.5859V46.2568H74.4492C75.084 46.2568 75.5332 46.1331 75.7969 45.8857C76.0605 45.6351 76.1924 45.2982 76.1924 44.875C76.1924 44.6048 76.1322 44.3737 76.0117 44.1816C75.8945 43.9896 75.7025 43.8431 75.4355 43.7422C75.1719 43.638 74.8187 43.5859 74.376 43.5859H72.9648ZM84.0771 46.9648L83.1982 44.6992H80.3369L79.4629 46.9648H78.623L81.416 39.7969H82.1631L84.9365 46.9648H84.0771ZM82.9492 43.9619L82.1143 41.7109C82.0947 41.6523 82.0622 41.5563 82.0166 41.4229C81.9743 41.2894 81.9303 41.151 81.8848 41.0078C81.8392 40.8646 81.8018 40.749 81.7725 40.6611C81.7399 40.7946 81.7041 40.9281 81.665 41.0615C81.6292 41.1917 81.5934 41.3138 81.5576 41.4277C81.5218 41.5384 81.4909 41.6328 81.4648 41.7109L80.6152 43.9619H82.9492ZM92.3379 46.9648H91.5078V43.6006H87.7578V46.9648H86.9277V39.8262H87.7578V42.8682H91.5078V39.8262H92.3379V46.9648ZM100.711 46.9648H99.8809V43.6006H96.1309V46.9648H95.3008V39.8262H96.1309V42.8682H99.8809V39.8262H100.711V46.9648ZM109.865 43.3857C109.865 43.9359 109.795 44.4372 109.655 44.8896C109.515 45.3389 109.307 45.7262 109.03 46.0518C108.757 46.374 108.417 46.623 108.01 46.7988C107.603 46.9746 107.131 47.0625 106.594 47.0625C106.04 47.0625 105.557 46.9746 105.144 46.7988C104.733 46.623 104.392 46.3724 104.118 46.0469C103.848 45.7214 103.645 45.3324 103.508 44.8799C103.374 44.4274 103.308 43.9261 103.308 43.376C103.308 42.6468 103.428 42.0072 103.669 41.457C103.91 40.9069 104.274 40.4788 104.763 40.1729C105.254 39.8669 105.869 39.7139 106.608 39.7139C107.315 39.7139 107.909 39.8652 108.391 40.168C108.876 40.4707 109.242 40.8971 109.489 41.4473C109.74 41.9941 109.865 42.6403 109.865 43.3857ZM104.182 43.3857C104.182 43.9912 104.268 44.5153 104.44 44.958C104.613 45.4007 104.877 45.7425 105.231 45.9834C105.59 46.2243 106.044 46.3447 106.594 46.3447C107.147 46.3447 107.6 46.2243 107.951 45.9834C108.306 45.7425 108.568 45.4007 108.737 44.958C108.907 44.5153 108.991 43.9912 108.991 43.3857C108.991 42.4645 108.798 41.7451 108.41 41.2275C108.026 40.7067 107.425 40.4463 106.608 40.4463C106.055 40.4463 105.599 40.5651 105.241 40.8027C104.883 41.0404 104.616 41.3789 104.44 41.8184C104.268 42.2546 104.182 42.777 104.182 43.3857ZM116.432 46.9648H112.457V39.8262H116.432V40.5586H113.287V42.8682H116.251V43.5908H113.287V46.2324H116.432V46.9648ZM7.16797 58.3857C7.16797 58.9359 7.09798 59.4372 6.95801 59.8896C6.81803 60.3389 6.6097 60.7262 6.33301 61.0518C6.05957 61.374 5.7194 61.623 5.3125 61.7988C4.9056 61.9746 4.43359 62.0625 3.89648 62.0625C3.3431 62.0625 2.8597 61.9746 2.44629 61.7988C2.03613 61.623 1.69434 61.3724 1.4209 61.0469C1.15072 60.7214 0.947266 60.3324 0.810547 59.8799C0.677083 59.4274 0.610352 58.9261 0.610352 58.376C0.610352 57.6468 0.730794 57.0072 0.97168 56.457C1.21257 55.9069 1.57715 55.4788 2.06543 55.1729C2.55697 54.8669 3.1722 54.7139 3.91113 54.7139C4.61751 54.7139 5.21159 54.8652 5.69336 55.168C6.17839 55.4707 6.5446 55.8971 6.79199 56.4473C7.04264 56.9941 7.16797 57.6403 7.16797 58.3857ZM1.48438 58.3857C1.48438 58.9912 1.57064 59.5153 1.74316 59.958C1.91569 60.4007 2.17936 60.7425 2.53418 60.9834C2.89225 61.2243 3.34635 61.3447 3.89648 61.3447C4.44987 61.3447 4.90234 61.2243 5.25391 60.9834C5.60872 60.7425 5.87077 60.4007 6.04004 59.958C6.20931 59.5153 6.29395 58.9912 6.29395 58.3857C6.29395 57.4645 6.10026 56.7451 5.71289 56.2275C5.32878 55.7067 4.72819 55.4463 3.91113 55.4463C3.35775 55.4463 2.90202 55.5651 2.54395 55.8027C2.18587 56.0404 1.91895 56.3789 1.74316 56.8184C1.57064 57.2546 1.48438 57.777 1.48438 58.3857ZM9.75977 61.9648V54.8262H13.9541V55.5586H10.5898V57.8633H11.6982C12.3851 57.8633 12.9222 57.9479 13.3096 58.1172C13.6969 58.2865 13.9688 58.5225 14.125 58.8252C14.2845 59.1279 14.3643 59.4795 14.3643 59.8799C14.3643 60.5374 14.1673 61.0501 13.7734 61.418C13.3828 61.7826 12.7334 61.9648 11.8252 61.9648H9.75977ZM10.5898 61.252H11.7373C12.3818 61.252 12.8376 61.1396 13.1045 60.915C13.3747 60.6872 13.5098 60.3421 13.5098 59.8799C13.5098 59.5576 13.4447 59.3021 13.3145 59.1133C13.1842 58.9245 12.9792 58.7894 12.6992 58.708C12.4193 58.6266 12.0514 58.5859 11.5957 58.5859H10.5898V61.252ZM23.0742 58.3857C23.0742 58.9359 23.0042 59.4372 22.8643 59.8896C22.7243 60.3389 22.516 60.7262 22.2393 61.0518C21.9658 61.374 21.6257 61.623 21.2188 61.7988C20.8118 61.9746 20.3398 62.0625 19.8027 62.0625C19.2493 62.0625 18.766 61.9746 18.3525 61.7988C17.9424 61.623 17.6006 61.3724 17.3271 61.0469C17.057 60.7214 16.8535 60.3324 16.7168 59.8799C16.5833 59.4274 16.5166 58.9261 16.5166 58.376C16.5166 57.6468 16.637 57.0072 16.8779 56.457C17.1188 55.9069 17.4834 55.4788 17.9717 55.1729C18.4632 54.8669 19.0785 54.7139 19.8174 54.7139C20.5238 54.7139 21.1178 54.8652 21.5996 55.168C22.0846 55.4707 22.4508 55.8971 22.6982 56.4473C22.9489 56.9941 23.0742 57.6403 23.0742 58.3857ZM17.3906 58.3857C17.3906 58.9912 17.4769 59.5153 17.6494 59.958C17.8219 60.4007 18.0856 60.7425 18.4404 60.9834C18.7985 61.2243 19.2526 61.3447 19.8027 61.3447C20.3561 61.3447 20.8086 61.2243 21.1602 60.9834C21.515 60.7425 21.777 60.4007 21.9463 59.958C22.1156 59.5153 22.2002 58.9912 22.2002 58.3857C22.2002 57.4645 22.0065 56.7451 21.6191 56.2275C21.235 55.7067 20.6344 55.4463 19.8174 55.4463C19.264 55.4463 18.8083 55.5651 18.4502 55.8027C18.0921 56.0404 17.8252 56.3789 17.6494 56.8184C17.4769 57.2546 17.3906 57.777 17.3906 58.3857ZM27.5312 54.8262C28.4525 54.8262 29.1247 55.0068 29.5479 55.3682C29.9743 55.7262 30.1875 56.2406 30.1875 56.9111C30.1875 57.2139 30.137 57.502 30.0361 57.7754C29.9385 58.0456 29.779 58.2848 29.5576 58.4932C29.3363 58.6982 29.0449 58.861 28.6836 58.9814C28.3255 59.0986 27.8861 59.1572 27.3652 59.1572H26.4961V61.9648H25.666V54.8262H27.5312ZM27.4531 55.5342H26.4961V58.4443H27.2725C27.7282 58.4443 28.1074 58.3955 28.4102 58.2979C28.7161 58.2002 28.9456 58.0423 29.0986 57.8242C29.2516 57.6029 29.3281 57.3099 29.3281 56.9453C29.3281 56.4701 29.1768 56.1169 28.874 55.8857C28.5713 55.6514 28.0977 55.5342 27.4531 55.5342ZM37.8818 54.8262L35.5576 60.002C35.3558 60.4577 35.1507 60.8385 34.9424 61.1445C34.734 61.4505 34.4867 61.68 34.2002 61.833C33.9137 61.986 33.5508 62.0625 33.1113 62.0625C32.9225 62.0625 32.7467 62.0479 32.584 62.0186C32.4245 61.9925 32.2812 61.9583 32.1543 61.916V61.0908C32.2845 61.1527 32.4245 61.2015 32.5742 61.2373C32.7272 61.2699 32.8883 61.2861 33.0576 61.2861C33.3083 61.2861 33.5231 61.2487 33.7021 61.1738C33.8812 61.0957 34.0391 60.9736 34.1758 60.8076C34.3125 60.6383 34.4427 60.4154 34.5664 60.1387L31.8125 54.8262H32.7207L34.752 58.8154C34.778 58.8643 34.8057 58.9212 34.835 58.9863C34.8643 59.0482 34.8936 59.1133 34.9229 59.1816C34.9521 59.2467 34.9782 59.3118 35.001 59.377H35.0352C35.0547 59.3281 35.0758 59.2712 35.0986 59.2061C35.1247 59.141 35.1507 59.0758 35.1768 59.0107C35.2028 58.9456 35.2256 58.8903 35.2451 58.8447L36.998 54.8262H37.8818ZM44.6191 54.8262V61.2227H45.498V63.8301H44.7021V61.9648H39.7412V63.8301H38.9453V61.2227H39.4922C39.7363 60.806 39.9642 60.3389 40.1758 59.8213C40.3906 59.3005 40.5811 58.7568 40.7471 58.1904C40.9163 57.6208 41.0531 57.0495 41.1572 56.4766C41.2646 55.9036 41.333 55.3535 41.3623 54.8262H44.6191ZM43.7939 55.5732H42.0947C42.0654 55.9769 42.0003 56.4277 41.8994 56.9258C41.7985 57.4206 41.6683 57.9284 41.5088 58.4492C41.3525 58.9701 41.1768 59.4697 40.9814 59.9482C40.7894 60.4268 40.5859 60.8516 40.3711 61.2227H43.7939V55.5732ZM53.9004 58.3857C53.9004 58.9359 53.8304 59.4372 53.6904 59.8896C53.5505 60.3389 53.3421 60.7262 53.0654 61.0518C52.792 61.374 52.4518 61.623 52.0449 61.7988C51.638 61.9746 51.166 62.0625 50.6289 62.0625C50.0755 62.0625 49.5921 61.9746 49.1787 61.7988C48.7686 61.623 48.4268 61.3724 48.1533 61.0469C47.8831 60.7214 47.6797 60.3324 47.543 59.8799C47.4095 59.4274 47.3428 58.9261 47.3428 58.376C47.3428 57.6468 47.4632 57.0072 47.7041 56.457C47.945 55.9069 48.3096 55.4788 48.7979 55.1729C49.2894 54.8669 49.9046 54.7139 50.6436 54.7139C51.3499 54.7139 51.944 54.8652 52.4258 55.168C52.9108 55.4707 53.277 55.8971 53.5244 56.4473C53.7751 56.9941 53.9004 57.6403 53.9004 58.3857ZM48.2168 58.3857C48.2168 58.9912 48.3031 59.5153 48.4756 59.958C48.6481 60.4007 48.9118 60.7425 49.2666 60.9834C49.6247 61.2243 50.0788 61.3447 50.6289 61.3447C51.1823 61.3447 51.6348 61.2243 51.9863 60.9834C52.3411 60.7425 52.6032 60.4007 52.7725 59.958C52.9417 59.5153 53.0264 58.9912 53.0264 58.3857C53.0264 57.4645 52.8327 56.7451 52.4453 56.2275C52.0612 55.7067 51.4606 55.4463 50.6436 55.4463C50.0902 55.4463 49.6344 55.5651 49.2764 55.8027C48.9183 56.0404 48.6514 56.3789 48.4756 56.8184C48.3031 57.2546 48.2168 57.777 48.2168 58.3857ZM56.4922 54.8262H58.5137C59.4056 54.8262 60.0762 54.9596 60.5254 55.2266C60.9746 55.4935 61.1992 55.9476 61.1992 56.5889C61.1992 56.8656 61.1455 57.1146 61.0381 57.3359C60.9339 57.554 60.7809 57.7347 60.5791 57.8779C60.3773 58.0212 60.1283 58.1204 59.832 58.1758V58.2246C60.1445 58.2734 60.4212 58.363 60.6621 58.4932C60.903 58.6234 61.0918 58.8057 61.2285 59.04C61.3652 59.2744 61.4336 59.5723 61.4336 59.9336C61.4336 60.373 61.3311 60.7441 61.126 61.0469C60.9242 61.3496 60.6377 61.5791 60.2666 61.7354C59.8955 61.8883 59.4561 61.9648 58.9482 61.9648H56.4922V54.8262ZM57.3223 57.8877H58.6895C59.3112 57.8877 59.7409 57.7852 59.9785 57.5801C60.2194 57.375 60.3398 57.0755 60.3398 56.6816C60.3398 56.2747 60.1966 55.9818 59.9102 55.8027C59.627 55.6237 59.1745 55.5342 58.5527 55.5342H57.3223V57.8877ZM57.3223 58.5859V61.2568H58.8066C59.4414 61.2568 59.8906 61.1331 60.1543 60.8857C60.418 60.6351 60.5498 60.2982 60.5498 59.875C60.5498 59.6048 60.4896 59.3737 60.3691 59.1816C60.252 58.9896 60.0599 58.8431 59.793 58.7422C59.5293 58.638 59.1761 58.5859 58.7334 58.5859H57.3223ZM68.4346 61.9648L67.5557 59.6992H64.6943L63.8203 61.9648H62.9805L65.7734 54.7969H66.5205L69.2939 61.9648H68.4346ZM67.3066 58.9619L66.4717 56.7109C66.4521 56.6523 66.4196 56.5563 66.374 56.4229C66.3317 56.2894 66.2878 56.151 66.2422 56.0078C66.1966 55.8646 66.1592 55.749 66.1299 55.6611C66.0973 55.7946 66.0615 55.9281 66.0225 56.0615C65.9867 56.1917 65.9508 56.3138 65.915 56.4277C65.8792 56.5384 65.8483 56.6328 65.8223 56.7109L64.9727 58.9619H67.3066ZM76.6953 61.9648H75.8652V58.6006H72.1152V61.9648H71.2852V54.8262H72.1152V57.8682H75.8652V54.8262H76.6953V61.9648ZM79.668 54.8262H80.4443V58.9521C80.4443 59.1084 80.4427 59.2793 80.4395 59.4648C80.4362 59.6471 80.4313 59.8262 80.4248 60.002C80.4183 60.1777 80.4102 60.3372 80.4004 60.4805C80.3939 60.6237 80.3874 60.7344 80.3809 60.8125H80.4199L84.3945 54.8262H85.3076V61.9648H84.5312V57.8877C84.5312 57.7152 84.5345 57.5329 84.541 57.3408C84.5475 57.1455 84.554 56.9567 84.5605 56.7744C84.5703 56.5921 84.5801 56.4294 84.5898 56.2861C84.5996 56.1396 84.6061 56.0273 84.6094 55.9492H84.5654L80.5859 61.9648H79.668V54.8262ZM92.2305 61.9648H88.2559V54.8262H92.2305V55.5586H89.0859V57.8682H92.0498V58.5908H89.0859V61.2324H92.2305V61.9648Z" fill="#6055C0"/>
<path d="M7.06578 9.75564C7.07121 10.2107 7.03465 10.6653 6.95659 11.1134C6.88036 11.521 6.72534 11.909 6.50057 12.2547C6.28879 12.5364 6.0133 12.7615 5.69771 12.9106C5.39652 13.0792 5.05847 13.1672 4.71502 13.1664C4.32207 13.1753 3.93328 13.0828 3.5846 12.8975C3.2526 12.7152 2.9785 12.4399 2.79459 12.1038C2.59112 11.7691 2.45366 11.397 2.38995 11.0085C2.32362 10.59 2.29353 10.1664 2.30003 9.74252V2.08789H0.000647373V9.75564C-0.0070076 10.4444 0.0532427 11.1322 0.180487 11.8087C0.339349 12.5275 0.655555 13.2002 1.10538 13.7764C1.53149 14.3259 2.08275 14.7605 2.71109 15.0424C3.34491 15.3343 4.03259 15.4841 4.72786 15.4818C5.42094 15.4816 6.10457 15.3177 6.72537 15.003C7.36151 14.6861 7.91756 14.2238 8.35035 13.6518C8.74655 13.0773 9.02809 12.4287 9.1789 11.7431C9.32015 11.0973 9.38697 10.4369 9.37801 9.77531V2.08789H7.06578V9.75564Z" fill="#6055C0"/>
<path d="M14.17 2.03711H11.8513V15.313H20.1882V13.0697H14.17V2.03711Z" fill="#6055C0"/>
<path d="M20.3337 4.23208H23.0827V15.3106H25.3885V4.23208H28.1054V2.04785H20.3337V4.23208Z" fill="#6055C0"/>
<path d="M44.6914 1.87207L39.3348 15.3119L35.8022 10.4975C36.6426 10.2588 37.3969 9.77568 37.9731 9.10691C38.6281 8.36167 38.9856 7.39271 38.9751 6.39138C38.9886 5.62093 38.7906 4.86202 38.4035 4.2006C38.0253 3.55343 37.4782 3.02652 36.8235 2.67886C36.2739 2.36874 35.6688 2.17467 35.0443 2.1082C34.4576 2.04668 33.8678 2.0204 33.278 2.02949H33.1239H29.6106V15.3316H31.91V8.90357L36.5087 15.3316H41.7498L43.3555 11.2715H47.6588L49.2645 15.3316H51.7116L46.4385 1.87207H44.6914ZM34.2672 8.47722C33.8074 8.50845 33.346 8.50845 32.8863 8.47722H31.9164V4.35146H33.3615H33.7276C34.1006 4.33524 34.4742 4.34839 34.8452 4.39082C35.1905 4.43269 35.5209 4.55866 35.8086 4.75813C36.0934 4.94582 36.3328 5.19699 36.5087 5.49277C36.6725 5.75818 36.7614 6.06459 36.7657 6.37826C36.7722 6.76749 36.6525 7.14801 36.4252 7.46054C36.173 7.81316 35.834 8.09147 35.4425 8.26732C35.0638 8.39918 34.6672 8.47 34.2672 8.47722ZM44.2547 8.98884L45.5393 5.70922L46.7853 8.98884H44.2547Z" fill="#6055C0"/>
<path d="M61.2983 4.38948V2.09375H52.9742V15.3106H55.3057V9.5844H60.6881V7.30178H55.3057V4.38948H61.2983Z" fill="#6055C0"/>
<path d="M91.026 9.1239C91.675 8.37804 92.0298 7.41269 92.0216 6.41494C92.0381 5.645 91.8422 4.88584 91.4564 4.22415C91.0801 3.57544 90.5325 3.04806 89.8763 2.70241C89.3264 2.39311 88.7216 2.1991 88.0972 2.13176C87.5106 2.06878 86.9207 2.0425 86.3309 2.05305H86.1639H82.6699V15.3289H84.9757V8.90089L89.5745 15.3224H92.3941L88.8551 10.4948C89.6932 10.2616 90.4473 9.78544 91.026 9.1239ZM84.9757 4.34878H86.4144H86.7805C87.1556 4.33253 87.5314 4.34569 87.9045 4.38814C88.2493 4.42804 88.5797 4.55174 88.868 4.74889C89.1537 4.93809 89.3932 5.19164 89.5681 5.49009C89.7347 5.75417 89.8238 6.06143 89.825 6.37558C89.8287 6.76337 89.7118 7.14235 89.491 7.45786C89.2393 7.80582 88.9057 8.08332 88.5211 8.26464C88.1407 8.40116 87.7423 8.47855 87.3393 8.49422C86.8774 8.5257 86.4139 8.5257 85.952 8.49422H84.9757V4.34878Z" fill="#6055C0"/>
<path d="M100.082 11.6539L96.2028 2.17578H93.9099V15.4451H96.1964L96.1835 7.81672L99.1959 15.4451H100.981L103.936 7.85608L103.923 15.4451H106.21V2.17578H103.891L100.082 11.6539Z" fill="#6055C0"/>
<path d="M111.322 9.54296H117.527V7.28002H111.322V4.34804H117.918V2.06543H109.055V15.2888H118.021V12.9866H111.322V9.54296Z" fill="#6055C0"/>
<path d="M126.468 10.4945C127.307 10.2582 128.06 9.77457 128.632 9.10392C129.287 8.35869 129.645 7.38973 129.634 6.3884C129.647 5.61808 129.449 4.85944 129.063 4.19761C128.683 3.54954 128.133 3.02254 127.476 2.67587C126.926 2.36608 126.322 2.17204 125.697 2.10522C125.121 2.04845 124.542 2.02874 123.963 2.04618H123.796H120.302V15.3286H122.608V8.90714L127.174 15.3286H130L126.468 10.4945ZM122.614 4.3288H124.046H124.412C124.785 4.31262 125.159 4.32578 125.53 4.36815C125.877 4.4105 126.21 4.53639 126.5 4.73547C126.775 4.92414 127.005 5.17283 127.174 5.46355C127.337 5.72893 127.424 6.03574 127.425 6.34904C127.43 6.7371 127.313 7.11665 127.091 7.43132C126.84 7.78048 126.506 8.05825 126.121 8.2381C125.741 8.3758 125.342 8.45322 124.939 8.46768C124.477 8.49868 124.014 8.49868 123.552 8.46768H122.588L122.614 4.3288Z" fill="#6055C0"/>
<path d="M71.4873 0.00150273C70.3459 -0.0203257 69.212 0.195856 68.1551 0.636828C67.0983 1.0778 66.1406 1.73429 65.3407 2.56616C64.5095 3.38015 63.8522 4.36092 63.4101 5.44683C62.9679 6.53273 62.7505 7.7003 62.7715 8.87615C62.7572 10.0347 62.9813 11.1833 63.4294 12.2477C63.8775 13.3122 64.5396 14.2685 65.3728 15.0549C67.0005 16.7044 69.2007 17.63 71.4938 17.63C73.7868 17.63 75.987 16.7044 77.6147 15.0549C78.4444 14.2467 79.101 13.2716 79.5432 12.1912C79.9854 11.1108 80.2035 9.94855 80.1839 8.77776C80.1983 7.6081 79.9719 6.44841 79.5193 5.37383C79.0668 4.29924 78.3982 3.33375 77.5569 2.53993C76.7587 1.7296 75.8116 1.08823 74.77 0.65262C73.7284 0.217011 72.6129 -0.00426044 71.4873 0.00150273ZM71.5323 13.953C70.5744 13.966 69.6343 13.6878 68.8316 13.1538C68.0289 12.6198 67.3999 11.854 67.0244 10.9539C66.649 10.0539 66.5441 9.0601 66.7232 8.099C66.9022 7.1379 67.3571 6.25288 68.03 5.55647C68.7028 4.86007 69.5633 4.38373 70.5019 4.18803C71.4405 3.99233 72.415 4.08611 73.3013 4.45744C74.1876 4.82876 74.9458 5.46087 75.4794 6.27338C76.013 7.08589 76.298 8.04211 76.298 9.02045C76.3049 10.3194 75.807 11.5682 74.9136 12.4928C74.0202 13.4175 72.8042 13.9426 71.5323 13.953Z" fill="#6055C0"/>
</svg>
