<svg width="1128" height="157" viewBox="0 0 1128 157" fill="none" xmlns="http://www.w3.org/2000/svg">
<path d="M154.407 9.3571L153.993 11.8536C149.281 11.8536 145.436 12.3058 142.458 13.2071C139.477 14.1116 137.19 16.0505 135.602 19.0302C134.007 22.013 132.899 26.4825 132.277 32.4419C131.652 38.4043 131.342 46.4451 131.342 56.5643V97.3227C131.342 109.384 129.643 119.333 126.25 127.16C122.854 134.993 118.421 141.061 112.951 145.357C107.475 149.656 101.591 152.67 95.2849 154.401C88.9792 156.136 82.9181 157 77.0984 157C63.3819 157 52.3988 154.578 44.1584 149.721C35.9118 144.874 29.9559 138.112 26.2876 129.449C22.6132 120.785 20.7806 110.768 20.7806 99.401V56.3536C20.7806 46.2345 20.5732 38.1937 20.1584 32.2313C19.7436 26.2719 18.8737 21.8333 17.5612 18.9218C16.2425 16.0103 14.2366 14.1054 11.5341 13.204C8.83168 12.3027 5.12318 11.8505 0.414807 11.8505L0 9.354H55.903L55.4882 11.8505C50.7767 11.8505 47.0713 12.3027 44.3689 13.204C41.6665 14.1085 39.6574 16.0103 38.3418 18.9218C37.0231 21.8333 36.1935 26.2719 35.8468 32.2313C35.5001 38.1937 35.3267 46.2345 35.3267 56.3536V100.439C35.3267 112.912 37.2645 122.83 41.1464 130.174C45.0221 137.524 50.3217 142.826 57.0453 146.082C63.7627 149.343 71.3499 150.969 79.8039 150.969C87.7008 150.969 95.1828 149.235 102.247 145.769C109.314 142.306 115.059 136.656 119.495 128.82C123.928 120.993 126.145 110.626 126.145 97.7346V56.5612C126.145 46.442 125.832 38.4012 125.21 32.4388C124.585 26.4794 123.476 22.0099 121.885 19.0271C120.291 16.0474 118.041 14.1085 115.131 13.204C112.221 12.3027 108.41 11.8505 103.699 11.8505L103.284 9.354H154.407V9.3571Z" fill="#6055C0"/>
<path d="M196.387 1.87512V118.736C196.387 126.362 196.523 132.43 196.802 136.93C197.077 141.437 197.804 144.801 198.984 147.018C200.157 149.236 201.925 150.695 204.284 151.383C206.636 152.079 209.896 152.423 214.05 152.423L214.465 154.92H163.549L163.964 152.423C168.257 152.423 171.619 152.079 174.043 151.383C176.464 150.692 178.231 149.236 179.342 147.018C180.448 144.801 181.141 141.437 181.42 136.93C181.695 132.43 181.834 126.362 181.834 118.736V39.3039C181.834 31.8175 181.695 25.8612 181.42 21.4227C181.141 16.9872 180.448 13.7288 179.342 11.6505C178.231 9.57211 176.464 8.21856 174.043 7.59598C171.616 6.97031 168.254 6.66057 163.964 6.66057L163.549 4.36851C169.644 3.53532 175.219 2.91275 180.277 2.4977C185.335 2.07955 190.703 1.87512 196.387 1.87512Z" fill="#6055C0"/>
<path d="M257.276 30.988V56.5631H282.836V61.1379H257.276V140.366C257.276 143.414 257.966 145.771 259.353 147.434C260.737 149.097 262.538 149.931 264.755 149.931C267.525 149.931 270.296 149.55 273.07 148.788C275.84 148.029 278.957 146.951 282.421 145.563L282.836 147.852C278.957 150.349 274.868 152.498 270.575 154.298C266.278 156.097 261.774 156.999 257.065 156.999C252.493 156.999 248.961 155.89 246.466 153.675C243.971 151.458 242.727 147.298 242.727 141.199V61.1379H230.258V56.5631C235.799 56.5631 240.024 55.4202 242.934 53.1312C245.844 50.8453 247.989 47.7604 249.376 43.8793C250.76 40.0014 251.871 35.8416 252.701 31.4031L257.276 30.988Z" fill="#6055C0"/>
<path d="M359.312 53.4419C362.498 53.4419 365.476 54.1698 368.249 55.6255C371.02 57.0813 372.403 59.1968 372.403 61.969C372.403 64.7442 371.5 66.8566 369.701 68.3093C367.899 69.7651 366.027 70.493 364.089 70.493C362.012 70.493 360.244 70.0438 358.789 69.1394C357.334 68.2381 355.74 67.3398 354.01 66.4354C352.276 65.5341 349.818 65.0818 346.633 65.0818C342.893 65.0818 339.637 67.473 336.866 72.2554C334.093 77.0377 331.981 83.2418 330.53 90.8644C329.075 98.4902 328.347 106.46 328.347 114.779C328.347 123.511 328.521 130.449 328.867 135.575C329.211 140.704 329.938 144.446 331.05 146.803C332.158 149.163 333.888 150.687 336.247 151.378C338.6 152.075 341.859 152.419 346.014 152.419L346.428 154.915H295.927L296.342 152.419C300.36 152.419 303.545 152.075 305.901 151.378C308.254 150.687 309.984 149.163 311.096 146.803C312.204 144.446 312.931 140.704 313.278 135.575C313.622 130.449 313.798 123.511 313.798 114.779V102.718C313.798 92.599 313.622 84.5922 313.278 78.701C312.931 72.8098 312.099 68.4797 310.783 65.7044C309.464 62.9323 307.458 61.1668 304.756 60.4017C302.053 59.6398 298.345 59.2588 293.636 59.2588L293.222 56.9698C300.146 56.1366 306.279 55.514 311.613 55.099C316.943 54.6839 322.521 54.4733 328.341 54.4733V85.0414C329.864 75.1979 333.294 67.4699 338.628 61.8544C343.964 56.2481 350.858 53.4419 359.312 53.4419Z" fill="#6055C0"/>
<path d="M458.028 87.7506V108.751C458.028 118.597 458.201 126.22 458.548 131.625C458.891 137.033 459.69 140.812 460.938 142.958C462.185 145.108 464.055 146.183 466.55 146.183C468.348 146.183 470.011 145.87 471.537 145.244C473.06 144.622 474.515 143.965 475.902 143.268L476.942 145.35C471.397 148.815 466.237 151.451 461.458 153.251C456.678 155.05 451.378 155.955 445.559 155.955C445.005 153.322 444.522 149.438 444.104 144.309C443.689 139.183 443.478 133.778 443.478 128.091C441.952 132.666 439.909 137.172 437.349 141.605C434.783 146.046 431.356 149.714 427.063 152.628C422.766 155.537 417.225 156.993 410.436 156.993C402.261 156.993 395.608 154.707 390.485 150.132C385.359 145.554 382.796 139.183 382.796 130.999C382.796 124.346 384.802 118.492 388.823 113.428C392.838 108.37 399.283 104.418 408.152 101.577C417.017 98.737 428.793 97.3153 443.482 97.3153V89.829C443.482 83.8696 442.965 78.5669 441.924 73.9208C440.887 69.2778 438.875 65.6384 435.897 63.0026C432.916 60.3698 428.589 59.0534 422.908 59.0534C419.026 59.0534 415.977 59.7813 413.764 61.237C411.548 62.6928 409.78 64.4614 408.464 66.5398C407.146 68.6181 406.003 70.7336 405.034 72.8801C404.066 75.0297 402.92 76.8324 401.608 78.2881C400.289 79.7439 398.453 80.4718 396.101 80.4718C391.389 80.4718 389.033 78.1147 389.033 73.4005C389.033 69.3832 390.696 65.9853 394.02 63.2101C397.345 60.4379 401.676 58.2914 407.009 56.7644C412.343 55.2405 417.921 54.4755 423.741 54.4755C433.576 54.4755 441.748 57.1454 448.264 62.4822C454.771 67.8252 458.028 76.2469 458.028 87.7506ZM413.761 150.55C419.166 150.55 423.738 148.958 427.477 145.768C431.217 142.58 434.232 138.489 436.517 133.499C438.804 128.509 440.497 123.206 441.609 117.591C442.717 111.975 443.339 106.815 443.478 102.098C432.533 102.24 423.769 103.696 417.191 106.465C410.61 109.24 405.864 112.846 402.954 117.278C400.044 121.716 398.59 126.567 398.59 131.833C398.59 136.962 399.837 141.366 402.329 145.04C404.821 148.713 408.635 150.55 413.761 150.55Z" fill="#6055C0"/>
<path d="M524.531 61.1361V107.922C524.531 118.044 524.738 126.085 525.156 132.044C525.571 138.007 526.434 142.439 527.753 145.354C529.069 148.262 531.078 150.173 533.78 151.072C536.483 151.976 540.185 152.425 544.899 152.425L545.314 154.922H489.408L489.823 152.425C494.531 152.425 498.24 151.976 500.942 151.072C503.645 150.173 505.651 148.265 506.969 145.354C508.285 142.442 509.115 138.007 509.464 132.044C509.808 126.085 509.984 118.041 509.984 107.922V61.1361H490.866V56.5613H509.984C509.984 44.2244 510.987 34.3468 513 26.9286C515.006 19.5135 517.64 13.8298 520.896 9.87754C524.15 5.92838 527.787 3.29561 531.808 1.97613C535.823 0.659742 539.912 0 544.07 0C548.642 0 553.316 0.867267 558.096 2.5987C562.875 4.33324 566.859 6.65317 570.045 9.56471C573.23 12.4762 574.824 15.6665 574.824 19.1294C574.824 21.2078 574.06 23.0135 572.537 24.5374C571.011 26.0645 569.073 26.8264 566.717 26.8264C563.392 26.8264 560.901 25.7547 559.235 23.602C557.573 21.4556 556.149 19.0272 554.976 16.3232C553.796 13.6192 552.273 11.197 550.403 9.04435C548.534 6.89786 545.729 5.81998 541.987 5.81998C536.86 5.81998 533.05 7.48327 530.558 10.8099C528.066 14.1364 526.431 18.8507 525.673 24.9494C524.908 31.0512 524.528 38.3301 524.528 46.7828V56.5551H551.961V61.1299H524.531V61.1361Z" fill="#6055C0"/>
<path d="M610.562 54.4798C620.539 54.4798 629.092 56.8028 636.234 61.4458C643.369 66.0919 648.839 72.2928 652.649 80.058C656.457 87.8231 658.364 96.4183 658.364 105.844C658.364 115.133 656.525 123.66 652.857 131.422C649.185 139.187 643.886 145.388 636.961 150.031C630.033 154.68 621.653 156.997 611.816 156.997C602.111 156.997 593.694 154.68 586.562 150.031C579.427 145.388 573.957 139.187 570.146 131.422C566.335 123.66 564.432 115.133 564.432 105.844C564.432 96.4183 566.23 87.8231 569.833 80.058C573.437 72.2959 578.702 66.0919 585.63 61.4458C592.549 56.8028 600.863 54.4798 610.562 54.4798ZM611.813 152.84C618.874 152.84 624.696 150.725 629.268 146.497C633.841 142.269 637.202 136.588 639.348 129.446C641.493 122.306 642.57 114.439 642.57 105.844C642.57 97.109 641.391 89.1766 639.038 82.0341C636.679 74.8946 633.144 69.214 628.439 64.983C623.724 60.7551 617.84 58.6396 610.772 58.6396C603.845 58.6396 598.093 60.7551 593.524 64.983C588.952 69.214 585.59 74.8946 583.445 82.0341C581.293 89.1766 580.222 97.109 580.222 105.844C580.222 114.439 581.395 122.306 583.754 129.446C586.113 136.588 589.642 142.269 594.353 146.497C599.065 150.725 604.885 152.84 611.813 152.84Z" fill="#6055C0"/>
<path d="M738.998 53.4419C742.18 53.4419 745.158 54.1698 747.935 55.6255C750.705 57.0813 752.092 59.1968 752.092 61.969C752.092 64.7442 751.188 66.8566 749.389 68.3093C747.588 69.7651 745.715 70.493 743.777 70.493C741.697 70.493 739.932 70.0438 738.478 69.1394C737.023 68.2381 735.428 67.3398 733.698 66.4354C731.961 65.5341 729.507 65.0818 726.318 65.0818C722.579 65.0818 719.319 67.473 716.552 72.2554C713.778 77.0377 711.67 83.2418 710.212 90.8644C708.757 98.4902 708.029 106.46 708.029 114.779C708.029 123.511 708.203 130.449 708.55 135.575C708.893 140.704 709.624 144.446 710.732 146.803C711.837 149.163 713.571 150.687 715.929 151.378C718.285 152.075 721.542 152.419 725.696 152.419L726.111 154.915H675.613L676.031 152.419C680.045 152.419 683.231 152.075 685.59 151.378C687.945 150.687 689.673 149.163 690.787 146.803C691.892 144.446 692.62 140.704 692.966 135.575C693.31 130.449 693.486 123.511 693.486 114.779V102.718C693.486 92.599 693.31 84.5922 692.966 78.701C692.62 72.8098 691.787 68.4797 690.471 65.7044C689.153 62.9323 687.147 61.1668 684.447 60.4017C681.745 59.6398 678.036 59.2588 673.328 59.2588L672.91 56.9698C679.838 56.1366 685.97 55.514 691.301 55.099C696.632 54.6839 702.213 54.4733 708.029 54.4733V85.0414C709.552 75.1979 712.985 67.4699 718.316 61.8544C723.647 56.2388 730.544 53.4419 738.998 53.4419Z" fill="#6055C0"/>
<path d="M854.546 91.7053C855.239 85.8854 856.796 80.0964 859.223 74.3445C861.644 68.5927 864.969 63.8413 869.197 60.0997C873.423 56.358 878.654 54.4841 884.889 54.4841C894.866 54.4841 902.413 57.3647 907.539 63.1134C912.665 68.8684 915.228 77.0826 915.228 87.7562V120.61C915.228 130.039 915.572 137.039 916.269 141.61C916.959 146.188 918.553 149.134 921.051 150.45C923.543 151.77 927.49 152.426 932.895 152.426L933.313 154.923H884.267L884.681 152.426C888.56 152.426 891.606 152.083 893.826 151.386C896.039 150.695 897.636 149.239 898.602 147.021C899.568 144.804 900.162 141.44 900.367 136.933C900.577 132.433 900.682 126.365 900.682 118.739V89.8345C900.682 80.8243 899.401 73.756 896.838 68.6237C894.272 63.4975 889.529 60.9298 882.604 60.9298C878.165 60.9298 874.358 62.3855 871.175 65.2971C867.987 68.2086 865.319 71.9874 863.173 76.6304C861.025 81.2765 859.329 86.3004 858.081 91.7053C856.834 97.1134 855.93 102.348 855.379 107.403C854.821 112.467 854.546 116.865 854.546 120.61C854.546 127.818 854.682 133.539 854.961 137.763C855.239 141.994 855.93 145.148 857.041 147.226C858.146 149.307 859.88 150.695 862.235 151.386C864.591 152.083 867.848 152.426 872.005 152.426L872.42 154.923H823.584L823.999 152.426C827.878 152.426 830.924 152.083 833.143 151.386C835.36 150.695 836.951 149.239 837.923 147.021C838.892 144.804 839.483 141.44 839.69 136.933C839.895 132.433 840.003 126.365 840.003 118.739V89.8345C840.003 80.8243 838.718 73.756 836.158 68.6237C833.592 63.4975 828.85 60.9298 821.922 60.9298C817.483 60.9298 813.675 62.3855 810.493 65.2971C807.304 68.2086 804.636 71.9874 802.491 76.6304C800.342 81.2765 798.646 86.3004 797.399 91.7053C796.151 97.1134 795.25 102.348 794.696 107.403C794.139 112.467 793.863 116.865 793.863 120.61C793.863 127.818 794 133.539 794.278 137.763C794.557 141.994 795.247 145.148 796.358 147.226C797.464 149.307 799.197 150.695 801.556 151.386C803.909 152.083 807.168 152.426 811.322 152.426L811.737 154.923H761.025L761.443 152.426C765.737 152.426 769.096 152.083 771.523 151.386C773.943 150.695 775.711 149.273 776.822 147.124C777.927 144.977 778.621 141.753 778.899 137.454C779.178 133.158 779.317 127.406 779.317 120.195V103.562C779.317 93.443 779.141 85.4022 778.797 79.4397C778.45 73.4804 777.581 69.0449 776.2 66.1334C774.813 63.2218 772.77 61.3169 770.071 60.4156C767.368 59.5143 763.592 59.0621 758.744 59.0621L758.326 56.7762C765.393 55.943 771.628 55.3576 777.033 55.0076C782.435 54.6638 788.047 54.4872 793.866 54.4872V91.7084C794.56 85.8885 796.117 80.0995 798.544 74.3476C800.965 68.5958 804.289 63.8444 808.521 60.1028C812.743 56.3611 817.978 54.4872 824.209 54.4872C834.186 54.4872 841.733 57.3988 846.86 63.2218C851.98 69.0387 854.546 78.5353 854.546 91.7053Z" fill="#6055C0"/>
<path d="M1031.81 102.306H963.649V105.844C963.649 116.238 965.166 124.766 968.221 131.422C971.268 138.075 975.283 142.997 980.273 146.187C985.263 149.377 990.593 150.969 996.277 150.969C1002.1 150.969 1007.74 149.69 1013.22 147.122C1018.69 144.561 1023.01 140.296 1026.2 134.333L1029.32 135.997C1025.44 143.622 1020.28 149.03 1013.84 152.215C1007.4 155.402 1000.5 156.997 993.163 156.997C985.399 156.997 978.059 155.092 971.131 151.279C964.203 147.466 958.591 141.748 954.298 134.123C949.998 126.5 947.853 117.072 947.853 105.844C947.853 96.4183 949.583 87.8231 953.053 80.058C956.511 72.2959 961.47 66.0919 967.909 61.4458C974.354 56.8028 982.148 54.4798 991.29 54.4798C1000.29 54.4798 1007.78 56.6294 1013.73 60.9254C1019.69 65.2246 1024.19 70.9795 1027.24 78.184C1030.28 85.3947 1031.81 93.4387 1031.81 102.306ZM991.5 58.6396C983.049 58.6396 976.601 62.248 972.171 69.4525C967.732 76.6632 965.03 85.6023 964.064 96.2758H1015.81C1015.39 84.9116 1013.32 75.7929 1009.58 68.9322C1005.84 62.0715 999.806 58.6396 991.5 58.6396Z" fill="#6055C0"/>
<path d="M1114.52 53.4419C1117.71 53.4419 1120.69 54.1698 1123.46 55.6255C1126.23 57.0813 1127.62 59.1968 1127.62 61.969C1127.62 64.7442 1126.72 66.8566 1124.92 68.3093C1123.12 69.7651 1121.24 70.493 1119.31 70.493C1117.23 70.493 1115.46 70.0438 1114 69.1394C1112.55 68.2381 1110.96 67.3398 1109.23 66.4354C1107.49 65.5341 1105.03 65.0818 1101.85 65.0818C1098.11 65.0818 1094.85 67.473 1092.08 72.2554C1089.31 77.0377 1087.2 83.2418 1085.74 90.8644C1084.29 98.4902 1083.56 106.46 1083.56 114.779C1083.56 123.511 1083.73 130.449 1084.08 135.575C1084.42 140.704 1085.15 144.446 1086.26 146.803C1087.36 149.163 1089.1 150.687 1091.46 151.378C1093.81 152.075 1097.07 152.419 1101.22 152.419L1101.64 154.915H1051.14L1051.56 152.419C1055.57 152.419 1058.76 152.075 1061.12 151.378C1063.48 150.687 1065.2 149.163 1066.32 146.803C1067.42 144.446 1068.15 140.704 1068.49 135.575C1068.84 130.449 1069.01 123.511 1069.01 114.779V102.718C1069.01 92.599 1068.84 84.5922 1068.49 78.701C1068.15 72.8098 1067.31 68.4797 1066 65.7044C1064.68 62.9323 1062.68 61.1668 1059.97 60.4017C1057.27 59.6398 1053.57 59.2588 1048.86 59.2588L1048.44 56.9698C1055.37 56.1366 1061.5 55.514 1066.83 55.099C1072.16 54.6839 1077.74 54.4733 1083.56 54.4733V85.0414C1085.08 75.1979 1088.52 67.4699 1093.85 61.8544C1099.18 56.2388 1106.07 53.4419 1114.52 53.4419Z" fill="#6055C0"/>
</svg>
