<svg width="274" height="274" viewBox="0 0 274 274" fill="none" xmlns="http://www.w3.org/2000/svg">
<circle cx="137" cy="137" r="137" fill="#FBC5D2"/>
<g filter="url(#filter0_d_649_3509)">
<circle cx="137" cy="30" r="10" fill="#6055C0"/>
</g>
<line x1="64" y1="95.5" x2="211" y2="95.5" stroke="#FFF7ED" stroke-dasharray="2 2"/>
<line x1="64" y1="125.5" x2="211" y2="125.5" stroke="#FFF7ED" stroke-dasharray="2 2"/>
<line x1="64" y1="155.5" x2="211" y2="155.5" stroke="#FFF7ED" stroke-dasharray="2 2"/>
<line x1="64" y1="186.5" x2="211" y2="186.5" stroke="#FFF7ED" stroke-dasharray="2 2"/>
<line x1="64" y1="216.5" x2="211" y2="216.5" stroke="#FFF7ED" stroke-dasharray="2 2"/>
<path d="M74.8762 86H73.8479V79.4238C73.8479 79.1742 73.8479 78.9604 73.8479 78.7827C73.8521 78.6007 73.8563 78.4357 73.8606 78.2876C73.869 78.1353 73.8796 77.9808 73.8923 77.8242C73.7611 77.9596 73.6384 78.076 73.5241 78.1733C73.4099 78.2664 73.2681 78.3828 73.0988 78.5225L72.0388 79.373L71.4865 78.6558L74.0002 76.7197H74.8762V86ZM78.7038 85.3398C78.7038 85.0436 78.7758 84.8341 78.9196 84.7114C79.0635 84.5845 79.2391 84.521 79.4465 84.521C79.6623 84.521 79.8443 84.5845 79.9924 84.7114C80.1405 84.8341 80.2146 85.0436 80.2146 85.3398C80.2146 85.6318 80.1405 85.8455 79.9924 85.981C79.8443 86.1121 79.6623 86.1777 79.4465 86.1777C79.2391 86.1777 79.0635 86.1121 78.9196 85.981C78.7758 85.8455 78.7038 85.6318 78.7038 85.3398ZM89.6196 86H88.5342V77.6719H85.6143V76.7197H92.5269V77.6719H89.6196V86ZM97.6545 76.7197C98.8521 76.7197 99.7259 76.9546 100.276 77.4243C100.83 77.8898 101.108 78.5584 101.108 79.4302C101.108 79.8237 101.042 80.1982 100.911 80.5537C100.784 80.9049 100.577 81.216 100.289 81.4868C100.001 81.7534 99.6223 81.965 99.1525 82.1216C98.687 82.2739 98.1158 82.3501 97.4387 82.3501H96.3088V86H95.2297V76.7197H97.6545ZM97.5529 77.6401H96.3088V81.4233H97.3181C97.9105 81.4233 98.4035 81.3599 98.7971 81.2329C99.1949 81.106 99.4932 80.9007 99.6921 80.6172C99.891 80.3294 99.9904 79.9486 99.9904 79.4746C99.9904 78.8568 99.7937 78.3976 99.4001 78.0972C99.0065 77.7925 98.3908 77.6401 97.5529 77.6401ZM109.517 86H104.35V76.7197H109.517V77.6719H105.429V80.6743H109.282V81.6138H105.429V85.0479H109.517V86ZM119.907 86H118.828V81.6265H113.953V86H112.874V76.7197H113.953V80.6743H118.828V76.7197H119.907V86ZM123.771 76.7197H124.781V82.0835C124.781 82.2866 124.778 82.5088 124.774 82.75C124.77 82.987 124.764 83.2197 124.755 83.4482C124.747 83.6768 124.736 83.8841 124.723 84.0703C124.715 84.2565 124.707 84.4004 124.698 84.502H124.749L129.916 76.7197H131.103V86H130.094V80.6997C130.094 80.4754 130.098 80.2384 130.106 79.9888C130.115 79.7349 130.123 79.4894 130.132 79.2524C130.144 79.0155 130.157 78.8039 130.17 78.6177C130.182 78.4272 130.191 78.2812 130.195 78.1797H130.138L124.965 86H123.771V76.7197ZM137.36 76.7197C138.558 76.7197 139.432 76.9546 139.982 77.4243C140.536 77.8898 140.813 78.5584 140.813 79.4302C140.813 79.8237 140.748 80.1982 140.617 80.5537C140.49 80.9049 140.282 81.216 139.995 81.4868C139.707 81.7534 139.328 81.965 138.858 82.1216C138.393 82.2739 137.822 82.3501 137.145 82.3501H136.015V86H134.936V76.7197H137.36ZM137.259 77.6401H136.015V81.4233H137.024C137.616 81.4233 138.109 81.3599 138.503 81.2329C138.901 81.106 139.199 80.9007 139.398 80.6172C139.597 80.3294 139.696 79.9486 139.696 79.4746C139.696 78.8568 139.5 78.3976 139.106 78.0972C138.712 77.7925 138.097 77.6401 137.259 77.6401ZM152.105 81.3472C152.105 82.0623 152.014 82.714 151.832 83.3022C151.65 83.8862 151.379 84.3898 151.019 84.813C150.664 85.2319 150.222 85.5557 149.693 85.7842C149.164 86.0127 148.55 86.127 147.852 86.127C147.132 86.127 146.504 86.0127 145.967 85.7842C145.433 85.5557 144.989 85.2298 144.633 84.8066C144.282 84.3835 144.018 83.8778 143.84 83.2896C143.667 82.7013 143.58 82.0496 143.58 81.3345C143.58 80.3866 143.736 79.555 144.05 78.8398C144.363 78.1247 144.837 77.5682 145.471 77.1704C146.11 76.7726 146.91 76.5737 147.871 76.5737C148.789 76.5737 149.561 76.7705 150.188 77.1641C150.818 77.5576 151.294 78.112 151.616 78.8271C151.942 79.5381 152.105 80.3781 152.105 81.3472ZM144.716 81.3472C144.716 82.1343 144.828 82.8156 145.052 83.3911C145.277 83.9666 145.62 84.411 146.081 84.7241C146.546 85.0373 147.137 85.1938 147.852 85.1938C148.571 85.1938 149.159 85.0373 149.616 84.7241C150.078 84.411 150.418 83.9666 150.638 83.3911C150.858 82.8156 150.968 82.1343 150.968 81.3472C150.968 80.1496 150.717 79.2144 150.213 78.5415C149.714 77.8644 148.933 77.5259 147.871 77.5259C147.151 77.5259 146.559 77.6803 146.093 77.9893C145.628 78.2982 145.281 78.7383 145.052 79.3096C144.828 79.8766 144.716 80.5558 144.716 81.3472ZM155.474 76.7197H158.102C159.261 76.7197 160.133 76.8932 160.717 77.2402C161.301 77.5872 161.593 78.1776 161.593 79.0112C161.593 79.3709 161.523 79.6947 161.384 79.9824C161.248 80.266 161.049 80.5008 160.787 80.687C160.525 80.8732 160.201 81.0023 159.816 81.0742V81.1377C160.222 81.2012 160.582 81.3175 160.895 81.4868C161.208 81.6561 161.454 81.8931 161.631 82.1978C161.809 82.5024 161.898 82.8896 161.898 83.3594C161.898 83.9307 161.765 84.4131 161.498 84.8066C161.236 85.2002 160.863 85.4985 160.381 85.7017C159.898 85.9006 159.327 86 158.667 86H155.474V76.7197ZM156.553 80.6997H158.33C159.139 80.6997 159.697 80.5664 160.006 80.2998C160.319 80.0332 160.476 79.6439 160.476 79.1318C160.476 78.6029 160.29 78.222 159.917 77.9893C159.549 77.7565 158.961 77.6401 158.153 77.6401H156.553V80.6997ZM156.553 81.6074V85.0796H158.483C159.308 85.0796 159.892 84.9188 160.235 84.5972C160.578 84.2713 160.749 83.8333 160.749 83.2832C160.749 82.932 160.671 82.6315 160.514 82.3818C160.362 82.1322 160.112 81.9417 159.765 81.8105C159.422 81.6751 158.963 81.6074 158.388 81.6074H156.553ZM171.831 86H170.523L166.257 81.29V86H165.178V76.7197H166.257V81.2139L170.415 76.7197H171.653L167.546 81.2266L171.831 86ZM174.426 76.7197H175.435V82.0835C175.435 82.2866 175.433 82.5088 175.429 82.75C175.424 82.987 175.418 83.2197 175.409 83.4482C175.401 83.6768 175.39 83.8841 175.378 84.0703C175.369 84.2565 175.361 84.4004 175.352 84.502H175.403L180.57 76.7197H181.757V86H180.748V80.6997C180.748 80.4754 180.752 80.2384 180.761 79.9888C180.769 79.7349 180.777 79.4894 180.786 79.2524C180.799 79.0155 180.811 78.8039 180.824 78.6177C180.837 78.4272 180.845 78.2812 180.849 78.1797H180.792L175.619 86H174.426V76.7197ZM77.0344 116H70.9533V115.118L73.4353 112.598C73.8965 112.132 74.2837 111.717 74.5969 111.354C74.9143 110.99 75.1555 110.632 75.3205 110.281C75.4856 109.925 75.5681 109.536 75.5681 109.113C75.5681 108.588 75.4115 108.188 75.0984 107.913C74.7894 107.634 74.3811 107.494 73.8733 107.494C73.4289 107.494 73.0354 107.57 72.6926 107.723C72.3498 107.875 71.9986 108.091 71.6389 108.37L71.0739 107.659C71.3194 107.452 71.586 107.268 71.8737 107.107C72.1657 106.946 72.4768 106.819 72.8068 106.726C73.1412 106.633 73.4966 106.586 73.8733 106.586C74.4445 106.586 74.9375 106.686 75.3523 106.885C75.767 107.084 76.0865 107.367 76.3108 107.735C76.5393 108.104 76.6535 108.542 76.6535 109.049C76.6535 109.54 76.5562 109.997 76.3615 110.42C76.1669 110.839 75.8939 111.256 75.5427 111.671C75.1914 112.081 74.781 112.517 74.3112 112.979L72.2927 114.991V115.035H77.0344V116ZM78.7038 115.34C78.7038 115.044 78.7758 114.834 78.9196 114.711C79.0635 114.584 79.2391 114.521 79.4465 114.521C79.6623 114.521 79.8443 114.584 79.9924 114.711C80.1405 114.834 80.2146 115.044 80.2146 115.34C80.2146 115.632 80.1405 115.846 79.9924 115.981C79.8443 116.112 79.6623 116.178 79.4465 116.178C79.2391 116.178 79.0635 116.112 78.9196 115.981C78.7758 115.846 78.7038 115.632 78.7038 115.34ZM93.4219 116H92.1143L87.8486 111.29V116H86.7695V106.72H87.8486V111.214L92.0063 106.72H93.2441L89.1372 111.227L93.4219 116ZM102.764 106.72L99.7429 113.448C99.4805 114.041 99.2139 114.536 98.9431 114.934C98.6722 115.331 98.3506 115.63 97.9782 115.829C97.6058 116.028 97.134 116.127 96.5627 116.127C96.3173 116.127 96.0887 116.108 95.8771 116.07C95.6698 116.036 95.4836 115.992 95.3186 115.937V114.864C95.4878 114.944 95.6698 115.008 95.8645 115.054C96.0633 115.097 96.2728 115.118 96.4929 115.118C96.8187 115.118 97.098 115.069 97.3308 114.972C97.5635 114.87 97.7687 114.711 97.9465 114.496C98.1242 114.276 98.2935 113.986 98.4543 113.626L94.8742 106.72H96.0549L98.6955 111.906C98.7294 111.969 98.7653 112.043 98.8034 112.128C98.8415 112.208 98.8796 112.293 98.9177 112.382C98.9558 112.466 98.9896 112.551 99.0192 112.636H99.0637C99.0891 112.572 99.1166 112.498 99.1462 112.414C99.18 112.329 99.2139 112.244 99.2478 112.16C99.2816 112.075 99.3112 112.003 99.3366 111.944L101.615 106.72H102.764ZM107.765 106.72C108.963 106.72 109.836 106.955 110.387 107.424C110.941 107.89 111.218 108.558 111.218 109.43C111.218 109.824 111.153 110.198 111.021 110.554C110.894 110.905 110.687 111.216 110.399 111.487C110.112 111.753 109.733 111.965 109.263 112.122C108.798 112.274 108.226 112.35 107.549 112.35H106.419V116H105.34V106.72H107.765ZM107.663 107.64H106.419V111.423H107.429C108.021 111.423 108.514 111.36 108.908 111.233C109.305 111.106 109.604 110.901 109.803 110.617C110.002 110.329 110.101 109.949 110.101 109.475C110.101 108.857 109.904 108.398 109.511 108.097C109.117 107.792 108.501 107.64 107.663 107.64ZM118.428 107.539C117.916 107.539 117.455 107.627 117.044 107.805C116.638 107.979 116.291 108.233 116.003 108.567C115.72 108.897 115.502 109.297 115.349 109.767C115.197 110.236 115.121 110.765 115.121 111.354C115.121 112.132 115.241 112.809 115.483 113.385C115.728 113.956 116.092 114.398 116.574 114.711C117.061 115.025 117.668 115.181 118.396 115.181C118.811 115.181 119.2 115.147 119.564 115.08C119.932 115.008 120.29 114.919 120.637 114.813V115.752C120.298 115.879 119.943 115.972 119.57 116.032C119.198 116.095 118.756 116.127 118.244 116.127C117.3 116.127 116.511 115.932 115.876 115.543C115.246 115.149 114.772 114.595 114.454 113.88C114.141 113.165 113.984 112.32 113.984 111.347C113.984 110.645 114.082 110.004 114.276 109.424C114.475 108.84 114.763 108.336 115.14 107.913C115.521 107.49 115.986 107.164 116.536 106.936C117.091 106.703 117.725 106.586 118.441 106.586C118.91 106.586 119.363 106.633 119.799 106.726C120.235 106.819 120.628 106.952 120.98 107.126L120.548 108.04C120.252 107.905 119.926 107.788 119.57 107.691C119.219 107.589 118.838 107.539 118.428 107.539ZM132.708 116L129.591 107.786H129.54C129.557 107.96 129.572 108.171 129.584 108.421C129.597 108.671 129.608 108.944 129.616 109.24C129.625 109.532 129.629 109.83 129.629 110.135V116H128.626V106.72H130.226L133.165 114.438H133.209L136.192 106.72H137.779V116H136.713V110.059C136.713 109.784 136.717 109.508 136.726 109.233C136.734 108.954 136.745 108.692 136.757 108.446C136.77 108.197 136.783 107.981 136.795 107.799H136.745L133.59 116H132.708ZM147.439 116L146.297 113.055H142.577L141.441 116H140.349L143.98 106.682H144.951L148.556 116H147.439ZM145.973 112.096L144.887 109.17C144.862 109.094 144.82 108.969 144.76 108.795C144.705 108.622 144.648 108.442 144.589 108.256C144.53 108.07 144.481 107.919 144.443 107.805C144.401 107.979 144.354 108.152 144.303 108.326C144.257 108.495 144.21 108.654 144.164 108.802C144.117 108.946 144.077 109.068 144.043 109.17L142.939 112.096H145.973ZM155.112 107.539C154.6 107.539 154.139 107.627 153.728 107.805C153.322 107.979 152.975 108.233 152.687 108.567C152.404 108.897 152.186 109.297 152.034 109.767C151.881 110.236 151.805 110.765 151.805 111.354C151.805 112.132 151.926 112.809 152.167 113.385C152.412 113.956 152.776 114.398 153.259 114.711C153.745 115.025 154.353 115.181 155.08 115.181C155.495 115.181 155.885 115.147 156.248 115.08C156.617 115.008 156.974 114.919 157.321 114.813V115.752C156.983 115.879 156.627 115.972 156.255 116.032C155.882 116.095 155.44 116.127 154.928 116.127C153.984 116.127 153.195 115.932 152.56 115.543C151.93 115.149 151.456 114.595 151.139 113.88C150.825 113.165 150.669 112.32 150.669 111.347C150.669 110.645 150.766 110.004 150.961 109.424C151.16 108.84 151.447 108.336 151.824 107.913C152.205 107.49 152.67 107.164 153.221 106.936C153.775 106.703 154.41 106.586 155.125 106.586C155.595 106.586 156.047 106.633 156.483 106.726C156.919 106.819 157.313 106.952 157.664 107.126L157.232 108.04C156.936 107.905 156.61 107.788 156.255 107.691C155.904 107.589 155.523 107.539 155.112 107.539ZM164.601 107.539C164.089 107.539 163.627 107.627 163.217 107.805C162.811 107.979 162.464 108.233 162.176 108.567C161.892 108.897 161.674 109.297 161.522 109.767C161.37 110.236 161.294 110.765 161.294 111.354C161.294 112.132 161.414 112.809 161.655 113.385C161.901 113.956 162.265 114.398 162.747 114.711C163.234 115.025 163.841 115.181 164.569 115.181C164.984 115.181 165.373 115.147 165.737 115.08C166.105 115.008 166.463 114.919 166.81 114.813V115.752C166.471 115.879 166.116 115.972 165.743 116.032C165.371 116.095 164.929 116.127 164.417 116.127C163.473 116.127 162.684 115.932 162.049 115.543C161.418 115.149 160.944 114.595 160.627 113.88C160.314 113.165 160.157 112.32 160.157 111.347C160.157 110.645 160.255 110.004 160.449 109.424C160.648 108.84 160.936 108.336 161.313 107.913C161.693 107.49 162.159 107.164 162.709 106.936C163.263 106.703 163.898 106.586 164.613 106.586C165.083 106.586 165.536 106.633 165.972 106.726C166.408 106.819 166.801 106.952 167.152 107.126L166.721 108.04C166.425 107.905 166.099 107.788 165.743 107.691C165.392 107.589 165.011 107.539 164.601 107.539ZM175.943 116L174.8 113.055H171.08L169.944 116H168.852L172.483 106.682H173.454L177.06 116H175.943ZM174.476 112.096L173.391 109.17C173.366 109.094 173.323 108.969 173.264 108.795C173.209 108.622 173.152 108.442 173.093 108.256C173.033 108.07 172.985 107.919 172.947 107.805C172.904 107.979 172.858 108.152 172.807 108.326C172.76 108.495 172.714 108.654 172.667 108.802C172.621 108.946 172.581 109.068 172.547 109.17L171.442 112.096H174.476ZM182.175 111.227L178.544 106.72H179.744L183.324 111.214V106.72H184.365V111.214L187.945 106.72H189.145L185.514 111.22L189.278 116H188.034L184.365 111.296V116H183.324V111.296L179.648 116H178.404L182.175 111.227ZM197.713 116L196.57 113.055H192.85L191.714 116H190.622L194.253 106.682H195.224L198.83 116H197.713ZM196.246 112.096L195.161 109.17C195.135 109.094 195.093 108.969 195.034 108.795C194.979 108.622 194.922 108.442 194.863 108.256C194.803 108.07 194.755 107.919 194.717 107.805C194.674 107.979 194.628 108.152 194.577 108.326C194.53 108.495 194.484 108.654 194.437 108.802C194.391 108.946 194.35 109.068 194.317 109.17L193.212 112.096H196.246ZM76.6916 138.884C76.6916 139.299 76.6112 139.659 76.4504 139.963C76.2896 140.268 76.0653 140.518 75.7775 140.712C75.4898 140.903 75.1512 141.036 74.7619 141.112V141.163C75.4983 141.256 76.0505 141.493 76.4187 141.874C76.7911 142.255 76.9773 142.754 76.9773 143.372C76.9773 143.91 76.8503 144.386 76.5964 144.8C76.3467 145.215 75.9616 145.541 75.4411 145.778C74.9248 146.011 74.2626 146.127 73.4543 146.127C72.9634 146.127 72.5085 146.087 72.0896 146.006C71.6748 145.93 71.2771 145.801 70.8962 145.619V144.629C71.2813 144.819 71.7002 144.97 72.153 145.08C72.6058 145.185 73.0438 145.238 73.467 145.238C74.3134 145.238 74.9248 145.071 75.3015 144.737C75.6781 144.398 75.8664 143.937 75.8664 143.353C75.8664 142.951 75.7606 142.627 75.549 142.382C75.3417 142.132 75.0412 141.95 74.6477 141.836C74.2583 141.717 73.7886 141.658 73.2385 141.658H72.3117V140.757H73.2448C73.7484 140.757 74.1758 140.683 74.5271 140.535C74.8783 140.387 75.1449 140.179 75.3269 139.913C75.5131 139.642 75.6062 139.322 75.6062 138.954C75.6062 138.484 75.4496 138.123 75.1364 137.869C74.8233 137.611 74.398 137.481 73.8606 137.481C73.5305 137.481 73.23 137.515 72.9592 137.583C72.6884 137.651 72.4345 137.744 72.1975 137.862C71.9605 137.981 71.7235 138.118 71.4865 138.275L70.9533 137.551C71.2919 137.289 71.7045 137.062 72.1911 136.872C72.6778 136.682 73.23 136.586 73.8479 136.586C74.7958 136.586 75.5067 136.802 75.9807 137.234C76.4546 137.666 76.6916 138.216 76.6916 138.884ZM78.7038 145.34C78.7038 145.044 78.7758 144.834 78.9196 144.711C79.0635 144.584 79.2391 144.521 79.4465 144.521C79.6623 144.521 79.8443 144.584 79.9924 144.711C80.1405 144.834 80.2146 145.044 80.2146 145.34C80.2146 145.632 80.1405 145.846 79.9924 145.981C79.8443 146.112 79.6623 146.178 79.4465 146.178C79.2391 146.178 79.0635 146.112 78.9196 145.981C78.7758 145.846 78.7038 145.632 78.7038 145.34ZM94.8184 141.347C94.8184 142.062 94.7274 142.714 94.5454 143.302C94.3634 143.886 94.0926 144.39 93.7329 144.813C93.3774 145.232 92.9352 145.556 92.4062 145.784C91.8773 146.013 91.2637 146.127 90.5654 146.127C89.846 146.127 89.2176 146.013 88.6802 145.784C88.147 145.556 87.7026 145.23 87.3472 144.807C86.9959 144.383 86.7314 143.878 86.5537 143.29C86.3802 142.701 86.2935 142.05 86.2935 141.334C86.2935 140.387 86.45 139.555 86.7632 138.84C87.0763 138.125 87.5503 137.568 88.1851 137.17C88.8241 136.773 89.6239 136.574 90.5845 136.574C91.5028 136.574 92.2751 136.771 92.9014 137.164C93.5319 137.558 94.008 138.112 94.3296 138.827C94.6554 139.538 94.8184 140.378 94.8184 141.347ZM87.4297 141.347C87.4297 142.134 87.5418 142.816 87.7661 143.391C87.9904 143.967 88.3332 144.411 88.7944 144.724C89.2599 145.037 89.8503 145.194 90.5654 145.194C91.2848 145.194 91.873 145.037 92.3301 144.724C92.7913 144.411 93.132 143.967 93.3521 143.391C93.5721 142.816 93.6821 142.134 93.6821 141.347C93.6821 140.15 93.4303 139.214 92.9268 138.542C92.4274 137.864 91.6466 137.526 90.5845 137.526C89.8651 137.526 89.2726 137.68 88.8071 137.989C88.3416 138.298 87.9946 138.738 87.7661 139.31C87.5418 139.877 87.4297 140.556 87.4297 141.347ZM98.1877 146V136.72H103.64V137.672H99.2668V140.668H100.708C101.601 140.668 102.299 140.778 102.802 140.998C103.306 141.218 103.659 141.525 103.862 141.918C104.07 142.312 104.174 142.769 104.174 143.29C104.174 144.144 103.918 144.811 103.405 145.289C102.898 145.763 102.053 146 100.873 146H98.1877ZM99.2668 145.073H100.758C101.596 145.073 102.189 144.927 102.536 144.635C102.887 144.339 103.063 143.89 103.063 143.29C103.063 142.871 102.978 142.538 102.809 142.293C102.64 142.048 102.373 141.872 102.009 141.766C101.645 141.66 101.167 141.607 100.574 141.607H99.2668V145.073ZM112.615 146H107.448V136.72H112.615V137.672H108.527V140.674H112.38V141.614H108.527V145.048H112.615V146ZM118.396 136.72C119.594 136.72 120.468 136.955 121.018 137.424C121.572 137.89 121.849 138.558 121.849 139.43C121.849 139.824 121.784 140.198 121.652 140.554C121.525 140.905 121.318 141.216 121.03 141.487C120.743 141.753 120.364 141.965 119.894 142.122C119.429 142.274 118.857 142.35 118.18 142.35H117.05V146H115.971V136.72H118.396ZM118.295 137.64H117.05V141.423H118.06C118.652 141.423 119.145 141.36 119.539 141.233C119.936 141.106 120.235 140.901 120.434 140.617C120.633 140.329 120.732 139.949 120.732 139.475C120.732 138.857 120.535 138.398 120.142 138.097C119.748 137.792 119.132 137.64 118.295 137.64ZM127.942 146H126.856V137.672H123.936V136.72H130.849V137.672H127.942V146ZM133.552 146V136.72H134.631V140.668H136.116C136.954 140.668 137.621 140.782 138.116 141.011C138.611 141.235 138.966 141.546 139.182 141.944C139.398 142.337 139.506 142.786 139.506 143.29C139.506 144.119 139.243 144.779 138.719 145.27C138.198 145.757 137.379 146 136.262 146H133.552ZM134.631 145.08H136.154C136.92 145.08 137.483 144.931 137.843 144.635C138.207 144.339 138.389 143.89 138.389 143.29C138.389 142.871 138.3 142.541 138.122 142.299C137.949 142.054 137.684 141.88 137.329 141.779C136.977 141.673 136.533 141.62 135.996 141.62H134.631V145.08ZM140.915 146V136.72H141.994V146H140.915ZM145.884 136.72H148.512C149.671 136.72 150.543 136.893 151.127 137.24C151.711 137.587 152.003 138.178 152.003 139.011C152.003 139.371 151.933 139.695 151.794 139.982C151.658 140.266 151.459 140.501 151.197 140.687C150.935 140.873 150.611 141.002 150.226 141.074V141.138C150.632 141.201 150.992 141.318 151.305 141.487C151.618 141.656 151.863 141.893 152.041 142.198C152.219 142.502 152.308 142.89 152.308 143.359C152.308 143.931 152.175 144.413 151.908 144.807C151.646 145.2 151.273 145.499 150.791 145.702C150.308 145.901 149.737 146 149.077 146H145.884V136.72ZM146.963 140.7H148.74C149.549 140.7 150.107 140.566 150.416 140.3C150.729 140.033 150.886 139.644 150.886 139.132C150.886 138.603 150.7 138.222 150.327 137.989C149.959 137.757 149.371 137.64 148.563 137.64H146.963V140.7ZM146.963 141.607V145.08H148.893C149.718 145.08 150.302 144.919 150.645 144.597C150.988 144.271 151.159 143.833 151.159 143.283C151.159 142.932 151.081 142.632 150.924 142.382C150.772 142.132 150.522 141.942 150.175 141.811C149.832 141.675 149.373 141.607 148.798 141.607H146.963ZM161.409 146L160.267 143.055H156.547L155.411 146H154.319L157.95 136.682H158.921L162.526 146H161.409ZM159.943 142.096L158.857 139.17C158.832 139.094 158.79 138.969 158.73 138.795C158.675 138.622 158.618 138.442 158.559 138.256C158.5 138.07 158.451 137.919 158.413 137.805C158.371 137.979 158.324 138.152 158.273 138.326C158.227 138.495 158.18 138.654 158.134 138.802C158.087 138.946 158.047 139.068 158.013 139.17L156.909 142.096H159.943ZM172.148 146H171.069V141.626H166.194V146H165.115V136.72H166.194V140.674H171.069V136.72H172.148V146ZM176.012 136.72H177.022V142.083C177.022 142.287 177.02 142.509 177.015 142.75C177.011 142.987 177.005 143.22 176.996 143.448C176.988 143.677 176.977 143.884 176.965 144.07C176.956 144.257 176.948 144.4 176.939 144.502H176.99L182.157 136.72H183.344V146H182.335V140.7C182.335 140.475 182.339 140.238 182.347 139.989C182.356 139.735 182.364 139.489 182.373 139.252C182.386 139.015 182.398 138.804 182.411 138.618C182.424 138.427 182.432 138.281 182.436 138.18H182.379L177.206 146H176.012V136.72ZM189.875 142.122L187.462 146H186.199L188.795 141.925C188.457 141.819 188.139 141.669 187.843 141.474C187.551 141.275 187.314 141.002 187.132 140.655C186.955 140.308 186.866 139.864 186.866 139.322C186.866 138.476 187.153 137.831 187.729 137.386C188.309 136.942 189.17 136.72 190.312 136.72H192.858V146H191.779V142.122H189.875ZM191.779 137.64H190.351C189.839 137.64 189.405 137.699 189.049 137.818C188.698 137.936 188.431 138.123 188.25 138.376C188.068 138.63 187.977 138.963 187.977 139.373C187.977 139.961 188.171 140.414 188.561 140.731C188.95 141.045 189.544 141.201 190.344 141.201H191.779V137.64ZM77.4978 173.848H76.1076V176H75.0793V173.848H70.5915V172.959L75.0095 166.669H76.1076V172.896H77.4978V173.848ZM75.0793 172.896V169.862C75.0793 169.629 75.0814 169.42 75.0857 169.233C75.0899 169.043 75.0962 168.867 75.1047 168.707C75.1132 168.542 75.1195 168.385 75.1237 168.237C75.1322 168.089 75.1386 167.943 75.1428 167.799H75.092C75.0116 167.968 74.9185 168.148 74.8127 168.338C74.7111 168.525 74.6075 168.692 74.5017 168.84L71.6389 172.896H75.0793ZM78.7038 175.34C78.7038 175.044 78.7758 174.834 78.9196 174.711C79.0635 174.584 79.2391 174.521 79.4465 174.521C79.6623 174.521 79.8443 174.584 79.9924 174.711C80.1405 174.834 80.2146 175.044 80.2146 175.34C80.2146 175.632 80.1405 175.846 79.9924 175.981C79.8443 176.112 79.6623 176.178 79.4465 176.178C79.2391 176.178 79.0635 176.112 78.9196 175.981C78.7758 175.846 78.7038 175.632 78.7038 175.34ZM92.9521 166.72V175.035H94.0947V178.425H93.0601V176H86.6108V178.425H85.5762V175.035H86.2871C86.6045 174.493 86.9007 173.886 87.1758 173.213C87.4551 172.536 87.7026 171.83 87.9185 171.093C88.1385 170.353 88.3162 169.61 88.4517 168.865C88.5913 168.12 88.6802 167.405 88.7183 166.72H92.9521ZM91.8794 167.691H89.6704C89.6323 168.216 89.5477 168.802 89.4165 169.449C89.2853 170.092 89.116 170.753 88.9087 171.43C88.7056 172.107 88.4771 172.756 88.2231 173.378C87.9735 174 87.709 174.553 87.4297 175.035H91.8794V167.691ZM96.9816 166.72H97.9909V172.083C97.9909 172.287 97.9888 172.509 97.9846 172.75C97.9803 172.987 97.974 173.22 97.9655 173.448C97.9571 173.677 97.9465 173.884 97.9338 174.07C97.9253 174.257 97.9169 174.4 97.9084 174.502H97.9592L103.126 166.72H104.313V176H103.304V170.7C103.304 170.475 103.308 170.238 103.317 169.989C103.325 169.735 103.334 169.489 103.342 169.252C103.355 169.015 103.367 168.804 103.38 168.618C103.393 168.427 103.401 168.281 103.405 168.18H103.348L98.175 176H96.9816V166.72ZM113.313 176H108.146V166.72H113.313V167.672H109.225V170.674H113.078V171.614H109.225V175.048H113.313V176ZM119.52 176H118.434V167.672H115.514V166.72H122.427V167.672H119.52V176ZM130.95 176L129.808 173.055H126.088L124.952 176H123.86L127.491 166.682H128.462L132.068 176H130.95ZM129.484 172.096L128.399 169.17C128.373 169.094 128.331 168.969 128.272 168.795C128.217 168.622 128.16 168.442 128.1 168.256C128.041 168.07 127.992 167.919 127.954 167.805C127.912 167.979 127.866 168.152 127.815 168.326C127.768 168.495 127.722 168.654 127.675 168.802C127.629 168.946 127.588 169.068 127.554 169.17L126.45 172.096H129.484ZM73.8859 200.325C74.5165 200.325 75.0645 200.433 75.53 200.649C75.9955 200.861 76.3552 201.169 76.6091 201.576C76.8672 201.982 76.9963 202.475 76.9963 203.055C76.9963 203.689 76.8588 204.237 76.5837 204.699C76.3086 205.156 75.913 205.509 75.3967 205.759C74.8804 206.004 74.2626 206.127 73.5432 206.127C73.0608 206.127 72.6122 206.085 72.1975 206C71.7828 205.915 71.4336 205.788 71.1501 205.619V204.616C71.459 204.802 71.8335 204.951 72.2736 205.061C72.7137 205.171 73.1412 205.226 73.5559 205.226C74.0256 205.226 74.4361 205.152 74.7873 205.003C75.1428 204.851 75.4178 204.623 75.6125 204.318C75.8114 204.009 75.9109 203.622 75.9109 203.156C75.9109 202.538 75.7204 202.062 75.3396 201.728C74.9629 201.389 74.3663 201.22 73.5495 201.22C73.2872 201.22 72.9994 201.241 72.6862 201.284C72.3731 201.326 72.115 201.373 71.9118 201.423L71.3786 201.074L71.7341 196.72H76.3488V197.685H72.6355L72.4006 200.484C72.5614 200.45 72.7688 200.416 73.0227 200.382C73.2766 200.344 73.5643 200.325 73.8859 200.325ZM78.7038 205.34C78.7038 205.044 78.7758 204.834 78.9196 204.711C79.0635 204.584 79.2391 204.521 79.4465 204.521C79.6623 204.521 79.8443 204.584 79.9924 204.711C80.1405 204.834 80.2146 205.044 80.2146 205.34C80.2146 205.632 80.1405 205.846 79.9924 205.981C79.8443 206.112 79.6623 206.178 79.4465 206.178C79.2391 206.178 79.0635 206.112 78.9196 205.981C78.7758 205.846 78.7038 205.632 78.7038 205.34ZM94.1201 196.72L91.2446 203.283C90.9865 203.876 90.7114 204.386 90.4194 204.813C90.1274 205.236 89.7572 205.562 89.3086 205.791C88.86 206.015 88.2718 206.127 87.5439 206.127C87.3154 206.127 87.0679 206.11 86.8013 206.076C86.5347 206.047 86.2871 206 86.0586 205.937V204.248C86.2702 204.328 86.4987 204.388 86.7441 204.426C86.9938 204.46 87.2287 204.477 87.4487 204.477C87.7365 204.477 87.9692 204.428 88.147 204.331C88.3247 204.233 88.4665 204.102 88.5723 203.937C88.6781 203.772 88.7669 203.588 88.8389 203.385L85.627 196.72H87.709L89.4419 200.738C89.48 200.822 89.5286 200.937 89.5879 201.081C89.6514 201.22 89.7127 201.364 89.772 201.512C89.8354 201.656 89.8841 201.783 89.918 201.893H89.9878C90.0216 201.787 90.0661 201.66 90.1211 201.512C90.1803 201.36 90.2417 201.205 90.3052 201.049C90.3687 200.888 90.4258 200.744 90.4766 200.617L92.0889 196.72H94.1201ZM103.932 206H101.971V198.357H99.6984C99.6477 198.755 99.5926 199.189 99.5334 199.659C99.4742 200.128 99.4128 200.602 99.3493 201.081C99.2858 201.559 99.2181 202.014 99.1462 202.445C99.0785 202.877 99.0108 203.256 98.9431 203.582C98.833 204.123 98.6828 204.584 98.4924 204.965C98.3062 205.342 98.0502 205.63 97.7243 205.829C97.4027 206.028 96.9816 206.127 96.4611 206.127C96.2876 206.127 96.1205 206.114 95.9597 206.089C95.8031 206.063 95.6571 206.03 95.5217 205.987V204.375C95.6317 204.413 95.7417 204.445 95.8518 204.47C95.9618 204.491 96.0824 204.502 96.2136 204.502C96.3828 204.502 96.5225 204.447 96.6325 204.337C96.7468 204.223 96.8483 204.03 96.9372 203.759C97.0261 203.484 97.1149 203.105 97.2038 202.623C97.2419 202.411 97.2927 202.113 97.3562 201.728C97.4196 201.339 97.4916 200.884 97.572 200.363C97.6524 199.839 97.7349 199.267 97.8195 198.649C97.9084 198.032 97.993 197.388 98.0734 196.72H103.932V206ZM107.575 206V196.72H109.542V200.281H110.317C111.189 200.281 111.904 200.401 112.462 200.643C113.025 200.884 113.44 201.218 113.706 201.646C113.977 202.069 114.113 202.553 114.113 203.099C114.113 204.017 113.806 204.73 113.192 205.238C112.583 205.746 111.612 206 110.279 206H107.575ZM109.542 204.388H110.203C110.799 204.388 111.269 204.292 111.612 204.102C111.954 203.907 112.126 203.573 112.126 203.099C112.126 202.769 112.041 202.517 111.872 202.344C111.707 202.17 111.468 202.052 111.155 201.988C110.846 201.925 110.475 201.893 110.044 201.893H109.542V204.388ZM120.757 206H118.79V198.357H116.27V196.72H123.277V198.357H120.757V206ZM128.97 196.72C130.168 196.72 131.041 196.978 131.592 197.494C132.142 198.006 132.417 198.713 132.417 199.614C132.417 200.021 132.355 200.41 132.233 200.782C132.11 201.15 131.909 201.478 131.63 201.766C131.355 202.054 130.986 202.282 130.525 202.452C130.064 202.617 129.495 202.699 128.818 202.699H127.973V206H126.006V196.72H128.97ZM128.868 198.332H127.973V201.087H128.621C128.989 201.087 129.309 201.038 129.579 200.941C129.85 200.844 130.06 200.691 130.208 200.484C130.356 200.277 130.43 200.01 130.43 199.684C130.43 199.227 130.303 198.889 130.049 198.668C129.795 198.444 129.402 198.332 128.868 198.332ZM141.15 206L140.477 203.791H137.094L136.421 206H134.301L137.576 196.682H139.982L143.27 206H141.15ZM140.007 202.141L139.334 199.982C139.292 199.839 139.235 199.654 139.163 199.43C139.095 199.202 139.026 198.971 138.954 198.738C138.886 198.501 138.831 198.296 138.789 198.123C138.746 198.296 138.687 198.512 138.611 198.77C138.539 199.024 138.469 199.265 138.401 199.494C138.334 199.722 138.285 199.885 138.255 199.982L137.589 202.141H140.007ZM151.051 196.586V197.729C152.062 197.754 152.869 197.93 153.469 198.256C154.07 198.582 154.504 199.003 154.771 199.519C155.037 200.031 155.171 200.588 155.171 201.188C155.171 201.582 155.103 201.982 154.967 202.388C154.832 202.794 154.606 203.169 154.288 203.512C153.975 203.854 153.554 204.134 153.025 204.35C152.496 204.565 151.838 204.682 151.051 204.699V206.127H149.28V204.699C148.48 204.682 147.814 204.565 147.28 204.35C146.752 204.13 146.33 203.848 146.017 203.505C145.708 203.158 145.488 202.782 145.357 202.375C145.226 201.969 145.16 201.574 145.16 201.188C145.16 200.736 145.232 200.306 145.376 199.9C145.524 199.494 145.759 199.132 146.081 198.814C146.407 198.493 146.832 198.237 147.357 198.046C147.881 197.856 148.522 197.75 149.28 197.729V196.586H151.051ZM149.28 199.265C148.717 199.291 148.269 199.388 147.934 199.557C147.604 199.726 147.367 199.951 147.223 200.23C147.079 200.505 147.008 200.82 147.008 201.176C147.008 201.565 147.086 201.906 147.242 202.198C147.403 202.49 147.651 202.72 147.985 202.89C148.324 203.059 148.755 203.156 149.28 203.182V199.265ZM151.051 199.265V203.182C151.58 203.156 152.012 203.059 152.346 202.89C152.68 202.72 152.926 202.49 153.082 202.198C153.243 201.906 153.323 201.565 153.323 201.176C153.323 200.82 153.252 200.505 153.108 200.23C152.964 199.951 152.725 199.726 152.39 199.557C152.06 199.388 151.614 199.291 151.051 199.265ZM166.652 201.347C166.652 202.062 166.563 202.714 166.386 203.302C166.208 203.886 165.937 204.39 165.573 204.813C165.213 205.236 164.756 205.562 164.202 205.791C163.648 206.015 162.992 206.127 162.234 206.127C161.477 206.127 160.821 206.015 160.267 205.791C159.712 205.562 159.253 205.236 158.889 204.813C158.529 204.39 158.261 203.884 158.083 203.296C157.905 202.708 157.816 202.054 157.816 201.334C157.816 200.374 157.973 199.538 158.286 198.827C158.603 198.112 159.09 197.558 159.746 197.164C160.402 196.771 161.236 196.574 162.247 196.574C163.254 196.574 164.081 196.771 164.729 197.164C165.381 197.558 165.863 198.112 166.176 198.827C166.494 199.542 166.652 200.382 166.652 201.347ZM159.879 201.347C159.879 201.995 159.96 202.553 160.121 203.023C160.286 203.488 160.542 203.848 160.889 204.102C161.236 204.352 161.684 204.477 162.234 204.477C162.793 204.477 163.246 204.352 163.593 204.102C163.94 203.848 164.191 203.488 164.348 203.023C164.509 202.553 164.589 201.995 164.589 201.347C164.589 200.374 164.407 199.608 164.043 199.049C163.679 198.491 163.081 198.211 162.247 198.211C161.693 198.211 161.24 198.338 160.889 198.592C160.542 198.842 160.286 199.202 160.121 199.671C159.96 200.137 159.879 200.695 159.879 201.347ZM172.84 196.72C174.038 196.72 174.911 196.978 175.462 197.494C176.012 198.006 176.287 198.713 176.287 199.614C176.287 200.021 176.225 200.41 176.103 200.782C175.98 201.15 175.779 201.478 175.5 201.766C175.225 202.054 174.856 202.282 174.395 202.452C173.934 202.617 173.365 202.699 172.688 202.699H171.843V206H169.876V196.72H172.84ZM172.738 198.332H171.843V201.087H172.491C172.859 201.087 173.178 201.038 173.449 200.941C173.72 200.844 173.93 200.691 174.078 200.484C174.226 200.277 174.3 200.01 174.3 199.684C174.3 199.227 174.173 198.889 173.919 198.668C173.665 198.444 173.272 198.332 172.738 198.332ZM183.268 206L181.033 198.719H180.976C180.985 198.893 180.998 199.155 181.014 199.506C181.036 199.853 181.055 200.224 181.072 200.617C181.089 201.011 181.097 201.366 181.097 201.684V206H179.339V196.72H182.017L184.214 203.816H184.252L186.581 196.72H189.26V206H187.426V201.607C187.426 201.315 187.43 200.979 187.438 200.598C187.451 200.217 187.466 199.855 187.483 199.513C187.5 199.166 187.512 198.905 187.521 198.732H187.464L185.071 206H183.268ZM198.247 206H192.902V196.72H198.247V198.332H194.87V200.37H198.012V201.982H194.87V204.375H198.247V206ZM204.454 196.72C205.651 196.72 206.525 196.978 207.075 197.494C207.626 198.006 207.901 198.713 207.901 199.614C207.901 200.021 207.839 200.41 207.717 200.782C207.594 201.15 207.393 201.478 207.113 201.766C206.838 202.054 206.47 202.282 206.009 202.452C205.548 202.617 204.979 202.699 204.301 202.699H203.457V206H201.489V196.72H204.454ZM204.352 198.332H203.457V201.087H204.105C204.473 201.087 204.792 201.038 205.063 200.941C205.334 200.844 205.543 200.691 205.692 200.484C205.84 200.277 205.914 200.01 205.914 199.684C205.914 199.227 205.787 198.889 205.533 198.668C205.279 198.444 204.885 198.332 204.352 198.332Z" fill="#6055C0"/>
<path d="M157.886 174.309C157.785 174.309 157.765 174.328 157.833 174.361C157.891 174.389 157.965 174.389 157.994 174.361C158.022 174.333 157.971 174.308 157.886 174.309Z" fill="#FFF7ED"/>
<path d="M156.435 174.595C156.368 174.591 156.33 174.633 156.355 174.684C156.383 174.742 156.433 174.762 156.48 174.734C156.605 174.659 156.587 174.603 156.435 174.595Z" fill="#FFF7ED"/>
<path d="M156.246 174.031C156.088 173.962 155.945 173.945 155.901 173.989C155.858 174.032 155.955 174.099 156.131 174.146C156.298 174.191 156.454 174.21 156.476 174.188C156.497 174.166 156.395 174.096 156.246 174.031Z" fill="#FFF7ED"/>
<path d="M155.667 174.082C155.619 174.079 155.565 174.114 155.532 174.168C155.5 174.221 155.532 174.261 155.608 174.266C155.684 174.27 155.74 174.234 155.742 174.18C155.745 174.124 155.715 174.085 155.667 174.082Z" fill="#FFF7ED"/>
<path d="M155.136 173.918C155.05 173.947 155.001 173.996 155.026 174.029C155.05 174.061 155.118 174.038 155.18 173.976C155.266 173.89 155.257 173.877 155.136 173.918Z" fill="#FFF7ED"/>
<path d="M152.166 173.612C152.099 173.608 152.061 173.649 152.086 173.701C152.114 173.759 152.163 173.778 152.21 173.75C152.336 173.675 152.318 173.62 152.166 173.612Z" fill="#FFF7ED"/>
<path d="M151.504 173.574C151.436 173.571 151.357 173.608 151.326 173.658C151.297 173.707 151.352 173.753 151.445 173.758C151.538 173.763 151.619 173.724 151.622 173.674C151.624 173.623 151.571 173.578 151.504 173.574Z" fill="#FFF7ED"/>
<path d="M150.35 173.747C150.298 173.778 150.263 173.815 150.262 173.84C150.261 173.865 150.294 173.884 150.344 173.886C150.392 173.889 150.43 173.849 150.433 173.793C150.435 173.737 150.4 173.718 150.35 173.747Z" fill="#FFF7ED"/>
<path d="M149.512 173.485C149.461 173.504 149.42 173.556 149.418 173.607C149.416 173.657 149.451 173.711 149.501 173.733C149.547 173.752 149.592 173.695 149.596 173.612C149.599 173.527 149.56 173.468 149.512 173.485Z" fill="#FFF7ED"/>
<path d="M146.481 173.395C146.433 173.392 146.379 173.427 146.346 173.481C146.314 173.534 146.346 173.574 146.422 173.579C146.498 173.583 146.555 173.546 146.557 173.492C146.559 173.436 146.529 173.397 146.481 173.395Z" fill="#FFF7ED"/>
<path d="M146.087 173.561C146.02 173.557 145.959 173.595 145.957 173.643C145.955 173.69 146.013 173.711 146.082 173.687C146.15 173.663 146.211 173.625 146.212 173.605C146.213 173.585 146.155 173.565 146.087 173.561Z" fill="#FFF7ED"/>
<path d="M145.294 173.379C145.247 173.344 145.21 173.36 145.207 173.416C145.205 173.472 145.239 173.516 145.287 173.518C145.338 173.521 145.372 173.506 145.374 173.481C145.375 173.456 145.343 173.415 145.294 173.379Z" fill="#FFF7ED"/>
<path d="M143.929 173.584C143.877 173.615 143.841 173.652 143.84 173.677C143.839 173.703 143.872 173.721 143.923 173.724C143.971 173.727 144.009 173.686 144.011 173.63C144.014 173.574 143.978 173.554 143.929 173.584Z" fill="#FFF7ED"/>
<path d="M143.221 173.37C143.014 173.271 142.959 173.298 143.125 173.417C143.207 173.475 143.291 173.502 143.313 173.477C143.336 173.452 143.295 173.405 143.221 173.37Z" fill="#FFF7ED"/>
<path d="M136.79 173.254C136.689 173.254 136.669 173.273 136.737 173.307C136.795 173.335 136.869 173.334 136.898 173.306C136.926 173.278 136.875 173.254 136.79 173.254Z" fill="#FFF7ED"/>
<path d="M152.846 177.192C152.81 177.17 152.627 177.171 152.44 177.194L152.1 177.236L152.504 177.274C152.874 177.308 152.992 177.28 152.846 177.192Z" fill="#FFF7ED"/>
<path d="M152.507 176.632C152.456 176.629 152.421 176.665 152.418 176.721C152.416 176.777 152.448 176.816 152.499 176.818C152.549 176.821 152.584 176.786 152.587 176.73C152.59 176.674 152.557 176.634 152.507 176.632Z" fill="#FFF7ED"/>
<path d="M146.143 175.572C146.042 175.498 145.952 175.496 145.813 175.565C145.557 175.693 145.699 175.865 146.03 175.827C146.319 175.795 146.35 175.724 146.143 175.572Z" fill="#FFF7ED"/>
<path d="M144.942 175.564C144.892 175.561 144.856 175.597 144.854 175.652C144.851 175.708 144.883 175.747 144.934 175.75C144.985 175.753 145.02 175.718 145.023 175.661C145.025 175.606 144.993 175.566 144.942 175.564Z" fill="#FFF7ED"/>
<path d="M143.618 175.022C143.57 175.019 143.516 175.054 143.483 175.108C143.451 175.16 143.483 175.201 143.559 175.206C143.635 175.21 143.691 175.173 143.694 175.119C143.696 175.063 143.665 175.024 143.618 175.022Z" fill="#FFF7ED"/>
<path d="M143.542 175.496C143.441 175.496 143.421 175.516 143.489 175.549C143.547 175.577 143.621 175.577 143.65 175.548C143.678 175.52 143.627 175.496 143.542 175.496Z" fill="#FFF7ED"/>
<path d="M142.871 174.793C142.834 174.791 142.734 174.865 142.652 174.954C142.507 175.112 142.51 175.117 142.714 175.086C142.91 175.057 143.046 174.802 142.871 174.793Z" fill="#FFF7ED"/>
<path d="M199.27 145.308C199.12 145.308 199.091 145.328 199.192 145.36C199.277 145.388 199.387 145.388 199.429 145.36C199.471 145.332 199.395 145.307 199.27 145.308Z" fill="#FFF7ED"/>
<path d="M197.129 145.594C197.03 145.59 196.975 145.632 197.011 145.683C197.052 145.741 197.126 145.761 197.195 145.733C197.379 145.658 197.353 145.602 197.129 145.594Z" fill="#FFF7ED"/>
<path d="M196.849 145.032C196.616 144.963 196.404 144.946 196.339 144.99C196.276 145.033 196.419 145.1 196.679 145.147C196.925 145.192 197.156 145.211 197.188 145.189C197.22 145.167 197.069 145.097 196.849 145.032Z" fill="#FFF7ED"/>
<path d="M195.995 145.083C195.924 145.08 195.844 145.115 195.795 145.169C195.749 145.222 195.796 145.262 195.908 145.267C196.02 145.271 196.103 145.235 196.107 145.181C196.11 145.125 196.066 145.086 195.995 145.083Z" fill="#FFF7ED"/>
<path d="M195.213 144.919C195.087 144.948 195.014 144.997 195.05 145.03C195.087 145.062 195.187 145.039 195.278 144.977C195.406 144.891 195.391 144.878 195.213 144.919Z" fill="#FFF7ED"/>
<path d="M190.823 144.611C190.723 144.607 190.668 144.649 190.705 144.7C190.746 144.758 190.819 144.777 190.888 144.749C191.074 144.674 191.047 144.619 190.823 144.611Z" fill="#FFF7ED"/>
<path d="M189.846 144.576C189.746 144.573 189.629 144.61 189.584 144.66C189.541 144.709 189.621 144.755 189.759 144.76C189.896 144.765 190.017 144.726 190.02 144.676C190.024 144.625 189.945 144.58 189.846 144.576Z" fill="#FFF7ED"/>
<path d="M188.143 144.746C188.066 144.777 188.013 144.814 188.012 144.839C188.01 144.864 188.059 144.883 188.133 144.885C188.205 144.888 188.261 144.848 188.265 144.792C188.268 144.736 188.216 144.717 188.143 144.746Z" fill="#FFF7ED"/>
<path d="M186.905 144.483C186.829 144.502 186.769 144.554 186.766 144.605C186.762 144.655 186.815 144.709 186.889 144.731C186.957 144.751 187.022 144.693 187.028 144.61C187.033 144.525 186.976 144.466 186.905 144.483Z" fill="#FFF7ED"/>
<path d="M182.428 144.395C182.357 144.392 182.278 144.427 182.229 144.481C182.182 144.534 182.229 144.574 182.341 144.579C182.454 144.583 182.537 144.546 182.54 144.492C182.544 144.436 182.499 144.397 182.428 144.395Z" fill="#FFF7ED"/>
<path d="M181.849 144.559C181.749 144.555 181.659 144.593 181.656 144.641C181.653 144.688 181.739 144.709 181.841 144.685C181.942 144.661 182.032 144.623 182.033 144.603C182.034 144.583 181.949 144.563 181.849 144.559Z" fill="#FFF7ED"/>
<path d="M180.671 144.378C180.601 144.343 180.547 144.359 180.543 144.415C180.539 144.471 180.59 144.515 180.662 144.517C180.737 144.52 180.787 144.505 180.789 144.48C180.791 144.455 180.743 144.414 180.671 144.378Z" fill="#FFF7ED"/>
<path d="M178.66 144.585C178.584 144.616 178.531 144.653 178.529 144.678C178.528 144.704 178.576 144.722 178.652 144.725C178.722 144.728 178.779 144.687 178.783 144.631C178.786 144.575 178.734 144.555 178.66 144.585Z" fill="#FFF7ED"/>
<path d="M177.616 144.368C177.31 144.269 177.229 144.297 177.475 144.415C177.596 144.473 177.719 144.5 177.752 144.475C177.786 144.45 177.726 144.403 177.616 144.368Z" fill="#FFF7ED"/>
<path d="M168.116 144.256C167.966 144.256 167.937 144.275 168.038 144.309C168.123 144.337 168.233 144.336 168.275 144.308C168.316 144.28 168.241 144.256 168.116 144.256Z" fill="#FFF7ED"/>
<path d="M157.835 149.819C157.758 149.85 157.705 149.905 157.701 149.959C157.698 150.012 157.745 150.049 157.82 150.052C157.892 150.054 157.949 149.996 157.954 149.912C157.96 149.828 157.91 149.789 157.835 149.819Z" fill="#FFF7ED"/>
<path d="M144.837 144.046C144.683 144.102 144.589 144.16 144.616 144.182C144.698 144.248 145.094 144.126 145.1 144.032C145.103 143.984 144.99 143.99 144.837 144.046Z" fill="#FFF7ED"/>
<path d="M144.102 150.677C143.999 150.736 143.936 150.81 143.967 150.836C144.046 150.901 144.283 150.773 144.291 150.661C144.295 150.605 144.219 150.611 144.102 150.677Z" fill="#FFF7ED"/>
<path d="M143.369 150.708C143.172 150.662 142.99 150.644 142.953 150.668C142.848 150.738 143.242 150.847 143.493 150.818C143.66 150.798 143.627 150.769 143.369 150.708Z" fill="#FFF7ED"/>
<path d="M143.112 144.073C143.05 144.071 143.022 144.154 143.05 144.258C143.077 144.363 143.123 144.449 143.15 144.45C143.177 144.45 143.205 144.367 143.212 144.264C143.218 144.162 143.173 144.075 143.112 144.073Z" fill="#FFF7ED"/>
<path d="M141.914 150.717C141.738 150.744 141.517 150.765 141.412 150.764C141.312 150.763 141.365 150.81 141.524 150.866C141.756 150.947 141.869 150.937 142.027 150.819C142.214 150.68 142.204 150.672 141.914 150.717Z" fill="#FFF7ED"/>
<path d="M142.342 144.134C142.267 144.131 142.241 144.17 142.28 144.225C142.321 144.283 142.371 144.322 142.404 144.323C142.438 144.324 142.463 144.288 142.467 144.232C142.47 144.179 142.416 144.137 142.342 144.134Z" fill="#FFF7ED"/>
<path d="M191.828 148.192C191.775 148.17 191.506 148.171 191.229 148.194L190.727 148.236L191.324 148.274C191.871 148.308 192.044 148.28 191.828 148.192Z" fill="#FFF7ED"/>
<path d="M191.327 147.63C191.252 147.628 191.199 147.663 191.196 147.719C191.192 147.775 191.239 147.814 191.314 147.817C191.389 147.819 191.441 147.784 191.445 147.728C191.449 147.672 191.401 147.633 191.327 147.63Z" fill="#FFF7ED"/>
<path d="M181.927 146.574C181.778 146.5 181.645 146.498 181.441 146.567C181.062 146.695 181.271 146.866 181.761 146.829C182.187 146.797 182.234 146.726 181.927 146.574Z" fill="#FFF7ED"/>
<path d="M180.155 146.565C180.08 146.562 180.028 146.598 180.024 146.653C180.02 146.709 180.068 146.748 180.143 146.751C180.217 146.754 180.269 146.719 180.273 146.662C180.277 146.607 180.23 146.567 180.155 146.565Z" fill="#FFF7ED"/>
<path d="M178.199 146.023C178.129 146.02 178.049 146.055 178 146.109C177.954 146.161 178 146.202 178.113 146.207C178.225 146.211 178.308 146.174 178.312 146.12C178.315 146.064 178.27 146.025 178.199 146.023Z" fill="#FFF7ED"/>
<path d="M178.087 146.495C177.937 146.495 177.908 146.515 178.008 146.548C178.094 146.576 178.204 146.576 178.245 146.547C178.286 146.519 178.212 146.495 178.087 146.495Z" fill="#FFF7ED"/>
<path d="M177.096 145.793C177.042 145.791 176.893 145.865 176.773 145.954C176.558 146.112 176.562 146.117 176.864 146.086C177.153 146.057 177.354 145.802 177.096 145.793Z" fill="#FFF7ED"/>
<path d="M162.776 146.392C162.552 146.384 162.531 146.402 162.676 146.479C162.905 146.602 163.043 146.608 163.05 146.496C163.053 146.446 162.925 146.398 162.776 146.392Z" fill="#FFF7ED"/>
<path d="M162.056 146.179C161.957 146.175 161.793 146.224 161.706 146.283C161.572 146.374 161.513 146.36 161.374 146.205C161.279 146.098 161.203 146.061 161.199 146.119C161.195 146.177 161.155 146.286 161.108 146.369C161.038 146.49 161.098 146.508 161.45 146.472C161.916 146.425 162.398 146.191 162.056 146.179Z" fill="#FFF7ED"/>
<path d="M159.955 146.169C159.807 146.133 159.661 146.157 159.602 146.226C159.545 146.292 159.337 146.352 159.137 146.363C158.565 146.391 158.571 146.61 159.144 146.631C159.493 146.644 159.711 146.59 159.918 146.439C160.201 146.234 160.201 146.228 159.955 146.169Z" fill="#FFF7ED"/>
<path d="M155.94 146.374C155.863 146.405 155.81 146.442 155.809 146.467C155.807 146.493 155.856 146.511 155.93 146.514C156.002 146.516 156.058 146.476 156.061 146.42C156.065 146.364 156.013 146.344 155.94 146.374Z" fill="#FFF7ED"/>
<path d="M151.45 146.499C151.366 146.455 151.265 146.443 151.221 146.472C151.107 146.55 151.259 146.65 151.437 146.614C151.563 146.588 151.566 146.561 151.45 146.499Z" fill="#FFF7ED"/>
<path d="M142.326 146.31C142.151 146.303 142.082 146.321 142.167 146.35C142.253 146.38 142.39 146.384 142.479 146.362C142.568 146.339 142.501 146.316 142.326 146.31Z" fill="#FFF7ED"/>
<path d="M141.64 146.327C141.539 146.351 141.449 146.389 141.447 146.409C141.446 146.429 141.532 146.449 141.631 146.453C141.731 146.457 141.821 146.419 141.824 146.371C141.828 146.324 141.741 146.304 141.64 146.327Z" fill="#FFF7ED"/>
<path d="M140.927 146.34C140.815 146.333 140.673 146.374 140.625 146.427C140.479 146.587 140.622 146.614 140.893 146.477C141.112 146.365 141.116 146.351 140.927 146.34Z" fill="#FFF7ED"/>
<path d="M140.801 146.716C140.699 146.713 140.274 146.759 139.858 146.818L139.102 146.926L139.84 146.906C140.516 146.887 141.304 146.731 140.801 146.716Z" fill="#FFF7ED"/>
<path d="M161.04 148.669C160.969 148.666 160.889 148.701 160.84 148.755C160.793 148.808 160.841 148.849 160.953 148.853C161.065 148.857 161.149 148.821 161.152 148.767C161.156 148.711 161.111 148.672 161.04 148.669Z" fill="#FFF7ED"/>
<path d="M151.922 148.57C151.845 148.601 151.793 148.638 151.791 148.663C151.789 148.689 151.838 148.707 151.913 148.71C151.984 148.712 152.04 148.672 152.044 148.616C152.048 148.561 151.996 148.541 151.922 148.57Z" fill="#FFF7ED"/>
<path d="M143.793 148.739C143.717 148.77 143.664 148.807 143.662 148.833C143.66 148.858 143.709 148.876 143.784 148.879C143.855 148.881 143.912 148.842 143.915 148.786C143.919 148.73 143.866 148.71 143.793 148.739Z" fill="#FFF7ED"/>
<path d="M141.803 148.617C141.728 148.615 141.676 148.65 141.672 148.706C141.669 148.762 141.716 148.801 141.791 148.804C141.866 148.807 141.918 148.771 141.922 148.715C141.925 148.659 141.878 148.62 141.803 148.617Z" fill="#FFF7ED"/>
<path d="M198.27 113.309C198.12 113.309 198.091 113.328 198.192 113.361C198.277 113.389 198.387 113.389 198.429 113.361C198.471 113.333 198.395 113.308 198.27 113.309Z" fill="#FFF7ED"/>
<path d="M196.129 113.594C196.03 113.59 195.975 113.632 196.011 113.683C196.052 113.741 196.126 113.761 196.195 113.733C196.379 113.658 196.353 113.602 196.129 113.594Z" fill="#FFF7ED"/>
<path d="M195.849 113.032C195.616 112.963 195.404 112.946 195.339 112.99C195.276 113.033 195.419 113.1 195.679 113.147C195.925 113.192 196.156 113.211 196.188 113.189C196.22 113.167 196.069 113.097 195.849 113.032Z" fill="#FFF7ED"/>
<path d="M194.995 113.083C194.924 113.08 194.844 113.115 194.795 113.169C194.749 113.222 194.796 113.262 194.908 113.267C195.02 113.271 195.103 113.235 195.107 113.181C195.11 113.125 195.066 113.086 194.995 113.083Z" fill="#FFF7ED"/>
<path d="M194.213 112.919C194.087 112.948 194.014 112.997 194.05 113.03C194.087 113.062 194.187 113.039 194.278 112.977C194.406 112.891 194.391 112.878 194.213 112.919Z" fill="#FFF7ED"/>
<path d="M189.823 112.611C189.723 112.607 189.668 112.649 189.705 112.7C189.746 112.758 189.819 112.777 189.888 112.749C190.074 112.674 190.047 112.619 189.823 112.611Z" fill="#FFF7ED"/>
<path d="M188.846 112.576C188.746 112.573 188.629 112.61 188.584 112.66C188.541 112.709 188.621 112.755 188.759 112.76C188.896 112.765 189.017 112.726 189.02 112.676C189.024 112.625 188.945 112.58 188.846 112.576Z" fill="#FFF7ED"/>
<path d="M187.143 112.746C187.066 112.777 187.013 112.814 187.012 112.839C187.01 112.864 187.059 112.883 187.133 112.885C187.205 112.888 187.261 112.848 187.265 112.792C187.268 112.736 187.216 112.717 187.143 112.746Z" fill="#FFF7ED"/>
<path d="M185.905 112.483C185.829 112.502 185.769 112.554 185.766 112.605C185.762 112.655 185.815 112.709 185.889 112.731C185.957 112.751 186.022 112.693 186.028 112.61C186.033 112.525 185.976 112.466 185.905 112.483Z" fill="#FFF7ED"/>
<path d="M181.428 112.395C181.357 112.392 181.278 112.427 181.229 112.481C181.182 112.534 181.229 112.574 181.341 112.579C181.454 112.583 181.537 112.546 181.54 112.492C181.544 112.436 181.499 112.397 181.428 112.395Z" fill="#FFF7ED"/>
<path d="M180.849 112.559C180.749 112.555 180.659 112.593 180.656 112.641C180.653 112.688 180.739 112.709 180.841 112.685C180.942 112.661 181.032 112.623 181.033 112.603C181.034 112.583 180.949 112.563 180.849 112.559Z" fill="#FFF7ED"/>
<path d="M179.671 112.378C179.601 112.343 179.547 112.359 179.543 112.415C179.539 112.471 179.59 112.515 179.662 112.517C179.737 112.52 179.787 112.505 179.789 112.48C179.791 112.455 179.743 112.414 179.671 112.378Z" fill="#FFF7ED"/>
<path d="M177.66 112.586C177.584 112.617 177.531 112.654 177.529 112.679C177.528 112.705 177.576 112.723 177.652 112.726C177.722 112.728 177.779 112.688 177.783 112.632C177.786 112.576 177.734 112.556 177.66 112.586Z" fill="#FFF7ED"/>
<path d="M176.616 112.368C176.31 112.269 176.229 112.297 176.475 112.415C176.596 112.473 176.719 112.5 176.752 112.475C176.786 112.45 176.726 112.403 176.616 112.368Z" fill="#FFF7ED"/>
<path d="M167.116 112.256C166.966 112.256 166.937 112.275 167.038 112.309C167.123 112.337 167.233 112.336 167.275 112.308C167.316 112.28 167.241 112.256 167.116 112.256Z" fill="#FFF7ED"/>
<path d="M156.835 117.819C156.758 117.85 156.705 117.905 156.701 117.959C156.698 118.012 156.745 118.049 156.82 118.052C156.892 118.054 156.949 117.996 156.954 117.912C156.96 117.828 156.91 117.789 156.835 117.819Z" fill="#FFF7ED"/>
<path d="M143.837 112.046C143.683 112.102 143.589 112.16 143.616 112.182C143.698 112.248 144.094 112.126 144.1 112.032C144.103 111.984 143.99 111.99 143.837 112.046Z" fill="#FFF7ED"/>
<path d="M143.102 118.677C142.999 118.736 142.936 118.81 142.967 118.836C143.046 118.901 143.283 118.773 143.291 118.661C143.295 118.605 143.219 118.611 143.102 118.677Z" fill="#FFF7ED"/>
<path d="M142.369 118.708C142.172 118.662 141.99 118.644 141.953 118.668C141.848 118.738 142.242 118.847 142.493 118.818C142.66 118.798 142.627 118.769 142.369 118.708Z" fill="#FFF7ED"/>
<path d="M142.112 112.073C142.05 112.071 142.022 112.154 142.05 112.258C142.077 112.363 142.123 112.449 142.15 112.45C142.177 112.45 142.205 112.367 142.212 112.264C142.218 112.162 142.173 112.075 142.112 112.073Z" fill="#FFF7ED"/>
<path d="M140.914 118.717C140.738 118.744 140.517 118.765 140.412 118.764C140.312 118.763 140.365 118.81 140.524 118.866C140.756 118.947 140.869 118.937 141.027 118.819C141.214 118.68 141.204 118.672 140.914 118.717Z" fill="#FFF7ED"/>
<path d="M141.342 112.135C141.267 112.132 141.241 112.171 141.28 112.226C141.321 112.284 141.371 112.323 141.404 112.324C141.438 112.325 141.463 112.289 141.467 112.233C141.47 112.18 141.416 112.138 141.342 112.135Z" fill="#FFF7ED"/>
<path d="M190.828 116.192C190.775 116.17 190.506 116.171 190.229 116.194L189.727 116.236L190.324 116.274C190.871 116.308 191.044 116.28 190.828 116.192Z" fill="#FFF7ED"/>
<path d="M190.327 115.63C190.252 115.628 190.199 115.663 190.196 115.719C190.192 115.775 190.239 115.814 190.314 115.817C190.389 115.819 190.441 115.784 190.445 115.728C190.449 115.672 190.401 115.633 190.327 115.63Z" fill="#FFF7ED"/>
<path d="M180.927 114.574C180.778 114.5 180.645 114.498 180.441 114.567C180.062 114.695 180.271 114.866 180.761 114.829C181.187 114.797 181.234 114.726 180.927 114.574Z" fill="#FFF7ED"/>
<path d="M179.155 114.565C179.08 114.562 179.028 114.598 179.024 114.653C179.02 114.709 179.068 114.748 179.143 114.751C179.217 114.754 179.269 114.719 179.273 114.662C179.277 114.607 179.23 114.567 179.155 114.565Z" fill="#FFF7ED"/>
<path d="M177.199 114.023C177.129 114.02 177.049 114.055 177 114.109C176.954 114.161 177 114.202 177.113 114.207C177.225 114.211 177.308 114.174 177.312 114.12C177.315 114.064 177.27 114.025 177.199 114.023Z" fill="#FFF7ED"/>
<path d="M177.087 114.495C176.937 114.495 176.908 114.515 177.008 114.548C177.094 114.576 177.204 114.576 177.245 114.547C177.286 114.519 177.212 114.495 177.087 114.495Z" fill="#FFF7ED"/>
<path d="M176.096 113.793C176.042 113.791 175.893 113.865 175.773 113.954C175.558 114.112 175.562 114.117 175.864 114.086C176.153 114.057 176.354 113.802 176.096 113.793Z" fill="#FFF7ED"/>
<path d="M161.776 114.392C161.552 114.384 161.531 114.402 161.676 114.479C161.905 114.602 162.043 114.608 162.05 114.496C162.053 114.446 161.925 114.398 161.776 114.392Z" fill="#FFF7ED"/>
<path d="M161.056 114.179C160.957 114.175 160.793 114.224 160.706 114.283C160.572 114.374 160.513 114.36 160.374 114.205C160.279 114.098 160.203 114.061 160.199 114.119C160.195 114.177 160.155 114.286 160.108 114.369C160.038 114.49 160.098 114.508 160.45 114.472C160.916 114.425 161.398 114.191 161.056 114.179Z" fill="#FFF7ED"/>
<path d="M158.955 114.169C158.807 114.133 158.661 114.157 158.602 114.226C158.545 114.292 158.337 114.352 158.137 114.363C157.565 114.391 157.571 114.61 158.144 114.631C158.493 114.644 158.711 114.59 158.918 114.439C159.201 114.234 159.201 114.228 158.955 114.169Z" fill="#FFF7ED"/>
<path d="M154.94 114.374C154.863 114.405 154.81 114.442 154.809 114.467C154.807 114.493 154.856 114.511 154.93 114.514C155.002 114.516 155.058 114.476 155.061 114.42C155.065 114.364 155.013 114.344 154.94 114.374Z" fill="#FFF7ED"/>
<path d="M150.45 114.499C150.366 114.455 150.265 114.443 150.221 114.472C150.107 114.55 150.259 114.65 150.437 114.614C150.563 114.588 150.566 114.561 150.45 114.499Z" fill="#FFF7ED"/>
<path d="M141.326 114.31C141.151 114.303 141.082 114.321 141.167 114.35C141.253 114.38 141.39 114.384 141.479 114.362C141.568 114.339 141.501 114.316 141.326 114.31Z" fill="#FFF7ED"/>
<path d="M140.64 114.327C140.539 114.351 140.449 114.389 140.447 114.409C140.446 114.429 140.532 114.449 140.631 114.453C140.731 114.457 140.821 114.419 140.824 114.371C140.828 114.324 140.741 114.304 140.64 114.327Z" fill="#FFF7ED"/>
<path d="M139.927 114.34C139.815 114.333 139.673 114.374 139.625 114.427C139.479 114.587 139.622 114.614 139.893 114.477C140.112 114.365 140.116 114.351 139.927 114.34Z" fill="#FFF7ED"/>
<path d="M139.801 114.716C139.699 114.713 139.274 114.759 138.858 114.818L138.102 114.926L138.84 114.906C139.516 114.887 140.304 114.731 139.801 114.716Z" fill="#FFF7ED"/>
<path d="M160.04 116.669C159.969 116.666 159.889 116.701 159.84 116.755C159.793 116.808 159.841 116.849 159.953 116.853C160.065 116.857 160.149 116.821 160.152 116.767C160.156 116.711 160.111 116.672 160.04 116.669Z" fill="#FFF7ED"/>
<path d="M150.922 116.57C150.845 116.601 150.793 116.638 150.791 116.663C150.789 116.689 150.838 116.707 150.913 116.71C150.984 116.712 151.04 116.672 151.044 116.616C151.048 116.561 150.996 116.541 150.922 116.57Z" fill="#FFF7ED"/>
<path d="M142.793 116.739C142.717 116.77 142.664 116.807 142.662 116.833C142.66 116.858 142.709 116.876 142.784 116.879C142.855 116.881 142.912 116.842 142.915 116.786C142.919 116.73 142.866 116.71 142.793 116.739Z" fill="#FFF7ED"/>
<path d="M140.803 116.617C140.728 116.615 140.676 116.65 140.672 116.706C140.669 116.762 140.716 116.801 140.791 116.804C140.866 116.807 140.918 116.771 140.922 116.715C140.925 116.659 140.878 116.62 140.803 116.617Z" fill="#FFF7ED"/>
<path d="M198.27 84.3086C198.12 84.3089 198.091 84.3285 198.192 84.3614C198.277 84.3894 198.387 84.3891 198.429 84.3608C198.471 84.3328 198.395 84.3083 198.27 84.3086Z" fill="#FFF7ED"/>
<path d="M196.129 84.594C196.03 84.5902 195.975 84.6319 196.011 84.6833C196.052 84.741 196.126 84.7607 196.195 84.7325C196.379 84.6576 196.353 84.6021 196.129 84.594Z" fill="#FFF7ED"/>
<path d="M195.849 84.0321C195.616 83.9634 195.404 83.9459 195.339 83.9901C195.276 84.0333 195.419 84.1004 195.679 84.1474C195.925 84.1922 196.156 84.2113 196.188 84.1894C196.22 84.1672 196.069 84.0969 195.849 84.0321Z" fill="#FFF7ED"/>
<path d="M194.995 84.0832C194.924 84.0803 194.844 84.1148 194.795 84.1691C194.749 84.2217 194.796 84.2625 194.908 84.2668C195.02 84.2709 195.103 84.2349 195.107 84.1806C195.11 84.1245 195.066 84.0857 194.995 84.0832Z" fill="#FFF7ED"/>
<path d="M194.213 83.9187C194.087 83.9479 194.014 83.9971 194.05 84.0297C194.087 84.0623 194.187 84.0394 194.278 83.9773C194.406 83.8908 194.391 83.878 194.213 83.9187Z" fill="#FFF7ED"/>
<path d="M189.823 83.6106C189.723 83.6068 189.668 83.6485 189.705 83.6996C189.746 83.7576 189.819 83.777 189.888 83.7491C190.074 83.6742 190.047 83.6187 189.823 83.6106Z" fill="#FFF7ED"/>
<path d="M188.846 83.5764C188.746 83.5727 188.629 83.6103 188.584 83.6604C188.541 83.709 188.621 83.7554 188.759 83.7601C188.896 83.7651 189.017 83.7263 189.02 83.6761C189.024 83.625 188.945 83.5802 188.846 83.5764Z" fill="#FFF7ED"/>
<path d="M187.143 83.7458C187.066 83.7765 187.013 83.8138 187.012 83.8389C187.01 83.8643 187.059 83.8828 187.133 83.8853C187.205 83.8881 187.261 83.848 187.265 83.7922C187.268 83.7364 187.216 83.7167 187.143 83.7458Z" fill="#FFF7ED"/>
<path d="M185.905 83.4835C185.829 83.502 185.769 83.554 185.766 83.6048C185.762 83.6552 185.815 83.7095 185.889 83.7308C185.957 83.7505 186.022 83.6935 186.028 83.6098C186.033 83.5255 185.976 83.4662 185.905 83.4835Z" fill="#FFF7ED"/>
<path d="M181.428 83.3947C181.357 83.3922 181.278 83.4266 181.229 83.4809C181.182 83.5335 181.229 83.5743 181.341 83.5787C181.454 83.5827 181.537 83.5464 181.54 83.4925C181.544 83.4363 181.499 83.3972 181.428 83.3947Z" fill="#FFF7ED"/>
<path d="M180.849 83.5588C180.749 83.5554 180.659 83.5933 180.656 83.6406C180.653 83.688 180.739 83.7086 180.841 83.6848C180.942 83.661 181.032 83.6231 181.033 83.603C181.034 83.5833 180.949 83.5626 180.849 83.5588Z" fill="#FFF7ED"/>
<path d="M179.671 83.3776C179.601 83.3431 179.547 83.3588 179.543 83.4149C179.539 83.4707 179.59 83.5149 179.662 83.5174C179.737 83.5202 179.787 83.5051 179.789 83.4801C179.791 83.4547 179.743 83.4139 179.671 83.3776Z" fill="#FFF7ED"/>
<path d="M177.66 83.5849C177.584 83.6156 177.531 83.6532 177.529 83.6783C177.528 83.7037 177.576 83.7222 177.652 83.7247C177.722 83.7275 177.779 83.6874 177.783 83.6313C177.786 83.5752 177.734 83.5554 177.66 83.5849Z" fill="#FFF7ED"/>
<path d="M176.616 83.3677C176.31 83.2693 176.229 83.2965 176.475 83.415C176.596 83.4733 176.719 83.4999 176.752 83.4752C176.786 83.4501 176.726 83.4031 176.616 83.3677Z" fill="#FFF7ED"/>
<path d="M167.116 83.2559C166.966 83.2562 166.937 83.2754 167.038 83.3087C167.123 83.3366 167.233 83.3363 167.275 83.3081C167.316 83.2804 167.241 83.2556 167.116 83.2559Z" fill="#FFF7ED"/>
<path d="M156.835 88.8185C156.758 88.8496 156.705 88.9054 156.701 88.9586C156.698 89.0116 156.745 89.0492 156.82 89.0517C156.892 89.0542 156.949 88.9956 156.954 88.9116C156.96 88.8276 156.91 88.7888 156.835 88.8185Z" fill="#FFF7ED"/>
<path d="M143.837 83.0459C143.683 83.1017 143.589 83.16 143.616 83.182C143.698 83.2481 144.094 83.1255 144.1 83.0321C144.103 82.9845 143.99 82.9904 143.837 83.0459Z" fill="#FFF7ED"/>
<path d="M143.102 89.6772C142.999 89.7358 142.936 89.8098 142.967 89.8358C143.046 89.901 143.283 89.7728 143.291 89.6609C143.295 89.6051 143.219 89.6114 143.102 89.6772Z" fill="#FFF7ED"/>
<path d="M142.369 89.708C142.172 89.6616 141.99 89.6437 141.953 89.6682C141.848 89.7381 142.242 89.8472 142.493 89.8177C142.66 89.7983 142.627 89.7694 142.369 89.708Z" fill="#FFF7ED"/>
<path d="M142.112 83.0733C142.05 83.0711 142.022 83.1544 142.05 83.2584C142.077 83.3628 142.123 83.4486 142.15 83.4495C142.177 83.4505 142.205 83.3672 142.212 83.2644C142.218 83.1619 142.173 83.0755 142.112 83.0733Z" fill="#FFF7ED"/>
<path d="M140.914 89.717C140.738 89.7443 140.517 89.7653 140.412 89.7637C140.312 89.7628 140.365 89.8104 140.524 89.8662C140.756 89.9471 140.869 89.9368 141.027 89.8192C141.214 89.68 141.204 89.6716 140.914 89.717Z" fill="#FFF7ED"/>
<path d="M141.342 83.1349C141.267 83.1321 141.241 83.1713 141.28 83.2261C141.321 83.2838 141.371 83.3233 141.404 83.3242C141.438 83.3252 141.463 83.2888 141.467 83.233C141.47 83.1797 141.416 83.1377 141.342 83.1349Z" fill="#FFF7ED"/>
<path d="M190.828 87.1916C190.775 87.1697 190.506 87.1706 190.229 87.1941L189.727 87.2364L190.324 87.2737C190.871 87.3082 191.044 87.28 190.828 87.1916Z" fill="#FFF7ED"/>
<path d="M190.327 86.63C190.252 86.6275 190.199 86.6626 190.196 86.7187C190.192 86.7748 190.239 86.814 190.314 86.8165C190.389 86.8193 190.441 86.7839 190.445 86.7281C190.449 86.672 190.401 86.6325 190.327 86.63Z" fill="#FFF7ED"/>
<path d="M180.927 85.5741C180.778 85.4998 180.645 85.4976 180.441 85.5672C180.062 85.6954 180.271 85.8665 180.761 85.8292C181.187 85.7972 181.234 85.7264 180.927 85.5741Z" fill="#FFF7ED"/>
<path d="M179.155 85.5646C179.08 85.5618 179.028 85.5975 179.024 85.6533C179.02 85.7091 179.068 85.7483 179.143 85.7514C179.217 85.7539 179.269 85.7185 179.273 85.6624C179.277 85.6066 179.23 85.5674 179.155 85.5646Z" fill="#FFF7ED"/>
<path d="M177.199 85.0226C177.129 85.0201 177.049 85.0546 177 85.1088C176.954 85.1611 177 85.2022 177.113 85.2066C177.225 85.2107 177.308 85.1743 177.312 85.1204C177.315 85.0643 177.27 85.0251 177.199 85.0226Z" fill="#FFF7ED"/>
<path d="M177.087 85.4951C176.937 85.4954 176.908 85.5147 177.008 85.5476C177.094 85.5756 177.204 85.5756 177.245 85.547C177.286 85.5194 177.212 85.4948 177.087 85.4951Z" fill="#FFF7ED"/>
<path d="M176.096 84.793C176.042 84.7911 175.893 84.8648 175.773 84.9541C175.558 85.1124 175.562 85.1174 175.864 85.0864C176.153 85.0566 176.354 84.8024 176.096 84.793Z" fill="#FFF7ED"/>
<path d="M161.776 85.3925C161.552 85.3843 161.531 85.4016 161.676 85.4793C161.905 85.6022 162.043 85.6084 162.05 85.4959C162.053 85.4464 161.925 85.3978 161.776 85.3925Z" fill="#FFF7ED"/>
<path d="M161.056 85.1786C160.957 85.1749 160.793 85.2239 160.706 85.283C160.572 85.3744 160.513 85.3603 160.374 85.205C160.279 85.0985 160.203 85.0611 160.199 85.1189C160.195 85.1771 160.155 85.2861 160.108 85.3688C160.038 85.4898 160.098 85.508 160.45 85.4722C160.916 85.4247 161.398 85.1912 161.056 85.1786Z" fill="#FFF7ED"/>
<path d="M158.955 85.1689C158.807 85.1331 158.661 85.1567 158.602 85.2261C158.545 85.2915 158.337 85.3525 158.137 85.3626C157.565 85.3915 157.571 85.6102 158.144 85.6313C158.493 85.6442 158.711 85.5898 158.918 85.4392C159.201 85.2343 159.201 85.2283 158.955 85.1689Z" fill="#FFF7ED"/>
<path d="M154.94 85.3739C154.863 85.4049 154.81 85.4419 154.809 85.4673C154.807 85.4927 154.856 85.5112 154.93 85.5137C155.002 85.5162 155.058 85.4764 155.061 85.4203C155.065 85.3645 155.013 85.3444 154.94 85.3739Z" fill="#FFF7ED"/>
<path d="M150.45 85.4994C150.366 85.4546 150.265 85.4427 150.221 85.4724C150.107 85.5499 150.259 85.6498 150.437 85.6138C150.563 85.5878 150.566 85.5614 150.45 85.4994Z" fill="#FFF7ED"/>
<path d="M141.326 85.3099C141.151 85.3034 141.082 85.3214 141.167 85.3503C141.253 85.3795 141.39 85.3845 141.479 85.3618C141.568 85.3391 141.501 85.3161 141.326 85.3099Z" fill="#FFF7ED"/>
<path d="M140.64 85.3272C140.539 85.351 140.449 85.3889 140.447 85.409C140.446 85.4287 140.532 85.4494 140.631 85.4532C140.731 85.4569 140.821 85.4187 140.824 85.3714C140.828 85.324 140.741 85.3037 140.64 85.3272Z" fill="#FFF7ED"/>
<path d="M139.927 85.3396C139.815 85.333 139.673 85.374 139.625 85.4267C139.479 85.5872 139.622 85.6138 139.893 85.4765C140.112 85.3653 140.116 85.3505 139.927 85.3396Z" fill="#FFF7ED"/>
<path d="M139.801 85.716C139.699 85.7128 139.274 85.7586 138.858 85.8182L138.102 85.926L138.84 85.9056C139.516 85.8868 140.304 85.7313 139.801 85.716Z" fill="#FFF7ED"/>
<path d="M160.04 87.6691C159.969 87.6663 159.889 87.7011 159.84 87.7553C159.793 87.8076 159.841 87.8487 159.953 87.8531C160.065 87.8575 160.149 87.8211 160.152 87.7669C160.156 87.7108 160.111 87.6716 160.04 87.6691Z" fill="#FFF7ED"/>
<path d="M150.922 87.57C150.845 87.6011 150.793 87.6381 150.791 87.6634C150.789 87.6885 150.838 87.707 150.913 87.7098C150.984 87.7123 151.04 87.6722 151.044 87.6164C151.048 87.5606 150.996 87.5409 150.922 87.57Z" fill="#FFF7ED"/>
<path d="M142.793 87.7391C142.717 87.7702 142.664 87.8075 142.662 87.8325C142.66 87.8579 142.709 87.8764 142.784 87.8789C142.855 87.8814 142.912 87.8416 142.915 87.7855C142.919 87.7297 142.866 87.7097 142.793 87.7391Z" fill="#FFF7ED"/>
<path d="M140.803 87.6173C140.728 87.6145 140.676 87.6499 140.672 87.706C140.669 87.7618 140.716 87.8013 140.791 87.8038C140.866 87.8067 140.918 87.7712 140.922 87.7151C140.925 87.6593 140.878 87.6202 140.803 87.6173Z" fill="#FFF7ED"/>
<line x1="84.998" y1="81.2402" x2="184.001" y2="81.2402" stroke="#6055C0"/>
<line x1="85" y1="111.5" x2="199" y2="111.5" stroke="#6055C0"/>
<line x1="85" y1="141.5" x2="195" y2="141.5" stroke="#6055C0"/>
<line x1="85" y1="172.5" x2="133" y2="172.5" stroke="#6055C0"/>
<defs>
<filter id="filter0_d_649_3509" x="126" y="18" width="28" height="28" filterUnits="userSpaceOnUse" color-interpolation-filters="sRGB">
<feFlood flood-opacity="0" result="BackgroundImageFix"/>
<feColorMatrix in="SourceAlpha" type="matrix" values="0 0 0 0 0 0 0 0 0 0 0 0 0 0 0 0 0 0 127 0" result="hardAlpha"/>
<feOffset dx="3" dy="2"/>
<feGaussianBlur stdDeviation="2"/>
<feComposite in2="hardAlpha" operator="out"/>
<feColorMatrix type="matrix" values="0 0 0 0 0.898039 0 0 0 0 0.584314 0 0 0 0 0.658824 0 0 0 1 0"/>
<feBlend mode="normal" in2="BackgroundImageFix" result="effect1_dropShadow_649_3509"/>
<feBlend mode="normal" in="SourceGraphic" in2="effect1_dropShadow_649_3509" result="shape"/>
</filter>
</defs>
</svg>
