<svg width="280" height="39" viewBox="0 0 280 39" fill="none" xmlns="http://www.w3.org/2000/svg">
<path d="M38.3408 2.32889L38.2378 2.9488C37.0679 2.9488 36.1132 3.06109 35.3737 3.2849C34.6335 3.50948 34.0655 3.99094 33.6711 4.73082C33.2753 5.47147 33.0001 6.58129 32.8456 8.06105C32.6903 9.54159 32.6135 11.5382 32.6135 14.0509V24.1716C32.6135 27.1665 32.1915 29.6368 31.349 31.5804C30.5058 33.5254 29.4051 35.0321 28.0469 36.0989C26.6871 37.1664 25.2259 37.9147 23.6601 38.3447C22.0944 38.7754 20.5893 38.99 19.1442 38.99C15.7383 38.99 13.0111 38.3885 10.9649 37.1826C8.91722 35.9789 7.43832 34.2999 6.52746 32.1487C5.61506 29.9976 5.16001 27.5103 5.16001 24.6876V13.9986C5.16001 11.4859 5.10851 9.48929 5.00551 8.00876C4.90251 6.52899 4.68652 5.42686 4.36061 4.7039C4.03316 3.98094 3.53507 3.50794 2.86403 3.28413C2.19299 3.06032 1.27213 2.94803 0.103 2.94803L0 2.32812H13.8812L13.7782 2.94803C12.6083 2.94803 11.6882 3.06032 11.0172 3.28413C10.3462 3.50871 9.8473 3.98094 9.52062 4.7039C9.19317 5.42686 8.98717 6.52899 8.90108 8.00876C8.81499 9.48929 8.77195 11.4859 8.77195 13.9986V24.9453C8.77195 28.0425 9.25313 30.5052 10.217 32.3287C11.1794 34.1538 12.4953 35.4705 14.1649 36.2789C15.8329 37.0887 17.7168 37.4925 19.8161 37.4925C21.7769 37.4925 23.6348 37.0618 25.3888 36.2012C27.1437 35.3413 28.5703 33.9385 29.6718 31.9926C30.7725 30.0491 31.3229 27.4749 31.3229 24.2738V14.0501C31.3229 11.5374 31.2453 9.54082 31.0908 8.06029C30.9355 6.58052 30.6603 5.4707 30.2652 4.73005C29.8694 3.99017 29.3105 3.50871 28.588 3.28413C27.8655 3.06032 26.9192 2.94803 25.7493 2.94803L25.6463 2.32812H38.3408V2.32889Z" fill="#6055C0"/>
<path d="M48.7633 0.46875V29.4864C48.7633 31.38 48.7971 32.8866 48.8663 34.0042C48.9347 35.1232 49.1154 35.9585 49.4082 36.5091C49.6995 37.0598 50.1385 37.4221 50.7242 37.5928C51.3084 37.7659 52.1178 37.8512 53.1493 37.8512L53.2523 38.4711H40.6094L40.7124 37.8512C41.7785 37.8512 42.6133 37.7659 43.2151 37.5928C43.8162 37.4213 44.2551 37.0598 44.5311 36.5091C44.8055 35.9585 44.9777 35.1232 45.0469 34.0042C45.1153 32.8866 45.1499 31.38 45.1499 29.4864V9.76265C45.1499 7.90372 45.1153 6.42472 45.0469 5.32259C44.9777 4.22123 44.8055 3.41213 44.5311 2.89605C44.2551 2.37998 43.8162 2.04388 43.2151 1.88929C42.6125 1.73393 41.7777 1.65702 40.7124 1.65702L40.6094 1.08788C42.1229 0.880992 43.5072 0.726401 44.7632 0.623341C46.0192 0.519511 47.3521 0.46875 48.7633 0.46875Z" fill="#6055C0"/>
<path d="M63.8827 7.69531V14.0458H70.2295V15.1818H63.8827V34.8548C63.8827 35.6116 64.0541 36.1969 64.3985 36.6099C64.7421 37.0229 65.1894 37.2298 65.7398 37.2298C66.4277 37.2298 67.1157 37.1352 67.8044 36.946C68.4923 36.7576 69.2664 36.4899 70.1265 36.1454L70.2295 36.7138C69.2664 37.3337 68.251 37.8674 67.1849 38.3143C66.118 38.7611 64.9996 38.9849 63.8304 38.9849C62.6951 38.9849 61.8181 38.7096 61.1985 38.1597C60.579 37.609 60.27 36.5761 60.27 35.0617V15.1818H57.1738V14.0458C58.5497 14.0458 59.599 13.762 60.3215 13.1937C61.044 12.6261 61.5767 11.86 61.9211 10.8963C62.2647 9.93342 62.5406 8.9005 62.7466 7.79837L63.8827 7.69531Z" fill="#6055C0"/>
<path d="M89.2214 13.2734C90.0124 13.2734 90.7518 13.4542 91.4406 13.8157C92.1285 14.1771 92.4721 14.7024 92.4721 15.3908C92.4721 16.0799 92.2477 16.6044 91.8011 16.9652C91.3537 17.3266 90.8887 17.5074 90.4075 17.5074C89.8917 17.5074 89.4528 17.3959 89.0915 17.1713C88.7303 16.9475 88.3344 16.7244 87.9047 16.4998C87.4743 16.276 86.864 16.1637 86.073 16.1637C85.1445 16.1637 84.3358 16.7575 83.6479 17.945C82.9592 19.1325 82.4349 20.673 82.0744 22.5658C81.7132 24.4593 81.5325 26.4383 81.5325 28.5041C81.5325 30.6722 81.5756 32.395 81.6617 33.6679C81.747 34.9415 81.9276 35.8706 82.2036 36.4559C82.4788 37.0419 82.9084 37.4203 83.4942 37.5919C84.0783 37.7649 84.8877 37.8503 85.9193 37.8503L86.0223 38.4702H73.4824L73.5854 37.8503C74.5831 37.8503 75.374 37.7649 75.959 37.5919C76.5432 37.4203 76.9728 37.0419 77.2488 36.4559C77.524 35.8706 77.7046 34.9415 77.7907 33.6679C77.876 32.395 77.9198 30.6722 77.9198 28.5041V25.5092C77.9198 22.9965 77.876 21.0084 77.7907 19.5455C77.7046 18.0827 77.4978 17.0075 77.1712 16.3183C76.8437 15.63 76.3456 15.1916 75.6746 15.0016C75.0035 14.8124 74.0827 14.7178 72.9135 14.7178L72.8105 14.1495C74.53 13.9426 76.0528 13.788 77.3772 13.6849C78.7008 13.5818 80.0859 13.5296 81.531 13.5296V21.1199C81.9092 18.6757 82.7608 16.7567 84.0852 15.3623C85.4104 13.9702 87.1222 13.2734 89.2214 13.2734Z" fill="#6055C0"/>
<path d="M113.733 21.786V27.0005C113.733 29.4455 113.777 31.3383 113.863 32.6804C113.948 34.0232 114.146 34.9616 114.456 35.4945C114.766 36.0283 115.23 36.2952 115.85 36.2952C116.296 36.2952 116.709 36.2175 117.088 36.0621C117.466 35.9076 117.827 35.7445 118.172 35.5715L118.43 36.0883C117.053 36.9489 115.772 37.6034 114.585 38.0503C113.398 38.4971 112.082 38.7217 110.637 38.7217C110.5 38.068 110.38 37.1035 110.276 35.8299C110.173 34.557 110.121 33.2149 110.121 31.8028C109.742 32.9388 109.235 34.0578 108.599 35.1584C107.962 36.2613 107.111 37.172 106.045 37.8957C104.978 38.6179 103.602 38.9794 101.916 38.9794C99.8861 38.9794 98.2342 38.4118 96.9621 37.2758C95.6892 36.1391 95.0527 34.557 95.0527 32.525C95.0527 30.873 95.5508 29.4194 96.5493 28.1619C97.5463 26.9059 99.1466 25.9245 101.349 25.2193C103.55 24.514 106.474 24.161 110.122 24.161V22.302C110.122 20.8223 109.993 19.5056 109.735 18.3519C109.477 17.199 108.978 16.2953 108.238 15.6408C107.498 14.987 106.424 14.6602 105.013 14.6602C104.049 14.6602 103.292 14.8409 102.742 15.2024C102.192 15.5639 101.753 16.003 101.426 16.5191C101.099 17.0352 100.815 17.5605 100.575 18.0935C100.334 18.6272 100.05 19.0749 99.7239 19.4363C99.3964 19.7978 98.9406 19.9786 98.3564 19.9786C97.1865 19.9786 96.6016 19.3933 96.6016 18.2227C96.6016 17.2252 97.0143 16.3814 97.8399 15.6923C98.6654 15.004 99.7408 14.471 101.065 14.0918C102.39 13.7134 103.775 13.5234 105.22 13.5234C107.662 13.5234 109.691 14.1864 111.309 15.5116C112.925 16.8383 113.733 18.9295 113.733 21.786ZM102.742 37.3796C104.084 37.3796 105.219 36.9843 106.148 36.1921C107.076 35.4007 107.825 34.3847 108.392 33.1457C108.96 31.9067 109.381 30.5899 109.656 29.1955C109.932 27.8012 110.086 26.5198 110.121 25.3485C107.403 25.3839 105.227 25.7453 103.593 26.4329C101.959 27.122 100.781 28.0173 100.058 29.1179C99.3357 30.22 98.9744 31.4244 98.9744 32.7319C98.9744 34.0055 99.2842 35.0992 99.903 36.0114C100.522 36.9235 101.469 37.3796 102.742 37.3796Z" fill="#6055C0"/>
<path d="M130.246 15.1806V26.798C130.246 29.3115 130.297 31.3081 130.401 32.7878C130.504 34.2684 130.718 35.369 131.046 36.0927C131.372 36.8149 131.871 37.2894 132.542 37.5125C133.213 37.737 134.133 37.8486 135.303 37.8486L135.406 38.4685H121.524L121.627 37.8486C122.797 37.8486 123.717 37.737 124.388 37.5125C125.059 37.2894 125.558 36.8157 125.885 36.0927C126.212 35.3697 126.418 34.2684 126.505 32.7878C126.59 31.3081 126.634 29.3107 126.634 26.798V15.1806H121.886V14.0447H126.634C126.634 10.9813 126.883 8.52864 127.382 6.68662C127.88 4.84538 128.535 3.43407 129.343 2.45268C130.151 1.47207 131.054 0.818331 132.053 0.490691C133.05 0.16382 134.065 0 135.097 0C136.233 0 137.393 0.21535 138.58 0.645282C139.767 1.07598 140.756 1.65204 141.547 2.375C142.338 3.09797 142.734 3.89015 142.734 4.75001C142.734 5.26608 142.544 5.71447 142.166 6.09287C141.787 6.47204 141.306 6.66124 140.721 6.66124C139.895 6.66124 139.277 6.39513 138.863 5.8606C138.45 5.32761 138.097 4.72463 137.805 4.0532C137.513 3.38177 137.134 2.78032 136.67 2.24579C136.206 1.7128 135.509 1.44515 134.58 1.44515C133.307 1.44515 132.361 1.85816 131.742 2.68419C131.123 3.51021 130.718 4.68079 130.529 6.19516C130.339 7.71031 130.245 9.51771 130.245 11.6166V14.0431H137.057V15.1791H130.246V15.1806Z" fill="#6055C0"/>
<path d="M151.609 13.5234C154.086 13.5234 156.21 14.1003 157.983 15.2532C159.755 16.4068 161.113 17.9466 162.06 19.8747C163.005 21.8029 163.479 23.9372 163.479 26.2776C163.479 28.5841 163.022 30.7015 162.111 32.6288C161.199 34.557 159.883 36.0968 158.164 37.2496C156.444 38.4041 154.363 38.9794 151.92 38.9794C149.51 38.9794 147.42 38.4041 145.649 37.2496C143.878 36.0968 142.519 34.557 141.573 32.6288C140.627 30.7015 140.154 28.5841 140.154 26.2776C140.154 23.9372 140.601 21.8029 141.496 19.8747C142.39 17.9473 143.698 16.4068 145.418 15.2532C147.136 14.1003 149.201 13.5234 151.609 13.5234ZM151.919 37.9472C153.673 37.9472 155.119 37.4219 156.254 36.3721C157.389 35.3223 158.224 33.9117 158.757 32.1382C159.289 30.3654 159.557 28.4118 159.557 26.2776C159.557 24.1087 159.264 22.139 158.68 20.3654C158.094 18.5926 157.216 17.1821 156.048 16.1315C154.877 15.0817 153.416 14.5563 151.661 14.5563C149.941 14.5563 148.513 15.0817 147.378 16.1315C146.243 17.1821 145.408 18.5926 144.875 20.3654C144.341 22.139 144.075 24.1087 144.075 26.2776C144.075 28.4118 144.367 30.3654 144.952 32.1382C145.538 33.9117 146.414 35.3223 147.584 36.3721C148.754 37.4219 150.199 37.9472 151.919 37.9472Z" fill="#6055C0"/>
<path d="M183.498 13.2734C184.288 13.2734 185.028 13.4542 185.717 13.8157C186.405 14.1771 186.749 14.7024 186.749 15.3908C186.749 16.0799 186.525 16.6044 186.078 16.9652C185.631 17.3266 185.166 17.5074 184.685 17.5074C184.168 17.5074 183.73 17.3959 183.369 17.1713C183.008 16.9475 182.612 16.7244 182.182 16.4998C181.751 16.276 181.141 16.1637 180.35 16.1637C179.421 16.1637 178.612 16.7575 177.924 17.945C177.236 19.1325 176.712 20.673 176.35 22.5658C175.989 24.4593 175.808 26.4383 175.808 28.5041C175.808 30.6722 175.851 32.395 175.937 33.6679C176.023 34.9415 176.204 35.8706 176.479 36.4559C176.754 37.0419 177.184 37.4203 177.77 37.5919C178.355 37.7649 179.164 37.8503 180.195 37.8503L180.298 38.4702H167.759L167.863 37.8503C168.86 37.8503 169.651 37.7649 170.236 37.5919C170.821 37.4203 171.25 37.0419 171.527 36.4559C171.801 35.8706 171.982 34.9415 172.068 33.6679C172.153 32.395 172.197 30.6722 172.197 28.5041V25.5092C172.197 22.9965 172.153 21.0084 172.068 19.5455C171.982 18.0827 171.775 17.0075 171.449 16.3183C171.121 15.63 170.623 15.1916 169.953 15.0016C169.282 14.8124 168.361 14.7178 167.192 14.7178L167.088 14.1495C168.808 13.9426 170.331 13.788 171.655 13.6849C172.978 13.5818 174.364 13.5296 175.808 13.5296V21.1199C176.187 18.6757 177.039 16.7567 178.363 15.3623C179.686 13.9679 181.399 13.2734 183.498 13.2734Z" fill="#6055C0"/>
<path d="M212.191 22.7658C212.363 21.3207 212.75 19.8832 213.353 18.455C213.954 17.0267 214.779 15.8469 215.829 14.9178C216.878 13.9887 218.177 13.5234 219.725 13.5234C222.203 13.5234 224.077 14.2387 225.35 15.6662C226.623 17.0952 227.259 19.1348 227.259 21.7852V29.9431C227.259 32.2843 227.344 34.0225 227.517 35.1577C227.689 36.2944 228.085 37.0258 228.705 37.3527C229.324 37.6803 230.304 37.8434 231.646 37.8434L231.75 38.4633H219.571L219.674 37.8434C220.637 37.8434 221.393 37.758 221.945 37.585C222.494 37.4135 222.891 37.052 223.131 36.5013C223.37 35.9506 223.518 35.1154 223.569 33.9963C223.621 32.8788 223.647 31.3721 223.647 29.4786V22.3013C223.647 20.0639 223.329 18.3088 222.693 17.0344C222.055 15.7615 220.878 15.124 219.158 15.124C218.056 15.124 217.111 15.4854 216.32 16.2084C215.529 16.9314 214.866 17.8697 214.333 19.0226C213.8 20.1762 213.379 21.4237 213.069 22.7658C212.759 24.1087 212.535 25.4085 212.398 26.6636C212.259 27.9211 212.191 29.0133 212.191 29.9431C212.191 31.7328 212.225 33.1534 212.294 34.2024C212.363 35.253 212.535 36.036 212.811 36.5521C213.085 37.0689 213.515 37.4135 214.1 37.585C214.685 37.758 215.494 37.8434 216.526 37.8434L216.629 38.4633H204.503L204.606 37.8434C205.569 37.8434 206.325 37.758 206.877 37.585C207.427 37.4135 207.822 37.052 208.063 36.5013C208.304 35.9506 208.451 35.1154 208.502 33.9963C208.553 32.8788 208.58 31.3721 208.58 29.4786V22.3013C208.58 20.0639 208.261 18.3088 207.625 17.0344C206.988 15.7615 205.81 15.124 204.09 15.124C202.988 15.124 202.042 15.4854 201.252 16.2084C200.461 16.9314 199.798 17.8697 199.265 19.0226C198.732 20.1762 198.311 21.4237 198.001 22.7658C197.691 24.1087 197.467 25.4085 197.33 26.6636C197.191 27.9211 197.123 29.0133 197.123 29.9431C197.123 31.7328 197.157 33.1534 197.226 34.2024C197.295 35.253 197.467 36.036 197.743 36.5521C198.017 37.0689 198.447 37.4135 199.033 37.585C199.617 37.758 200.427 37.8434 201.458 37.8434L201.561 38.4633H188.969L189.073 37.8434C190.139 37.8434 190.973 37.758 191.576 37.585C192.177 37.4135 192.616 37.0604 192.892 36.5267C193.166 35.9937 193.338 35.1931 193.407 34.1255C193.477 33.0588 193.511 31.6305 193.511 29.8401V25.71C193.511 23.1973 193.467 21.2007 193.382 19.7201C193.296 18.2404 193.08 17.139 192.737 16.4161C192.393 15.6931 191.885 15.2201 191.215 14.9963C190.544 14.7725 189.606 14.6602 188.403 14.6602L188.299 14.0926C190.054 13.8857 191.602 13.7403 192.944 13.6534C194.285 13.568 195.679 13.5242 197.124 13.5242V22.7666C197.296 21.3214 197.683 19.884 198.285 18.4557C198.886 17.0275 199.712 15.8477 200.763 14.9186C201.811 13.9895 203.111 13.5242 204.658 13.5242C207.136 13.5242 209.01 14.2472 210.282 15.6931C211.554 17.1375 212.191 19.4956 212.191 22.7658Z" fill="#6055C0"/>
<path d="M256.211 25.3992H239.285V26.2776C239.285 28.8587 239.661 30.976 240.42 32.6288C241.176 34.2809 242.173 35.503 243.412 36.2952C244.652 37.0874 245.975 37.4827 247.386 37.4827C248.832 37.4827 250.233 37.165 251.593 36.5275C252.951 35.8914 254.025 34.8323 254.818 33.3518L255.591 33.7648C254.629 35.6584 253.347 37.0012 251.748 37.7919C250.147 38.5833 248.436 38.9794 246.613 38.9794C244.685 38.9794 242.863 38.5064 241.143 37.5596C239.422 36.6128 238.029 35.1931 236.963 33.2995C235.895 31.4067 235.362 29.0656 235.362 26.2776C235.362 23.9372 235.792 21.8029 236.654 19.8747C237.512 17.9473 238.744 16.4068 240.342 15.2532C241.943 14.1003 243.878 13.5234 246.148 13.5234C248.383 13.5234 250.242 14.0572 251.721 15.124C253.2 16.1915 254.318 17.6205 255.076 19.4094C255.831 21.1999 256.211 23.1973 256.211 25.3992ZM246.2 14.5563C244.102 14.5563 242.501 15.4524 241.401 17.2413C240.299 19.0318 239.628 21.2514 239.388 23.9018H252.237C252.134 21.0799 251.619 18.8157 250.689 17.1121C249.76 15.4085 248.263 14.5563 246.2 14.5563Z" fill="#6055C0"/>
<path d="M276.747 13.2734C277.538 13.2734 278.277 13.4542 278.966 13.8157C279.654 14.1771 279.999 14.7024 279.999 15.3908C279.999 16.0799 279.774 16.6044 279.328 16.9652C278.881 17.3266 278.415 17.5074 277.935 17.5074C277.418 17.5074 276.98 17.3959 276.618 17.1713C276.257 16.9475 275.862 16.7244 275.432 16.4998C275.001 16.276 274.39 16.1637 273.599 16.1637C272.671 16.1637 271.861 16.7575 271.174 17.945C270.486 19.1325 269.961 20.673 269.599 22.5658C269.239 24.4593 269.057 26.4383 269.057 28.5041C269.057 30.6722 269.101 32.395 269.186 33.6679C269.272 34.9415 269.454 35.8706 269.728 36.4559C270.003 37.0419 270.434 37.4203 271.02 37.5919C271.604 37.7649 272.413 37.8503 273.444 37.8503L273.548 38.4702H261.008L261.112 37.8503C262.109 37.8503 262.9 37.7649 263.485 37.5919C264.071 37.4203 264.5 37.0419 264.777 36.4559C265.051 35.8706 265.232 34.9415 265.317 33.6679C265.402 32.395 265.446 30.6722 265.446 28.5041V25.5092C265.446 22.9965 265.402 21.0084 265.317 19.5455C265.232 18.0827 265.024 17.0075 264.698 16.3183C264.371 15.63 263.873 15.1916 263.202 15.0016C262.531 14.8124 261.611 14.7178 260.441 14.7178L260.337 14.1495C262.057 13.9426 263.58 13.788 264.904 13.6849C266.227 13.5818 267.613 13.5296 269.057 13.5296V21.1199C269.436 18.6757 270.289 16.7567 271.612 15.3623C272.936 13.9679 274.649 13.2734 276.747 13.2734Z" fill="#6055C0"/>
</svg>
