<svg width="131" height="21" viewBox="0 0 131 21" fill="none" xmlns="http://www.w3.org/2000/svg">
<path d="M10 0.305664L12.2451 7.21549H19.5106L13.6327 11.486L15.8779 18.3958L10 14.1253L4.12215 18.3958L6.36729 11.486L0.489435 7.21549H7.75486L10 0.305664Z" fill="#E595A8"/>
<path d="M38 0.305664L40.2451 7.21549H47.5106L41.6327 11.486L43.8779 18.3958L38 14.1253L32.1221 18.3958L34.3673 11.486L28.4894 7.21549H35.7549L38 0.305664Z" fill="#E595A8"/>
<path d="M65.5 0.305664L67.6329 7.21549H74.535L68.9511 11.486L71.084 18.3958L65.5 14.1253L59.916 18.3958L62.0489 11.486L56.465 7.21549H63.3671L65.5 0.305664Z" fill="#E595A8"/>
<path d="M93 0.305664L95.2451 7.21549H102.511L96.6327 11.486L98.8779 18.3958L93 14.1253L87.1221 18.3958L89.3673 11.486L83.4894 7.21549H90.7549L93 0.305664Z" fill="#E595A8"/>
<path d="M121 0.305664L123.245 7.21549H130.511L124.633 11.486L126.878 18.3958L121 14.1253L115.122 18.3958L117.367 11.486L111.489 7.21549H118.755L121 0.305664Z" fill="#E595A8"/>
</svg>
